<?xml version="1.0" encoding="UTF-8" standalone="no"?><!DOCTYPE svg PUBLIC "-//W3C//DTD SVG 1.1//EN" "http://www.w3.org/Graphics/SVG/1.1/DTD/svg11.dtd"><svg width="100%" height="100%" viewBox="0 0 5000 2500" version="1.1" xmlns="http://www.w3.org/2000/svg" xmlns:xlink="http://www.w3.org/1999/xlink" xml:space="preserve" xmlns:serif="http://www.serif.com/" style="fill-rule:evenodd;clip-rule:evenodd;stroke-linejoin:round;stroke-miterlimit:2;"><g id="Layer1"><path d="M2340.32,2382.83c20.462,-4.742 58.917,4.876 58.809,-22.765c14.137,-13.678 22.653,-32.99 26.559,-56.912c13.414,-12.274 32.626,-27.242 22.765,-56.912c5.779,-17.017 16.002,-37.505 13.28,-1.897c2.346,25.477 36.131,19.521 56.912,26.559c21.805,-7.57 46.89,-17.017 56.912,7.588c18.108,4.819 26.975,38.833 13.28,55.015c7.928,15.613 -33.937,26.996 -41.736,26.559c22.179,8.215 42.077,-8.631 56.912,-18.97c-3.367,-23.714 6.57,-55.471 -17.073,-62.604c-25.281,-12.255 -17.063,-28.779 -17.074,-51.221c4.418,-8.973 17.442,-34.66 17.074,-58.809c18.014,-7.684 25.899,-33.958 20.867,-58.81c11.647,-16.182 2.636,-53.023 15.177,-68.294c10.413,-17.416 15.624,-40.029 13.28,-70.192c1.417,-26.408 11.259,-44.392 13.279,-70.192c6.289,-21.961 2.924,-56.607 3.794,-81.574c-6.197,-44.252 11.472,-30.257 9.486,5.691c-0.907,27.517 42.352,19.414 56.912,11.382c21.41,-6.41 48.233,-7.417 64.501,-18.971c15.396,-12.277 8.851,-50.01 3.794,-68.294c-19.663,-35.157 19.344,-29.974 30.353,-45.53c3.388,-24.636 -10.607,-42.965 -11.383,-68.295c-9.498,-23.459 7.139,-44.018 7.589,-68.295c-11.569,-22.599 -4.991,-43.566 1.897,-66.397c-4.16,-8.585 -1.611,-67.092 -9.486,-55.016c-4.461,26.404 11.288,56.317 -1.897,70.192c-0.552,-50.608 -9.675,23.306 -3.794,34.148c20.46,38.283 -11.096,12.082 -7.588,-15.177c-26.187,-0.666 -66.842,-5.479 -17.074,-9.485c35.039,12.217 17.725,-33.154 15.177,-49.324c-6.302,-26.258 3.936,-50.248 9.485,-70.192c5.862,-22.386 5.286,-54.245 39.839,-45.53c36.786,-8.964 25.11,30.541 30.353,53.118c-1.776,17.58 20.067,58.419 7.588,53.118c-28.205,-0.383 -14.52,41.131 -32.25,51.221c0.878,-21.915 13.82,-33.783 -3.794,-56.912c0.654,-40.404 -9.442,33.03 -11.383,30.353c14.418,28.392 -16.876,33.825 -18.97,56.913c6.454,-14.796 30.256,-23.315 49.324,-30.354c26.695,6.769 28.854,-40.633 37.941,-30.353c2.971,24.85 2.134,53.517 7.589,75.883c18.035,38.947 12.405,3.371 7.588,-22.765c3.341,-23.874 4.189,-57.424 -9.486,-70.192c-19.845,-7.977 -18.784,-36.865 -24.662,-58.809c-8.715,-25.802 8.568,-54.18 -3.794,-72.089c-11.299,-16.521 -6.241,-49.407 -18.97,-64.5c-14.179,-13.642 -13.802,-41.85 -20.868,-62.604c-5.47,-22.78 -15.886,-43.644 -22.765,-62.603c-10.102,-17.719 -15.403,-40.247 -30.353,-53.119c-17.021,-28.091 -16.727,-25.737 11.382,-37.941c18.44,-9.381 23.85,-31.801 37.942,-45.53c15.48,-12.34 20.645,-35.005 30.353,-53.118c12.42,-15.401 18.8,-36.849 30.353,-53.118c7.093,-20.728 12.534,-43.117 20.868,-62.604c27.32,-17.865 -12.583,-39.979 7.588,-56.912c1.216,-44.071 18.339,-8.7 30.353,3.794c27.927,-1.275 2.865,-39.195 -1.897,-51.221c-11.088,-24.677 9.055,-43.766 -3.794,-68.295c-1.254,-25.834 7.672,-56.576 -26.559,-53.118c-13.522,-16.639 -48.891,-7.732 -62.603,1.897c-15.581,10.523 -35.997,22.431 -39.839,39.839c-11.011,-21.615 35.092,-38.572 18.971,-41.736c18.126,-9.694 34.356,-21.295 64.5,-18.971c32.535,8.448 -27.42,-22.618 -37.941,-1.897c-16.23,7.501 -52.667,28.845 -20.868,1.897c31.099,-12.49 42.441,-7.561 3.794,-18.97c-12.249,-36.161 -46.964,30.277 -22.765,7.588c34.91,-15.531 -8.172,14.797 -5.691,32.25c-12.208,17.673 -7.59,49.466 1.897,66.398c-4.726,18.699 -1.576,52.278 5.691,70.192c23.812,17.83 5.217,33.366 0,56.912c-18.179,9.641 -17.787,37.864 -41.735,41.736c9.229,22.611 -16.071,36.037 -26.559,49.324c-15.215,12.118 -31.558,45.283 -17.074,1.897c1.062,-26.758 6.575,-49.076 5.691,-77.78c-10.853,-35.081 21.705,15.8 11.383,30.353c-20.639,38.105 7.271,8.258 11.382,-11.383c-16.818,-30.514 14.33,-28.439 7.588,-64.5c-2.5,-39.014 -1.102,49.29 -20.868,20.868c7.649,-17.197 18.844,-55.069 -7.588,-58.81c-23.827,12.087 13.727,-59.665 -9.485,-20.868c-28.857,42.888 7.252,-24.119 -5.691,-5.691c7.889,23.79 -66.679,19.923 -26.56,11.383c22.122,-1.313 15.439,-55.052 -9.485,-47.427c-29.067,38.277 23.279,-7.401 1.897,28.456c-28.797,15.416 -31.628,-20.479 -41.736,-34.147c11.963,-43.664 -8.986,27.177 -11.382,-22.765c1.33,24.271 -20.2,15.163 -17.074,-17.074c-6.139,-13.149 -59.532,-23.501 -11.382,-26.559c47.546,-11.276 13.209,26.005 22.765,26.559c25.218,-4.405 16.404,-48.07 -15.177,-37.942c-21.334,14.247 -46.562,-18.642 -32.25,-24.662c3.862,33.398 53.958,0.05 24.662,-17.073c2.853,39.742 -27.8,10.775 -17.074,-17.074c-0.26,5.642 29.959,-52.993 5.691,-17.074c-46.687,0.052 -4.16,-2.343 1.897,-22.765c3.518,-24.305 17.34,-38.311 22.765,-60.706c3.449,-22.738 0.478,-54.488 1.897,-70.192c-1.948,-6.044 -9.642,-37.577 -17.073,-55.015c-11.935,-15.886 -23.662,-31.989 -39.839,-43.633c-15.594,-12.227 -42.849,-12.801 -56.912,-26.559c4.591,-15.622 7.29,-45.864 -5.691,-62.603c-11.493,-16.328 -30.302,-25.349 -47.427,-36.045c-11.132,-44.754 -8.421,-5.043 -26.559,7.588c-20.144,0.39 -32.046,21.189 -43.633,36.045c-16.258,13.663 5.245,60.515 -1.897,55.015c-15.156,12.665 -41.045,14.604 -56.912,26.559c-13.781,14.04 -30.28,25.37 -37.942,45.53c-14.08,19.701 -11.189,29.809 -20.868,55.015c5.807,25.761 -0.884,49.558 5.691,73.986c9.852,17.971 13.007,42.645 34.148,49.324c19.944,30.985 -36.27,49.18 -17.074,22.765c-1.641,-18.589 -28.363,26.569 5.691,28.456c-11.435,28.371 -57.381,-18.625 -28.456,13.28c27.542,7.789 40.334,-20.069 37.942,26.559c-28.914,38.668 -4.106,-9.618 -18.971,-0c-18.542,12.464 -1.857,46.252 -22.765,56.912c-46.463,18.914 16.33,-31.74 -22.765,-11.382c-27.999,29.826 33.078,28.985 20.868,28.456c-18.728,26.337 -46.374,-36.062 -34.147,3.794c6.275,22.188 68.704,-13.858 34.147,11.382c-28.832,-1.009 -32.275,23.376 -53.118,30.354c-26.889,-32.046 32.288,3.521 -5.691,-24.662c-28.84,6.044 12.329,60.932 -15.177,22.765c9.269,-35.25 -3.293,-37.103 -3.794,-0c3.109,20.9 54.084,16.694 11.382,30.353c-25.047,-10.047 -34.202,-30.628 -17.073,5.691c16.749,8.323 -48.163,2.576 -43.633,22.765c-3.971,10.115 -14.224,67.041 -26.559,30.353c10.409,-28.382 -35.164,25.715 5.691,24.662c30.029,-6.401 -12.961,52.758 7.588,37.942c10.385,-44.386 11.159,-12.291 5.691,17.073c-5.818,15.547 0.816,70.697 -3.794,53.119c-10.919,-16.902 -26.084,-29.566 -39.838,-43.633c-15.331,-12.491 -13.052,-42.599 -32.251,-51.221c-19.763,-8.057 -19.978,-35.673 -32.25,-51.221c2.224,-19.024 17.637,-35.935 18.971,-60.707c6.277,-21.545 2.779,-52.869 3.794,-79.677c-7.279,-8.637 29.89,-8.349 49.324,-15.177c24.88,-2.942 44.856,-10.794 66.398,-17.073c23.656,-9.076 18.995,-38.934 -7.589,-41.736c-23.897,-3.923 -46.45,-9.199 -75.883,-7.588c-28.904,-1.082 -54.036,1.612 -79.677,3.794c-26.233,2.015 -52.39,7.14 -73.986,11.382c-19.764,8.057 -42.966,12.684 -51.221,32.251c4.651,23.171 33.102,22.548 55.015,28.456c24.141,2.299 55.657,3.487 79.678,-0c29.846,37.738 -14.217,-14.57 -17.074,20.868c-1.945,24.339 22.594,43.399 5.691,66.397c-1.174,39.463 6.75,37.005 9.485,-1.897c13.879,-27.794 -11.133,-41.163 -7.588,-64.5c13.872,38.408 -1.47,-44.773 13.28,9.485c9.967,16.137 31.844,26.584 20.868,58.809c0.4,26.504 -19.717,38.712 -18.971,60.707c6.645,24.133 -22.511,35.545 -47.427,28.456c-12.665,-13.439 -24.26,-34.168 -20.868,-58.809c12.382,-34.478 22.423,-10.442 13.28,20.867c10.242,31.054 0.667,-38.945 17.073,-39.838c13.388,-11.832 37.063,-28.803 13.28,-47.427c7.444,46.226 -9.374,5.735 -7.589,-17.074c10.857,-43.521 -17.466,10.848 -5.691,28.456c1.226,46.116 -11.156,12.073 -13.279,-13.279c15.44,-32.877 -1.766,-26.741 -7.589,-0c19.235,38.951 -10.938,23.882 7.589,41.736c-11.142,9.758 -28.235,-32.137 -13.28,-47.427c-21.532,-5.274 -13.329,41.967 -3.794,53.118c-14.183,15.083 -10.398,48.478 0,64.5c-20.077,17.903 -1.681,41.319 7.588,56.913c6.268,21.552 7.34,48.311 22.765,60.706c5.984,21.837 21.758,33.893 28.456,55.015c5.665,22.156 20.878,34.774 32.251,51.221c12.794,15.029 22.596,33.055 37.941,45.53c6.012,6.938 56.072,33.59 32.251,9.486c-13.024,-2.444 -43.352,-34.419 -32.251,-28.457c3.371,15.403 67.419,18.434 24.662,5.692c-23.512,6.171 -48.21,-39.776 -24.662,-18.971c17.77,5.961 70.934,10.58 24.662,-1.897c-50.701,-3.237 -16.962,-10.671 9.486,-5.691c-6.134,-8.543 -46.13,-5.365 -58.81,-17.074c-21.219,-6.604 -27.839,-27.809 -39.838,-43.633c-15.308,-24.032 24.072,15.623 43.632,1.897c-21.357,-6.463 -42.253,-13.397 -56.912,-26.559c-3.297,1.524 54.818,13.257 41.736,0c-29.745,2.411 -62.871,-13.968 -13.28,-5.691c50.743,-9.372 -22.518,-1.922 -30.353,-11.383c-19.885,-13.822 49.4,11.853 39.839,-5.691c-28.834,1.013 -53.314,-2.337 -55.016,-28.456c-0.977,-8.721 39.995,-0.766 37.942,22.765c5.894,-18.417 8.288,-55.066 28.456,-47.427c37.42,-7.123 22.651,34.946 13.28,47.427c-3.863,13.968 -19.675,67.957 -1.897,28.456c12.936,-7.027 18.399,-58.28 28.456,-37.941c14.839,13.932 13.549,47.032 -5.692,55.015c16.657,7.406 32.323,-29.515 18.971,-45.53c-19.724,-23.88 21.234,12.202 20.868,24.662c-1.442,36.466 11.181,35.124 17.074,58.809c3.094,24.344 -4.185,49.387 -11.383,68.295c-6.148,15.691 -16.667,35.5 -26.559,53.118c-9.91,17.911 -21.241,34.409 -30.353,53.118c-9.768,18.055 -17.33,38.321 -26.559,56.913c-5.851,21.657 -25.237,32.601 -20.868,58.809c-22.425,35.437 -0.569,7.81 20.868,1.897c31.328,-13.668 23.6,38.281 22.765,41.736c-6.906,-24.049 63.941,-17.527 34.147,-7.588c-14.027,9.02 -26.42,39.7 -49.324,22.764c-21.869,0.539 -54.061,-14.837 -68.295,0c-3.044,50.605 -12.403,-0.88 -13.279,-5.691c18.902,-8.224 28.253,-46.233 -3.794,-39.838c-15.014,10.722 -9.706,49.576 -0,60.706c16.03,17.666 0.757,45.581 -7.589,60.707c-12.549,13.565 -20.894,41.041 -9.485,62.603c14.363,10.294 -8.544,-40.596 11.383,-49.324c9.745,-23.977 21.055,-28.475 24.662,-51.221c-0.792,-24.764 17.546,-45.092 45.529,-30.353c34.599,2.219 7.532,28.232 18.971,53.118c4.122,24.654 2.455,55.69 -9.485,70.192c-1.472,31.334 -25.341,37.659 -15.177,-0c11.808,-6.023 11.912,-75.722 1.897,-28.456c-4.001,23.819 -17.089,38.561 -11.382,72.088c5.892,37.712 -16.672,-16.764 -18.971,-26.559c21.312,-26.598 16.56,1.503 5.691,-39.838c-2.274,-55.23 -6.399,10.77 -11.382,22.765c3.354,-27.971 -15.412,-14.919 -3.794,15.176c-14.765,21.496 -7.803,-42.185 -9.486,-53.118c-6.131,17.332 -12.312,54.35 -1.897,66.398c21.686,6.135 30.526,25.125 41.736,41.736c8.982,18.838 11.447,44.203 17.074,66.397c10.843,20.069 7.645,47.355 1.897,70.192c4.759,21.803 49.551,10.838 43.632,32.25c-18.263,49.045 4.225,-11.061 -20.867,-9.485c-4.59,11.4 8.098,41.929 9.485,62.604c8.713,19.109 11.919,43.731 17.074,66.397c7.639,20.183 11.45,44.2 15.176,68.295c22.959,19.502 -21.89,46.573 17.074,47.427c24.066,-10.757 68.524,2.352 20.868,9.485c-10.11,-12.35 -45.803,16.106 -34.148,26.559c12.844,5.9 82.612,-4.097 41.736,7.589c-40.078,-12.407 2.476,30.505 -34.147,34.147c3.974,23.6 4.025,22.12 -18.971,41.736c-10.136,18.117 -23.105,36.424 -20.868,64.5c-0.095,27.906 16.368,39.289 30.353,53.118c18.062,9.751 36.652,19.009 56.913,26.559c32.445,3.396 42.339,9.182 26.559,34.148c14.546,13.279 27.524,28.133 37.941,45.53c13.885,35.494 14.763,23.903 13.28,-17.074c-1.725,-21.266 21.198,-60.156 -15.177,-56.912c10.244,-0.019 18.184,27.659 7.588,53.118c-5.467,21.949 -20.126,-24.15 -22.765,-37.942c-5.473,-26.729 33.397,-20.185 41.736,-37.941c15.277,-12.54 19.739,-35.912 32.25,-51.221c8.239,-8.822 -12.34,32.895 -11.382,49.324c-1.59,29.404 0.522,55.129 20.868,62.603c20.803,1.252 51.932,20.697 18.971,34.148c-23.139,6.374 -17.706,38.852 -18.971,56.912c-1.922,23.163 22.547,31.017 45.53,34.147Zm180.222,-15.176c32.222,6.924 27.466,-33.408 13.279,-43.633c-10.369,-31.814 -18.158,-30.202 -9.485,1.897c-43.249,22.272 33.25,21.873 3.794,30.353c-26.155,0.474 -25.864,-28.684 -39.838,-37.941c-3.874,-22.689 -13.826,-39.289 -26.559,-53.118c-5.934,-41.49 -11.886,-24.757 -3.795,7.588c14.519,12.046 17.118,36.006 24.662,55.015c15.367,10.301 17.154,37.391 37.942,39.839Zm37.941,-15.177c25.854,-4.06 -6.865,-39.839 -9.485,-55.015c-17.445,2.466 17.007,35.798 9.485,55.015Zm17.074,-5.691c31.069,-15.063 2.427,-40.142 -9.485,-55.015c-6.765,8.65 30.008,34.678 9.485,55.015Zm-225.752,-60.707c-2.588,-11.022 11.079,-42.684 9.485,-1.897c20.316,3.87 47.285,-3.32 60.707,-9.485c14.023,-3.282 35.048,-43.348 22.765,-3.794c-7.116,17.263 -29.568,22.499 -28.456,45.53c-0.733,24.567 -24.309,26.274 -28.456,47.427c-11.051,27.355 -55.628,-9.96 -7.589,-1.898c4.346,-12.938 -23.357,-30.979 -13.279,-39.838c-3.684,20.697 -18.681,33.388 -22.765,51.221c-3.368,-0.987 -18.787,2.049 -13.28,-1.897c34.121,-2.694 -8.26,-22.025 9.486,-24.662c11.57,-16.163 26.636,-39.251 1.897,-15.177c-8.296,26.464 -28.024,25.118 -11.383,-3.794c31.691,-22.366 -15.998,-11.724 -11.382,9.485c-12.953,36.899 -16.939,-25.06 3.794,-22.764c29.274,-23.809 -1.446,-11.649 -11.383,1.897c-21.918,21.968 2.406,-23.904 15.177,-22.765c16.875,-18.459 13.355,-37.126 24.662,-7.589Zm20.868,-5.691c-6.537,12.805 -13.841,-24.605 1.897,-22.765c20.913,-6.677 -16.797,10.131 -1.897,22.765Zm15.177,-3.794c-24.11,-10.605 10.551,-28.342 28.456,-39.839c18.109,-0.986 43.234,-56.798 41.735,-34.147c-4.797,30.619 -34.479,36.348 -51.221,55.015c-6.266,2.922 -3.168,15.67 -5.691,17.074c-1.419,-20.185 -3.166,-30.239 -13.279,1.897Zm-157.458,-9.485c3.354,-7.209 7.486,-26.18 3.794,-32.251c-5.858,9.391 -5.268,22.177 -3.794,32.251Zm87.266,-18.971c24.897,2.144 40.392,-5.141 56.912,-11.383c22.769,-16.125 -18.94,4.269 -30.353,3.795c-37.538,3.187 -26.032,-2.846 1.897,-5.692c20.107,-1.707 35.342,-11.762 45.53,-20.868c15.852,-6.905 23.719,-21.816 32.25,-36.044c6.014,-9.011 24.099,-46.099 15.177,-13.28c1.199,15.955 -14.301,29.728 -22.765,41.736c-7.082,25.174 21.264,-5.615 22.765,-13.279c12.141,-10.624 17.79,-27.736 22.764,-45.53c0.15,-11.269 16.232,-54.408 1.898,-36.045c-0.687,22.082 -5.136,40.389 -11.383,56.913c-4.708,7.171 -29.682,41.792 -17.074,18.97c9.615,-13.146 17.076,-28.456 17.074,-51.221c0.619,-21.19 5.762,-41.337 11.383,-55.015c3.084,-19.673 8.618,-36.917 11.382,-56.912c0.571,-19.18 -0.708,-41.774 5.691,-56.912c2.06,-20.698 2.525,-43.007 5.691,-62.604c3.265,-19.502 0.251,-45.281 3.795,-64.501c6.116,-16.645 3.103,-42.428 3.794,-64.5c-6.532,-28.352 -0.814,-40.878 28.456,-34.148c2.582,20.182 4.724,40.808 3.794,64.501c1.85,23.662 -3.407,43.69 -1.897,64.501c-4.024,18.743 -3.758,41.773 -7.588,60.706c-1.803,20.014 -5.695,41.394 -5.692,60.707c-2.439,20.317 -4.535,40.995 -9.485,58.809c-2.35,20.412 -8.18,37.353 -13.279,55.015c-7.211,15.556 -10.389,35.153 -18.971,49.324c-6.46,15.347 -15.078,32.023 -24.662,41.736c-6.405,16.353 -23.89,21.645 -34.148,34.147c-15.184,6.621 -27.833,19.255 -45.529,20.868c-14.828,6.583 -46.13,4.61 -58.81,-1.897c-26.667,-19.768 -3.122,-10.491 11.383,-1.897Zm178.325,-18.971c18.307,1.707 -36.976,-19.711 -13.28,-53.118c-0.573,-62.85 6.765,17.586 37.942,1.897c27.534,-0.683 -46.332,-5.672 -26.559,-39.839c-0.954,-20.488 12.492,-88.954 11.382,-36.044c0.182,22.746 50.997,50.235 17.074,18.971c-14.312,-17.321 -18.087,-68.048 -5.691,-37.942c-2.658,29.215 80.314,10.017 36.044,11.383c-28.486,4.647 -41.441,-34.736 -36.044,-43.633c0.06,25.572 52.035,46.687 15.176,17.074c-14.252,-14.76 -18.621,-76.13 -1.897,-26.559c53.746,16.466 2.872,-2.41 -5.691,-18.971c-12.261,-53.422 -0.812,-13.545 17.074,1.897c13.12,19.71 79.007,10.491 20.868,3.794c-22.906,-7.645 -39.001,-30.505 -37.942,-55.015c8.064,24.036 25.457,41.565 47.427,49.324c31.92,-2.296 51.373,3.168 55.015,-32.251c14.008,-20.678 -2.701,47.408 -13.279,49.324c-7.443,20.489 -38.099,36.823 -64.501,24.662c-21.843,5.009 44.807,25.042 51.221,3.795c21.67,1.897 -59.471,30.732 -15.177,28.456c22.156,-14.039 34.408,-51.126 18.971,-1.897c-11.709,20.393 -25.846,41.166 -43.633,53.118c-29.118,17.51 -54.893,-33.085 -53.118,-17.074c7.34,21.304 37.727,33.559 62.604,20.868c29.291,-36.86 21.148,-6.943 3.794,9.485c23.222,-9.163 39.888,-50.898 18.971,-5.691c-16.677,15.423 -27.732,39.289 -64.501,32.25c-46.419,-17.32 -30.26,8.215 7.588,7.589c38.87,-1.139 55.934,-24.359 30.354,13.279c-6.659,23.884 -32.137,37.373 -62.604,30.353c-29.329,-0.493 -43.72,-27.147 -36.044,-56.912c5.215,-10.206 0.174,54.162 28.456,47.427Zm-174.531,-1.897c-15.302,20.014 -49.614,-38.871 -28.456,-20.868c14.937,17.984 47.262,20.109 70.192,9.486c16.679,-14.93 40.997,-22.234 45.529,-49.324c21.655,-9.163 14.543,-49.969 32.251,-60.707c4.348,-30.22 13.501,-46.725 13.279,-77.78c3.855,-25.345 8.803,-52.264 11.383,-73.986c4.443,-25.459 2.824,-51.752 7.588,-75.883c-8.579,-26.866 6.911,-46.141 1.897,-75.883c18.089,-14.522 -10.18,-76.794 11.382,-34.147c-5.647,29.533 1.875,57.752 -7.588,83.471c4.699,25.178 -2.9,53.118 -3.794,79.677c1.44,26.483 -8.95,54.598 -7.588,77.78c-11.087,24.435 -4.828,51.715 -15.177,75.883c0.636,31.454 -21.215,43.311 -22.765,70.192c-15.818,15.803 -21.526,41.717 -43.633,51.221c-10.075,16.657 -46.675,26.085 -64.5,20.868Zm-7.588,-18.971c32.669,1.063 51.196,-12.046 68.294,-26.559c6.145,-23.751 36.587,-32.667 30.354,-55.015c21.956,-15.158 7.667,-40.522 24.662,-62.604c-7.293,-29.708 16.72,-50.424 5.691,-75.883c10.897,-21.057 1.39,-56.722 11.382,-75.883c0.522,-28.266 7.154,-49.952 3.794,-77.78c5.84,-5.509 -1.271,-59.591 7.589,-55.015c-38.151,-22.93 30.049,-57.017 13.279,-34.147c-8.535,14.438 -0.136,42.488 -9.485,66.397c-6.617,22.944 -1.025,53.255 -7.589,73.986c8.989,28.172 -11.606,50.216 -1.897,77.78c-13.275,21.115 -0.415,56.742 -15.176,73.986c5.97,33.18 -15.482,44.088 -13.28,73.986c-16.719,16.998 -9.811,47.01 -32.25,56.913c-4.953,25.857 -30.439,34.071 -51.221,41.735c-13.029,19.085 -77.591,-17.737 -34.147,-1.897Zm-11.383,-15.176c39.013,12.369 79.584,-39.877 77.78,-22.765c-6.545,23.41 -78.121,39.193 -77.78,22.765Zm-130.898,-7.589c36.424,-1.517 68.124,-7.759 87.265,-26.559c44.544,-35.494 4.324,16.106 -17.073,20.868c-17.776,16.543 -61.661,20.773 -92.957,13.28c-53.355,-22.12 -21.756,-10.7 22.765,-7.589Zm129.001,-7.588l30.353,0c-0.922,9.979 -58.5,-26.407 -28.456,-13.28c32.645,15.196 70.848,-1.745 85.369,-20.867c27.086,-22.177 -20.155,34.83 -39.839,32.25c-9.907,0.209 -10.548,9.694 -18.971,11.382c-35.462,20.09 -48.406,-45.245 -28.456,-9.485Zm-151.766,-9.485c-6.97,2.333 -13.682,-19.237 -20.868,-24.662c15.203,-21.399 17.99,10.68 20.868,24.662Zm7.588,-7.589c-20.873,-17.472 22.845,-43.557 17.074,3.794c-13.23,29.234 -15.243,-67.744 -17.074,-3.794Zm26.559,0c-28.213,-13.165 24.854,-54.541 18.971,-3.794c-1.225,54.181 -25.191,-54.18 -18.971,3.794Zm138.487,-3.794c37.81,3.662 48.108,-20.185 66.398,-36.044c8.946,-12.73 31.129,-63.856 11.382,-56.913c-2.944,14.968 -51.893,45.739 -32.25,39.839c19.225,1.214 46.967,-62.338 30.353,-17.074c-9.051,25.099 -24.537,43.766 -47.427,55.016c-23.928,29.86 -69.052,-34.679 -34.147,-7.589c30.975,15.253 67.137,-28.19 17.073,-1.897c-36.386,-21.076 -32.683,-22.822 11.383,-13.279c46.455,-19.199 -33.825,7.019 -39.839,-17.074c11.02,7 58.969,5.824 66.398,-17.074c14.634,-19.502 26.052,-42.248 30.353,-72.089c13.839,-18.022 29.452,-42.494 36.045,-60.706c-0.932,27.185 -10.249,56.002 -18.971,75.883c-6.904,27.242 -0.782,67.517 -18.971,83.471c-10.555,23.581 -22.162,46.137 -51.221,51.221c-30.12,22.424 -70.203,-32.857 -26.559,-5.691Zm-197.296,-3.794c9.075,13.45 -13.627,22.367 -5.691,7.588c-7.776,-15.954 6.099,-26.767 5.691,-7.588Zm-22.765,-7.588c1.781,21.968 -22.393,2.656 -13.28,-28.456c1.657,-13.697 1.055,5.843 9.486,1.897c29.79,6.924 -19.798,8.138 3.794,26.559Zm123.31,-0c7.939,22.063 -12.05,42.077 -9.485,9.485c-17.793,-17.605 6.283,-41.679 9.485,-9.485Zm24.662,-0c-5.291,1.214 -22.501,-52.056 -64.501,-18.971c-24.248,12.426 -108.281,-8.48 -34.147,-1.897c38.66,-1.707 70.452,-9.808 98.648,-11.383c6.131,3.984 7.469,12.768 9.485,20.868c-5.256,59.891 -6.129,-49.343 -9.485,11.383Zm22.765,-18.971c3.574,67.137 -27.121,-35.134 3.794,-28.456c4.716,4.268 7.247,15.082 7.588,20.868c-4.494,51.259 -11.64,-55.547 -11.382,7.588Zm261.796,-1.897c22.854,-9.694 1.837,-18.288 -11.382,-26.559c-11.908,-17.264 6.791,21.266 11.382,26.559Zm-373.724,-7.588c15.069,-18.592 22.164,9.409 13.28,-28.457c18.699,-14.835 11.058,51.392 17.074,5.692c3.025,-12.521 5.059,8.916 5.691,7.588c26.086,21.892 -11.588,-23.903 5.691,-11.382c24.432,36.253 6.774,-21.001 5.691,-9.486c22.363,21.001 18.557,24.359 15.177,-7.588c23.112,-11.022 13.183,43.652 -9.486,36.044c-18.46,8.101 -44.852,8.272 -70.191,9.486c-18.732,-2.789 -57.725,-6.261 -51.221,-15.177c-0.496,-13.564 34.504,-44.145 28.456,-24.662c-19.142,8.992 -37.631,29.5 1.897,28.456c-4.363,-15.935 31.723,-17.339 26.559,-45.53c-0.624,18.402 -24.818,27.698 -41.736,32.251c-16.447,-1.841 42.481,-8.879 22.765,-30.354c-34.652,1.271 10.971,-20.716 32.25,-13.279c22.352,-4.212 42.827,-10.301 55.016,-24.662c17.265,-36.291 -42.199,-10.32 -34.148,-39.839c19.474,-16.485 14.56,-37.201 -9.485,-43.632c26.9,-25.326 -17.905,-26.218 -15.177,-49.324c-5.623,-20.935 -15.962,-37.158 -18.971,-60.707c-11.978,-20.634 34.969,2.47 47.427,1.897c18.808,7.748 51.33,1.791 43.633,36.045c0.361,22.328 15.359,46.592 1.897,66.397c-14.425,20.773 0.325,45.265 7.589,60.707c6.192,37.429 8.383,37.296 -18.971,28.456c32.808,12.995 16.592,8.309 1.897,20.868c-24.609,-9.808 -25.002,32.345 5.691,9.485c2.893,-28.873 56.776,5.312 34.147,-3.794c-20.129,-2.39 -39.711,13.09 -53.118,20.868c-18.255,-30.96 -11.841,-21.836 -20.868,9.485c-32.377,21.684 -25.642,-43.082 -32.25,-13.279c-3.796,15.613 -34.411,37.429 -5.691,43.632c-11.138,-30.239 27.367,-30.372 9.485,3.795Zm134.693,-18.971c-1.305,83.983 -1.964,-53.232 -39.839,-1.897c10.819,-9.372 19.897,-56.059 39.839,1.897Zm26.559,-9.486c24.079,1.309 35.49,-10.035 43.633,-24.662c10.308,-12.463 12.04,-33.483 20.867,-47.426c17.161,-5.123 -3.509,31.017 -5.691,39.838c-9.305,13.45 -16.034,29.5 -32.25,36.045c-14.272,10.263 -41.624,4.799 -47.427,-9.486c-5.805,-16.96 -19.466,-26.066 -30.353,-37.941c-15.194,-7.57 -23.131,-22.405 -22.765,-45.53c4.932,16.884 20.596,26.502 32.25,34.147c8.952,11.515 33.034,16.713 53.118,11.383c28.216,-14.266 -29.163,0.967 -36.044,-9.486c-13.378,-9.39 -28.352,-17.187 -36.045,-32.25c-6.704,-16.049 -24.616,-20.925 -26.559,-41.736c3.136,-44.107 5.257,11.914 15.177,15.177c13.841,8.916 17.457,28.077 34.147,34.147c20.686,18.212 -5.473,-17.737 -13.279,-20.868c-10.969,-10.851 -20.35,-26.748 -22.765,-43.632c-5.538,-29.12 11.519,16.39 15.176,22.765c12.834,9.921 23.016,22.518 43.633,24.662c25.303,2.542 37.661,-7.873 51.221,-17.074c10.43,-12.331 24.33,-21.209 32.251,-36.045c14.104,-23.58 19.904,-17.794 3.794,3.795c-8.036,14.721 -16.702,28.835 -32.251,36.044c-23.345,20.394 -8.855,13.868 9.486,1.897c11.35,-10.472 24.005,-23.087 30.353,-36.044c7.342,-15.424 13.272,-32.27 18.971,-49.324c8.781,-13.982 7.586,-37.946 17.074,-51.221c1.371,-34.973 15.548,13.975 7.588,26.559c-1.019,21.74 -7.554,37.979 -11.383,56.912c-6.903,15.86 -10.591,34.944 -18.97,49.324c-8.535,14.228 -20.147,25.383 -34.148,34.147c-10.917,11.838 -9.102,36.424 -20.868,47.427c-6.085,15.727 -22.131,24.966 -37.941,28.456Zm-5.691,-3.794c30.873,-3.794 43.488,-28.532 49.324,-55.015c-12.151,22.518 -26.317,45.701 -49.324,55.015Zm168.839,-3.794c11.265,-25.079 19.286,-63.799 15.177,-96.751c-13.073,5.767 -1.434,-58.088 0,-83.471c-13.68,2.504 -7.894,60.251 -13.28,79.677c-6.083,42.343 8.793,64.045 -1.897,100.545Zm-316.811,-5.691c19.318,0.303 24.022,-0.266 17.073,-17.074c-1.796,-10.187 -11.809,19.559 -17.073,17.074Zm79.677,-1.897c18.842,-32.99 15.25,24.491 -3.794,22.765c-19.485,8.612 21.04,-26.635 3.794,-22.765Zm-125.207,-36.045c25.239,-4.818 78.442,-24.51 83.471,-18.97c-9.461,20.071 -71.664,33.483 -83.471,18.97Zm208.678,-5.691c37.211,-7.057 57.963,-30.581 72.089,-60.706c12.582,-29.765 27.84,-63.723 30.353,-96.751c-12.682,25.762 -20.651,65.373 -36.044,92.957c-11.904,31.719 -38.596,50.936 -66.398,64.5Zm-147.972,-22.765c-7.207,-11.003 -39.694,24.226 -30.353,0c8.072,-17.017 31.345,-28.323 30.353,0Zm383.21,-9.485c35.228,19.464 63.457,-47.693 41.735,-20.868c-1.451,31.719 -87.491,-1.764 -41.735,20.868Zm11.382,-13.28c26.13,-0.417 33.821,-19.293 41.736,-37.941c8.529,-18.022 15.127,-37.999 20.868,-58.81c8.421,-17.113 -2.22,37.809 -5.692,47.427c-5.22,21.342 -11.259,41.869 -22.764,56.913c-10.497,11.913 -33.074,28.854 -53.119,15.176c-13.71,-12.843 -28.452,-24.662 -32.25,-47.427c-6.926,-48.622 7.575,-6.829 17.074,5.692c-0.879,20.033 65.316,6.317 34.147,18.97Zm-77.78,-11.382c4.849,-12.047 7.361,-35.381 3.794,-47.427c-3.392,12.407 -5.427,38.397 -3.794,47.427Zm-185.913,-22.765c32.028,3.775 47.77,-11.762 58.809,-26.559c15.571,-12.255 22.564,-33.085 32.25,-51.221c8.691,-19.557 16.877,-42.656 22.765,-62.604c5.989,-17.741 11.974,-69.539 0,-22.765c-5.885,22.363 -14.896,44.635 -20.868,64.501c-9.855,17.965 -16.965,38.681 -30.353,53.118c-12.671,15.575 -24.651,34.887 -45.53,39.839c-29.412,-5.407 -53.154,-13.014 -17.073,5.691Zm254.208,-0c35.929,-1.992 -25.759,-11.231 -17.074,-20.868c15.315,8.101 51.223,10.206 56.912,-7.588c14.073,-5.274 24.827,-35.798 28.457,-36.045c-4.047,21.248 -14.058,36.538 -20.868,55.016c-9.992,18.591 -11.085,39.952 -34.148,30.353c-28.302,3.016 -36.664,-13.925 -43.632,-32.251c-12.756,-5.084 -10.911,-61.237 -3.795,-30.353c5.468,19.825 15.177,35.419 34.148,41.736Zm-256.106,-26.559c25.076,1.973 38.56,-11.022 49.324,-20.868c11.688,-11.42 22.291,-27.288 26.56,-43.633c8.328,-14.772 19.395,-30.182 24.662,-45.53c6.808,-15.954 12.471,-33.062 15.176,-53.118c-7.839,-22.097 -6.748,34.022 -13.279,37.942c-7.621,15.142 -19.834,25.698 -28.457,39.838c-25.288,30.409 25.825,-23.944 5.692,3.795c-11.497,11.266 -17.649,27.883 -34.148,34.147c-8.948,11.534 -46.209,9.144 -53.118,9.485c14.873,9.296 46.898,6.412 55.015,-3.794c13.601,-8.601 29.9,-38.006 15.177,-5.691c-12.53,10.225 -20.663,24.871 -36.044,32.25c-15.739,11.952 -44.282,2.979 -51.222,-7.588c-11.608,-11.155 -20.655,-24.876 -26.559,-41.736c-11.151,-10.849 7.758,31.036 11.383,36.045c9.54,13.222 21.486,24.036 39.838,28.456Zm-34.147,-1.897c3.384,-13.754 -24.455,-19.73 -20.868,-43.633c-2.481,-17.106 -25.978,-31.808 -11.382,-49.324c8.717,-11.703 17.394,-38.848 5.691,-55.015c7.156,9.119 13.87,33.766 28.456,37.941c10.85,11.349 38.166,13.845 58.81,9.486c18.454,-5.572 31.753,-16.309 39.838,-32.251c-11.24,5.961 -23.672,22.449 -43.633,24.662c-21.014,5.654 -42.128,-5.482 -53.118,-13.279c-9.331,-14.695 -20.488,-27.574 -22.765,-49.324c-8.631,-41.815 0.414,-2.736 13.28,5.691c10.21,13.817 25.977,22.086 47.427,24.662c25.694,2.593 44.678,-4.9 56.912,-13.279c29.092,-16.562 8.763,-16.036 -9.485,-1.897c-12.718,8.696 -43.445,10.395 -60.707,3.794c-10.069,-7.947 -23.061,-11.242 20.868,-9.486c34.459,-2.661 30.981,-14.421 0,-5.691c-21.617,3.293 -68.52,-4.016 -18.971,-3.794c42.935,-2.721 20.252,-4.547 -11.382,-3.794c-55.326,-6.521 36.716,-0.471 7.588,-7.589c-22.404,5.574 -59.054,-4.196 -39.838,-15.176c20.226,3.802 50.088,-2.028 60.706,11.382c18.701,8.784 44.295,-3.485 60.706,7.589c19.064,4.283 56.154,-14.836 53.119,15.176c-2.063,21.039 -1.643,47.936 -5.692,64.501c-6.032,17.994 -8.576,39.484 -15.176,56.912c-5.337,18.686 -14.849,33.218 -24.662,47.427c-9.476,14.551 -24.492,23.562 -34.148,37.942c-13.494,9.599 -29.862,19.71 -53.118,17.073c-18.455,-5.577 -31.753,-16.315 -39.838,-32.25c-9.62,-14.399 -17.419,-30.638 -20.868,-51.221c-5.767,-18.971 -8.142,-54.031 3.794,-18.971c5.232,17.871 14.442,35.134 28.456,41.736Zm-149.869,-7.589c18.944,8.044 28.259,-16.352 28.456,-7.588c3.4,14.532 -35.995,8.954 -28.456,7.588Zm440.122,-3.794c6.767,-8.233 -21.198,-23.011 -24.662,-34.147c-3.639,5.103 13.979,30.239 24.662,34.147Zm-60.707,-11.382c8.905,-14.19 8.626,-40.952 11.383,-58.81c-4.703,-12.397 -14.627,-46.117 -18.971,-39.838c8.662,35.562 -0.967,24.614 -3.794,43.633c-7.112,22.231 0.816,47.294 11.382,55.015Zm75.883,-18.971c12.24,1.992 22.261,-2.557 26.559,-5.691c21.088,-35.76 -22.186,20.887 -37.941,-11.383c-17.855,0.877 -43.339,-85.647 -22.765,-45.529c9.269,20.623 57.747,51.31 75.883,17.073c4.991,-3.096 5.082,-17.083 -1.897,-5.691c-6.414,1.174 -12.105,3.071 -17.074,5.691c-56.166,-0.095 27.589,8.156 -9.485,9.486c-29.53,-11.535 -54.968,-29.561 -58.809,-64.501c2.769,-14.329 13.389,57.204 49.324,41.736c6.983,-0.167 27.981,-3.688 18.97,-5.692c-30.759,0.41 -40.815,-19.892 -56.912,-34.147c-7.469,-11.191 -0.279,-9.062 9.485,-5.691c53.688,-3.942 24.105,-7.232 -1.897,-17.074c-59.037,-40.552 29.128,7.279 22.765,-9.485c-9.371,-0.746 -18.145,-2.091 -24.662,-5.691c-42.102,-16.585 22.048,-8.287 39.839,-13.28c59.798,-29.61 4.98,12.231 3.794,39.839c-0.127,9.99 -7.319,12.917 -9.485,20.867c11.877,-10.911 15.358,-16.303 39.838,5.692c16.824,11.088 1.518,69.006 -1.897,91.059c-10.737,22.462 -37.055,59.208 -70.192,32.251c-19.617,-25.402 -18.306,-59.25 -22.765,-96.751c4.485,20.786 12.846,54.945 49.324,56.912Zm-79.677,-1.897c-1.157,-18.242 8.351,-61.634 5.691,-17.074c-6.416,53.972 -12.266,-37.501 -5.691,17.074Zm-199.193,-3.794c28.306,3.014 43.644,-6.947 56.912,-18.971c11.838,-13.454 23.304,-27.287 32.251,-43.633c10.993,-14.298 17.32,-33.271 18.971,-56.912c-4.432,-9.421 -12.901,32.252 -18.971,39.839c-9.051,16.241 -18.975,31.616 -30.353,45.529c-12.147,13.145 -24.344,26.248 -51.222,24.662c-26.555,3.07 -29.252,-24.282 -41.735,-30.353c4.003,20.386 17.521,34.542 34.147,39.839Zm-165.046,-11.383c5.847,20.261 -11.357,39.308 -18.97,43.633c-3.053,-17.472 18.265,-32.404 18.97,-43.633Zm-11.382,-45.529c3.542,15.281 -7.702,28.496 -17.074,36.044c3.125,-13.796 9.609,-31.77 17.074,-36.044Zm-9.485,-9.486c3.109,6.35 -16.182,44.17 -13.28,18.971c1.58,-10.472 12.9,-48.431 13.28,-18.971Zm28.456,0c-13.295,18.421 -26.666,-25.218 -17.074,-51.221c-5.606,-32.888 16.066,-50.242 47.427,-37.941c46.788,-13.489 35.813,22.683 32.25,51.221c-13.084,48.98 45.576,15.131 39.839,15.176c-5.773,20.595 -11.715,56.782 -45.53,37.942c-32.996,3.464 -31.562,-30.462 -37.941,-51.221c-7.001,-1.431 4.424,7.436 -0,15.176c3.28,45.883 -3.155,-6.416 -9.486,-9.485c-15.694,-23.59 -9.597,-3.062 -9.485,30.353Zm529.284,-11.382c44.335,3.217 19.166,-72.728 22.765,-96.751c-3.27,-6.972 -1.489,-23.329 -1.897,-30.353c-3.969,-56.199 9.053,-19.561 7.588,15.176c1.571,69.589 13.341,-47.561 5.692,-56.912c-1.983,-7.444 -5.563,-22.002 -11.383,-17.074c12.041,-26.544 35.498,12.42 45.53,17.074c21.105,-2.296 13.186,68.68 20.868,94.854c2.842,19.794 5.055,4.336 3.794,-5.691c-0.913,-65.351 5.26,1.847 9.485,20.867c10.506,32.332 17.448,89.945 -32.25,79.678c-32.935,18.868 -95.383,-7.084 -70.192,-20.868Zm-436.327,-24.662c-12.88,30.429 -32.069,8.633 -18.971,-30.353c20.179,-45.86 34.225,16.104 18.971,30.353Zm430.636,-0c8.95,-24.173 -37.059,16.026 -49.324,1.897c-6.978,-21.752 2.246,-52.339 30.353,-49.324c34.969,-5.437 47.334,14.689 39.839,49.324c13.091,32.506 -58.607,-15.296 -20.868,-1.897Zm-559.638,-20.868c10.554,0.666 11.994,-12.282 3.795,-15.177c-32.025,-9.578 -19.802,-40.969 9.485,-18.97c-3.347,27.792 -4.327,73.547 -20.868,91.059c-18.145,20.914 28.122,-71.751 7.588,-43.633c-2.724,7.393 -7.541,12.696 -9.485,20.868c-18.276,27.392 4.174,-36.668 9.485,-34.147Zm-22.765,-5.691c2.914,11.179 -12.82,6.628 -7.588,-5.692c3.328,-15.146 7.124,-0.722 7.588,5.692Zm303.533,-22.765c32.295,-4.458 68.249,-0.805 96.751,-3.794c37.524,-4.14 62.952,-5.401 96.75,-3.795c65.319,-11.985 3.398,17.894 -26.559,9.486c-30.396,1.387 -66.511,4.54 -94.853,5.691c-29.583,-1.941 -72.332,6.894 -96.751,-3.794c-38.13,9.174 -55.088,-18.055 -91.06,-9.485c-49.931,-29.491 -4.46,-5.737 26.559,-9.486c25.076,13.595 62.945,9.047 89.163,15.177Zm294.047,-5.691c-33.573,18.879 -15.31,-56.642 -17.074,-75.884c-3.851,-32.094 -8.065,-66.447 -11.383,-96.75c-4.94,-31.006 -5.587,-68.927 -7.588,-100.546c-3.092,-32.853 -8.055,-66.456 -13.279,-94.853c-6.633,-29.314 -4.899,-69.615 -7.589,-100.545c1.44,-37.386 -4.612,-69.902 -7.588,-100.545c-2.607,-33.34 -5.841,-68.671 -9.485,-98.648c-4.168,-31.78 -6.769,-67.743 -7.589,-100.545c8.983,-0.205 7.528,59.12 13.28,79.677c2.891,33.054 5.494,69.017 7.588,100.545c3.394,32.552 9.07,65.441 9.485,98.648c3.836,32.11 7.926,66.585 11.383,96.751c8.21,27.735 11.024,63.487 13.279,94.854c4.47,31.478 5.874,68.638 9.486,98.647c1.574,34.372 6.818,67.696 9.485,98.648c4.327,31.619 5.291,69.221 7.589,100.546Zm-472.373,-18.971c-4.67,-13.883 -43.285,-5.318 -60.706,-11.383c-16.838,-5.141 38.296,-4.961 51.221,-1.897c33.755,4.921 -13.496,-16.85 -30.353,-11.382c-36.86,16.299 -20.187,-22.993 -11.383,-34.148c20.747,4.546 61.081,-10.489 58.81,17.074c-5.987,19.305 8.556,59.147 -22.765,53.118c-9.544,-9.664 -66.978,5.227 -51.221,-13.279c15.44,-4.838 44.505,2.631 66.397,1.897Zm-123.309,-3.794c3.72,2.528 -25.036,-2.664 -30.354,-7.589c-5.661,-0.588 30.037,-2.337 30.354,7.589Zm692.432,-0c56.949,-17.097 18.419,24.311 0,17.073c45.187,-21.955 17.051,-11.91 0,-17.073Zm24.662,-13.28c1.235,-2.47 -31.421,12.278 -30.353,3.794c2.463,-7.931 36.496,-14.514 30.353,-3.794Zm-673.462,-7.588c0.349,24.144 -5.985,54.359 -15.176,17.073c-32.636,-10.991 0.125,-41.456 15.176,-17.073Zm-47.427,-3.794c26.199,0.005 -13.376,13.994 -24.662,7.588c-25.305,-12.441 20.952,-15.218 24.662,-7.588Zm102.442,-3.795c12.808,-0.982 14.652,0.742 3.795,-7.588c-9.894,-11.606 -10.7,-0.745 -3.795,7.588Zm-49.324,-7.588c-26.162,13.456 -40.434,-34.483 -77.78,-17.074c47.222,-15.502 37.908,6.714 77.78,17.074Zm-41.735,-3.794c1.354,4.232 -31.939,-5.018 -37.942,-3.794c-1.331,-5.079 32.548,-5.576 37.942,3.794Zm146.075,-1.897c-2.457,18.347 16.485,80.318 -18.971,62.603c3.955,-24.576 3.272,-57.407 5.691,-77.78c-5.945,-22.93 20.361,-74.82 17.074,-26.559c-1.806,5.781 -2.485,12.694 -1.897,20.868c-10.017,-34.95 -9.875,11.381 -1.897,20.868Zm544.461,-7.588c7.736,-43.963 26.363,20.63 -1.897,17.073c-25.958,-5.387 14.497,-34.69 -0,-47.427c0.886,-12.137 16.33,-64.149 18.97,-30.353c-5.522,20.155 -12.689,41.861 -17.073,60.707Zm-650.698,-22.765c-7.205,-16.272 1.698,-34.618 5.692,-55.016c4.951,-17.559 8.62,-45.14 -0,-56.912c-1.507,22.52 -7.921,40.142 -9.486,62.604c-2.314,15.317 -13.735,52.909 3.794,49.324Zm83.472,-1.897c-1.017,19.811 -45.682,0.614 -60.707,7.588c-0.296,-24.209 45.439,-7.116 60.707,-7.588Zm434.43,-1.897c3.212,26.321 1.08,60.943 1.897,87.265c-27.524,18.794 -31.377,21.447 -18.97,-11.382c-13.938,-18.613 -6.832,-55.763 -5.692,-72.089c-14.725,-31.926 34.332,-47.365 22.765,-3.794Zm-553.946,-1.898c-2.138,21.432 -11.244,-15.339 -5.691,-28.456c-4.081,-11.395 -23.691,55.877 -26.559,34.148c12.389,-20.491 13.243,-52.527 30.353,-68.295c36.213,-3.513 2.371,47.62 1.897,62.603Zm39.839,-1.897c6.241,-6.706 25.407,-64.254 17.073,-24.662c-8.499,16.748 -7.341,52.475 -20.868,56.913c-36.558,4.071 -20.634,-29.946 -17.073,-51.221c4.403,-22.56 8.358,-48.681 13.279,-68.295c5.739,-22.082 9.156,-46.496 17.074,-66.398c4.411,-22.552 13.712,-43.327 15.177,-66.397c5.317,-22.506 7.144,-48.507 13.279,-70.192c2.721,-24.243 6.695,-50.343 13.28,-68.295c4.742,-23.078 16.643,-39.008 22.765,-60.707c5.082,-21.879 12.342,-44.697 13.279,-68.294c2.669,-24.837 5.665,-52.174 1.897,-77.78c-2.358,-26.083 4.32,-46.94 -9.485,-64.501c-6.744,-21.077 -13.261,-42.388 -18.971,-64.501c-7.41,-19.551 -15.383,-41.656 -18.971,-62.603c-2.03,-25.791 -7.205,-48.446 -11.382,-72.089c-14.864,-40.11 30.118,-29.699 32.25,-45.53c-0.125,-1.241 -15.452,35.648 0,53.118c6.425,14.481 -14.374,69.266 -11.382,28.456c-3.889,-10.198 -2.537,-78.726 -13.28,-43.632c5.853,21.11 6.507,50.532 9.485,72.089c4.842,22.979 8.442,47.208 17.074,66.397c5.268,21.693 14.792,42.248 20.868,60.707c4.94,16.703 21.04,45.67 7.588,64.5c6.056,18.578 3.808,57.303 1.897,75.883c-0.368,27.453 -5.107,50.544 -11.382,72.089c-3.627,23.336 -10.941,46.097 -13.28,68.295c-5.272,22.549 -8.586,47.065 -11.382,72.089c-1.19,25.772 -4.077,52.962 -3.794,77.78c-2.751,25.072 -2.476,53.175 -5.691,77.78c-4.417,22.545 -10.571,46.469 -18.971,62.604c-17.933,55.673 2.009,-23.092 -9.486,9.485c-3.515,21.116 -24.958,36.153 -20.867,56.912Zm307.326,-15.176c28.739,7.491 34.914,-17.698 43.633,-22.765c-15.811,4.655 -25.118,24.622 -51.221,13.279c0.168,-20.065 -29.807,-34.397 -26.559,-13.279c1.212,-1.374 24.988,15.651 34.147,22.765Zm-259.9,-3.794c10.717,0.599 19.402,-0.835 26.56,-3.795c30.07,-22.159 8.47,39.234 -18.971,11.383c-11.851,-1.734 -17.309,2.927 -28.456,1.897c-1.577,-45.481 -3.796,-27.141 20.867,-9.485Zm-127.104,-5.692c4.637,9.488 -6.507,17.254 -9.485,24.662c-2.461,-12.847 6.116,-23.182 9.485,-24.662Zm646.903,0c60.227,1.232 -54.37,18.482 -13.279,-11.382c4.672,-1.52 21.57,-4.75 15.177,1.897c-24.848,14.05 23.631,0.427 15.176,-18.971c1.844,-26.1 51.081,-34.756 30.353,-17.073c-23.755,7.06 -20.304,44.213 -47.427,45.529Zm37.942,0c5.557,-22.516 36.925,-83.809 17.074,-20.867c4.537,15.358 3.5,-10.603 9.485,1.897c-20.93,36.89 11.971,-7.052 15.177,-13.28c1.265,30.729 -23.207,71.662 -47.427,51.221c-9.015,-41.726 25.527,-80.398 5.691,-18.971Zm-297.841,-3.794c10.561,1.579 20.439,-1.891 24.662,-3.794c20.293,-23.287 10.766,-20.891 -11.383,-3.794c-10.691,1.709 -15.753,-6.575 -15.176,-13.28c26.117,-27.737 -32.292,7.126 1.897,20.868Zm-261.797,-15.176c33.084,0.688 70.978,-19.813 32.251,7.588c-28.917,25.823 -67.06,-33.442 -32.251,-7.588Zm462.887,-0c10.417,12.998 -21.811,16.423 -22.765,9.485c-6.63,-16.787 23.459,-18.072 22.765,-9.485Zm-497.034,-18.971c8.205,-11.007 1.286,-33.742 -1.897,-41.736c-5.938,7.913 5.213,28.582 1.897,41.736Zm527.387,-0c11.829,0.829 55.095,-12.707 41.736,-3.794c-9.155,8.785 -46.023,13.048 -41.736,3.794Zm-481.857,-1.897c30.882,-4.79 63.51,-1.264 20.868,7.588c-31.211,19.445 -55.074,-27.921 -20.868,-7.588Zm246.62,-1.897c30.935,4.38 42.785,-10.337 66.397,-13.28c-25.432,6.883 -28.68,-13.312 5.692,-13.279c1.457,-15.883 -56.645,19.839 -37.942,-7.589c-16.224,-8.571 -55.444,-2.42 -60.706,-5.691c27.843,5.065 21.558,4.238 51.221,5.691c-32.438,0.291 18.565,16.16 -17.074,17.074c46.799,-14.008 -3.519,23.896 -7.588,-7.588c-4.149,17.612 -36.498,12.482 -0,24.662Zm201.09,-3.794c9.821,12.408 -12.466,15.298 -18.971,11.382c-7.362,-10.722 9.622,-17.085 18.971,-11.382Zm-527.387,-5.692c19.706,-1.276 -8.042,7.786 -18.971,3.794c-16.981,-1.451 10.77,-10.513 18.971,-3.794Zm497.034,-1.897c3.052,33.62 1.17,72.188 1.897,108.134c10.714,46.66 -7.353,67.158 -43.633,64.5c-32.975,-14.463 -58.823,5.079 -98.648,0c-30.533,2.561 -64.165,2.654 -92.957,0c-42.654,13.356 -56.113,-17.03 -92.956,-9.485c-43.075,7.129 -34.062,-40.452 -34.148,-73.986c2.282,-33.664 4.766,-69.748 9.486,-98.648c4.05,-31.896 3.889,-70.623 7.588,-100.545c3.191,-33.482 8.282,-65.076 13.279,-96.751c7.304,-28.642 9.399,-65.113 11.383,-96.751c-1.988,-38.661 3.028,-70.33 1.897,-108.133c2.726,-33.22 6.668,-67.845 11.382,-96.751c1.359,-32.296 5.312,-74.068 1.897,-100.545c1.516,-24.816 7.579,-69.591 1.898,-98.648c1.969,-33.977 3.828,-70.685 7.588,-100.545c-4.517,-41.711 22.224,-44.718 37.941,-66.398c11.423,9.309 -37.66,33.373 -30.353,41.736c14.71,-10.072 60.849,-9.372 58.81,18.97c11.574,25.099 33.625,39.733 66.397,43.633c37.856,1.911 58.14,-16.372 72.089,-36.044c39.52,-19.755 -15.326,23.865 -18.971,37.941c-11.454,20.138 -57.231,27.878 -79.677,13.28c-21.42,-14.526 -38.397,-36.117 -45.53,-62.604c-16.719,-19.528 -76.16,-19.891 -51.221,22.765c9.924,10.743 -0.903,32.916 17.074,66.398c9.952,25.994 13.369,61.143 17.074,91.06c2.31,34.363 11.365,61.99 17.073,92.956c8.613,27.333 11.853,62.659 15.177,92.957c-1.736,38.408 1.11,72.248 3.794,106.236c4.272,31.674 3.931,70.581 11.383,96.751c3.797,25.554 9.591,61.904 15.176,89.163c-0.831,24.546 41.762,61.7 51.221,18.971c12.5,-25.421 17.979,-47.809 22.765,-83.472c4.86,-31.085 11.658,-62.854 15.177,-92.957c-3.717,-33.03 7.095,-66.299 3.794,-98.648l-0,-28.456c-5.187,-35.672 16.482,24.26 37.941,-3.794c7.943,-0.499 2.432,-26.009 0,-13.279c-12.37,27.691 -46.77,2.917 -36.044,-22.765c2.295,-33.651 10.533,-63.981 17.074,-91.06c6.455,-29.49 10.096,-64.415 13.279,-94.854c3.624,-32.322 16.317,-58.196 22.765,-85.368c2.058,-6.925 4.337,-17.992 5.691,-22.765c8.74,-46.89 -2.53,-24.594 -7.588,1.897c-23.222,26.18 -43.263,2.46 -7.588,1.897c3.041,-5.94 6.763,-15.565 5.691,-22.765c22.053,-35.284 -16.025,6.444 -17.074,11.383c7.09,29.29 -19.257,-41.675 -24.662,15.176c-11.276,25.396 -31.909,41.448 -58.809,51.221c-42.451,6.505 -54.909,-19.604 -73.986,-34.147c-14.148,-5.765 -32.603,-79.319 -15.177,-47.427c7.422,22.42 22.621,49.55 45.53,58.809c29.908,14.179 67.341,1.152 83.471,-15.176c5.339,-12.574 45.938,-62.744 32.251,-41.736c46.619,-1.664 6.592,-40.698 -17.074,-17.074c-14.017,21.929 -36.82,37.693 -70.192,37.942c-31.679,-3.538 -54.821,-20.845 -62.603,-43.633c15.542,20.403 48.768,25.743 85.368,22.765c5.784,-3.197 16.602,-5.727 20.868,-7.588c53.046,-14.923 -18.961,-2.979 -3.794,-7.589c32.415,-2.775 56.387,-22.871 85.368,-7.588c13.948,22.725 13.481,59.878 15.177,94.854l-0,108.133c-3.341,37.735 -6.378,63.423 -3.794,98.648c-0.294,36.24 -0.863,75.377 3.794,104.339c3.726,32.947 4.688,68.669 3.794,106.237c0.391,35.557 -1.402,75.913 1.897,106.236c1.52,34.426 5.249,69.262 5.691,102.442c3.504,32.442 6.64,67.874 7.589,100.545Zm-206.782,-1.897c23.949,-0.745 18.833,-6.899 1.897,-7.588c-29.294,-2.002 -12.507,4.153 -1.897,7.588Zm-214.369,-3.794c15.284,1.478 83.061,-5.209 51.221,7.588c-11.534,1.748 -75.244,1.996 -51.221,-7.588Zm195.399,-9.485c0.375,-27.341 -18.795,-53.938 -17.074,-66.398c-3.605,-34.333 -6.276,-69.611 -5.691,-108.133c-12.982,1.056 -1.063,63.32 -1.897,89.162c0.781,39.027 13.391,54.769 24.662,85.369Zm330.091,-0c-10.645,5.169 -52.872,16.299 -41.736,-18.971c-4.437,-21.995 -2.764,-52.027 11.383,-58.81c14.053,-32.55 12.691,-9.984 18.97,15.177c1.657,22.733 8.488,43.576 11.383,62.604Zm-523.593,-1.897c13.101,-2.359 70.524,-4.885 56.912,3.794c-16.169,-0.152 -73.527,2.308 -56.912,-3.794Zm593.785,-0c-13.912,-2.778 -13.371,-44.333 -22.765,-58.81c-5.642,-23.442 -11.529,-46.651 -15.177,-72.089c-5.786,-23.298 -7.628,-50.551 -11.382,-75.883c1.711,-15.336 -19.901,-67.576 -7.589,-49.324c14.887,16.042 12.62,49.14 28.457,56.913c11.08,18.005 25.496,32.684 30.353,56.912c19.225,18.684 -7.807,41.798 -5.691,66.397c-9.584,29.855 12.213,47.869 3.794,75.884Zm-751.243,-3.795c6.775,6.946 -4.302,30.818 -5.691,13.28c-4.479,-9.237 -6.689,-26.438 5.691,-13.28Zm737.963,0c-33.417,-2.111 -48.51,35.762 -98.648,26.559c42.645,2.051 57.533,-37.125 98.648,-26.559Zm-652.594,-1.897c6.541,16.089 -11.371,16.059 -22.765,15.177c-4.257,-9.669 8.155,-24.372 22.765,-15.177Zm121.413,-7.588c5.264,6.932 -33.432,2.273 -49.324,3.794c2.936,-8.081 38.518,-9.48 49.324,-3.794Zm151.766,-3.794c17.525,-25.778 -2.411,-29.003 -1.897,-49.324c-5.008,-23.731 -2.893,-43.415 -5.691,-66.398c-7.471,-18.944 -2.945,44.409 -1.897,53.118c4.818,21.995 9.582,40.518 9.485,62.604Zm246.62,-1.897c-15.184,27.887 -19.202,-33.624 -20.868,-51.221c-10.404,-25.3 4.807,-67.787 0,-62.604c9.544,0.765 11.272,-3.399 3.794,-5.691c-3.269,-17.605 18.028,13.346 11.383,32.25c3.153,27.663 4.336,60.181 5.691,87.266Zm125.207,-0c-8.84,-1.939 -38.12,11.413 -41.736,3.794c8.886,-3.834 35.233,-19.477 41.736,-3.794Zm-792.978,-1.897c-16.691,-3.485 6.403,-60.257 -5.691,-47.427c-10.69,16.04 -9.205,45.258 5.691,47.427Zm413.563,-1.897c5.061,-13.982 -4.963,-36.781 -7.589,-53.119c-5.321,-21.201 -0.157,-39.825 -3.794,-60.706c-7.228,9.95 -2.261,40.702 0,56.912c1.725,21.039 6.213,39.321 11.383,56.913Zm-269.385,-3.795c21.883,-4.08 5.856,15.217 -3.794,9.486c-19.091,2.109 -1.067,-17.019 3.794,-9.486Zm645.006,-9.485c-4.329,-10.267 -43.643,11.954 -45.53,1.897c6.554,-8.521 44.401,-24 45.53,-1.897Zm106.236,-1.897c4.705,9.814 -1.267,26.939 -7.588,28.456c3.473,-7.091 2.525,-31.137 7.588,-28.456Zm-660.183,-1.897c3.313,-5.541 10.969,-6.738 11.383,-15.177c1.806,-4.712 2.485,-14.801 1.897,-18.97c8.694,-35.288 -1.121,2.27 -1.897,-20.868c-2.294,-14.418 -1.503,8.933 -3.794,11.382c-8.097,-21.938 -5.912,33.343 -7.589,43.633Zm307.327,-7.588c6.755,-11.269 11.382,-33.292 7.588,-49.324c-5.006,8.104 -8.77,29.907 -7.588,49.324Zm240.929,-11.383c-8.169,0.943 -37.766,7.568 -41.736,7.588c2.312,-11.71 33.749,-17.58 41.736,-7.588Zm-221.958,-15.176c5.77,-0.943 24.478,-2.036 20.867,-3.795c-37.114,1.347 -8.912,-25.798 -17.073,-55.015c-2.793,-50.709 -7.752,55.651 -3.794,58.81Zm214.369,-5.692c-7.698,0.882 -48.688,27.277 -37.941,-5.691c2.441,-10.079 20.668,-59.693 15.176,-24.662c-12.949,40.256 16.746,-3.346 9.486,-15.176c5.253,-10.241 11.405,33.747 13.279,45.529Zm-206.781,-7.588c13.363,-11.026 0.984,-51.079 15.176,-58.809c-23.271,1.117 -6.892,45.169 -15.176,58.809Zm83.471,0c3.091,-5.968 2.571,-34.667 0,-32.25c-8.696,9.02 -0.603,24.523 0,32.25Zm-102.442,-24.662c9.117,-5.722 6.376,-39.804 1.897,-45.53c-4.154,-0.318 -0.332,34.842 -1.897,45.53Zm187.811,-5.691c-8.258,15.178 -8.133,-45.046 -11.383,-58.81c-20.52,-23.588 41.783,-28.522 32.251,3.795c15.62,33.358 -16.621,32.703 -15.177,62.603c4.671,-27.587 0.791,-53.016 -5.691,-7.588Zm-242.826,-11.383c7.23,34.834 -46.524,12.553 -18.971,-7.588c3.104,-15.053 -10.688,-41.83 -13.279,-62.603c-5.547,-21.024 -7.374,-45.092 -9.486,-66.398c-6.461,-23.685 -3.636,-45.862 -11.382,-66.398c0.563,-28.384 -8.943,-46.706 -9.486,-73.986c-0.25,-27.57 -1.95,-53.7 -3.794,-79.677c-4.634,-11.064 -1.191,-53.693 7.589,-30.353c-0.435,33.686 7.244,38.387 5.691,56.912c-14.71,-6.717 3.348,50.918 9.485,39.839c-1.844,13.624 -20.9,45.253 0,60.706c22.518,5.302 3.229,52.422 36.045,47.427c12.989,-13.24 9.477,-40.816 28.456,-49.324c13.805,-20.333 4.414,-46.095 -13.28,-55.015c-25.352,8.834 -67.158,-8.897 -24.662,-1.897c-10.525,-9.99 -18.153,-28.675 -24.662,-51.221c-8.112,-18.852 -9.7,-47.34 -13.279,-68.295c-6.107,-20.284 -4.216,-55.712 -7.589,-64.501c-10.948,17.617 -42.631,-25.976 -5.691,-1.897c-6.514,-11.574 -10.504,-65.986 1.897,-20.868c12.925,19.815 13.505,39.145 11.383,51.221c2.811,6.113 4.224,41.932 11.382,60.707c7.209,20.612 4.437,51.213 36.045,47.427c23.117,-1.727 23.652,-39.514 24.662,-47.427c13.86,19.096 -3.842,47.237 -9.486,60.706c-14.004,16.609 22.259,13.437 -11.382,26.559c-19.884,11.759 45.92,5.523 36.044,-17.073c12.47,-46.274 6.285,5.298 5.691,28.456c-0.948,26.014 -6.106,50.933 -9.485,72.089c0.613,28.433 -8.971,46.679 -9.485,73.986c-5.692,26.961 -3.969,50.276 -9.486,58.809c29.378,-10.637 -15.641,17.098 -9.485,32.25c-2.411,27.098 -29.316,37.128 -0,47.427Zm-261.797,-9.485c10.969,-5.492 45.743,-45.647 36.045,-30.353c-3.533,10.612 -43.938,50.306 -34.148,18.971c6.585,-15.761 39.386,-39.824 37.942,-39.839c-5.202,25.148 -33.279,27.432 -39.839,51.221Zm235.238,-9.485c6.209,4.035 -11.267,12.353 -9.486,3.794c-4.693,-13.538 11.542,-9.914 9.486,-3.794Zm-201.09,-3.795c-4.918,33.537 -0.752,85.268 -7.589,121.413c-63.328,29.185 -27.649,-23.271 -28.456,-60.706c-4.464,-25.52 67.022,-77.076 18.971,-41.736c-53.071,36.866 40.89,-47.831 17.074,-18.971Zm307.326,-7.588c14.911,1.455 25.73,-12.42 7.588,-5.691c-19.448,-4.284 -20.183,-0.495 -7.588,5.691Zm77.78,-3.794c-0.062,35.143 -20.959,-11.773 -11.382,-28.456c-1.852,-33.227 17.656,15.076 11.382,28.456Zm244.723,-3.794c7.014,15.11 -26.195,-17.947 -47.427,-1.897c-15.704,1.593 -37.695,40.696 -20.868,5.691c27.986,-17.669 -33.711,4.05 13.28,-13.28c16.413,-9.016 47.626,-6.188 55.015,9.486Zm-523.593,-5.691c8.097,-26.759 44.306,19.682 51.221,-20.868c8.129,32.842 -65.369,-10.225 -51.221,20.868Zm-369.93,-1.897c8.425,-12.654 24.723,-24.609 47.427,-17.074c8.793,3.084 50.8,20.682 30.353,5.691c-16.907,-5.856 -29.647,-15.884 -47.427,-20.868c-13.75,7.57 -29.562,19.937 -30.353,32.251Zm552.049,-1.898c7.441,-4.238 29.217,-2.498 32.251,-5.691c-9.689,-3.464 -27.925,-1.665 -32.251,5.691Zm-305.429,-3.794c18.223,-11.048 3.599,-52.655 5.691,-70.192c-9.009,23.113 -1.447,52.91 -5.691,70.192Zm462.887,-3.794c8.37,42.151 -26.404,6.126 -26.559,-5.691c-4.422,-20.87 -10.542,-40.049 -11.383,-64.501c-12.098,-40.318 14.758,6.657 24.662,7.589c14.23,11.061 13.781,36.81 13.28,62.603Zm104.339,0c13.839,-0.882 6.989,-11.128 7.588,-22.765c-0.398,-38.787 44.081,-21.702 49.324,-1.897c26.738,-4.534 -45.222,-42.961 -37.941,-47.427c3.836,43.995 -54.993,51.375 -64.501,13.28c-53.52,-33.222 68.101,27.564 30.353,-3.794c-11.111,-0.27 -17.94,-4.827 -28.456,-5.692c4.525,-4.651 55.757,7.758 0,-9.485c-10.686,-7.484 -62.731,-72.493 -24.662,-51.221c44.955,-6.674 57.521,-19.999 66.398,-56.912c-12.851,-71.11 31.516,17.206 13.279,39.838c-4.518,6.864 -4.002,18.764 -11.382,22.765c-18.58,43.549 18.811,-12.147 18.971,-24.662c6.527,12.938 -44.823,89.946 -5.692,37.942c6.261,-5.122 6.09,-16.677 9.486,-24.662c11.162,-0.824 -7.712,48.844 -15.177,58.809c10.301,15.089 35.426,-95.88 22.765,-18.971c0.541,7.416 -19.232,16.298 0,15.177c6.306,-1.432 2.286,-17.537 5.691,-18.971c1.355,-46.366 7.243,1.537 11.383,15.177c0.161,10.083 4.615,20.202 7.588,24.662c0.968,6.77 3.933,15.89 3.794,20.868c5.889,-33.747 15.382,20.64 11.383,30.353c12.568,10.642 -0.778,-2.043 -13.28,1.897c-27.748,-9.573 -53.327,26.889 -68.295,9.485c-4.826,-5.418 -5.962,-18.855 -11.382,-20.868c-39.52,-22.823 54.01,-10.248 22.765,17.074Zm-263.694,-7.588c38.135,11.094 35.079,-33.808 15.177,-9.486c-33.093,-2.014 -39.211,-19.441 -15.177,9.486Zm-174.531,-1.897c38.317,22.427 51.428,-45.376 34.148,-9.486c-27.392,14.909 -49.983,-29.34 -34.148,9.486Zm464.784,-3.794c16.643,3.447 19.654,-18.666 7.588,-22.765c-16.643,-3.447 -19.653,18.665 -7.588,22.765Zm-766.419,-5.692c17.114,0.444 11.933,-25.859 -1.897,-22.765c-16.988,1.78 -12.306,25.535 1.897,22.765Zm314.915,0c40.36,-0.222 22.332,-55.275 24.662,-87.265c-3.557,-36.229 -7.418,-74.605 -5.691,-113.825c-8.215,3.965 -14.864,-1.889 -26.56,0c-44.114,0.342 65.518,13.426 7.589,13.28c-6.287,-1.021 -30.606,0.074 -15.177,3.794c58.457,10.449 -50.417,-3.929 5.691,11.382c36.843,-37.213 17.928,32.856 26.559,62.604c-1.963,29.955 16.048,89.024 -9.485,102.442c-17.466,-14.752 -0.444,-80.4 -17.074,-94.854c4.77,29.094 -3.822,83.322 9.486,102.442Zm163.148,0c30.357,-6.359 22.422,-28.08 1.897,-9.485c-10.067,-12.817 17.956,-27.333 7.589,-56.912c3.012,-24.918 2.312,-45.818 1.897,-70.192c11.921,-17.998 -5.232,-64.742 -15.177,-36.045c0.82,6.115 -6.873,66.275 1.897,47.427c-2.096,-30.433 15.995,-22.905 7.589,11.383c-0.465,17.092 0.383,52.023 -1.898,66.397c9.89,21.699 -33.031,31.828 -3.794,47.427Zm-531.181,-1.897c13.509,-11.122 27.426,-33.684 20.868,-56.912c-4.381,16.009 -13.801,41.159 -20.868,56.912Zm275.076,0c0.795,34 -9.453,66.561 -11.382,102.442c-5.436,18.015 1.637,108.426 -17.074,70.192c0.345,-38.858 3.788,-74.627 7.588,-110.03c9.514,-18.406 4.307,-99.627 20.868,-62.604Zm-292.15,-3.794c8.165,6.589 -10.05,17.009 -9.485,7.588c-0.852,-9.606 8.374,-17.993 9.485,-7.588Zm741.757,0c0.875,3.542 -21.86,2.134 -26.559,0c7.562,-3.221 20.024,-5.909 26.559,0Zm-447.71,-13.279c6.016,15.757 -12.809,-8.302 -9.485,-15.177c-9.556,-12.217 16.155,4.955 9.485,15.177Zm447.71,-5.692c-41.506,41.801 -30.165,-65.318 -28.456,-51.221c5.443,4.8 19.528,5.289 20.868,11.383c-51.659,-0.74 20.913,8.895 7.588,39.838Zm-349.062,-7.588c3.936,-31.156 3.153,-93.129 -3.794,-113.825c-2.798,56.414 -2.937,60.548 3.794,113.825Zm-258.002,-5.691c22.791,-4.944 46.207,-19.68 20.867,3.794c-13.042,10.986 -22.063,25.999 -51.221,20.868c-14.554,-3.546 -10.143,-50.286 -17.073,-39.839c-2.463,8.806 -46.947,26.195 -34.148,11.383c13.157,-10.871 14.627,-33.434 22.765,-49.324c15.738,-44.881 2.413,18.479 11.383,11.382c10.62,-13.406 2.809,-45.251 11.382,-60.706c4.921,-1.089 0.975,40.167 15.177,45.53c22.556,20.556 20.875,11.539 3.794,-7.589c-10.59,-11.682 -12.35,-40.861 -5.691,-58.809c13.215,-37.725 1.643,15.84 7.588,30.353c-1.417,22.691 25.575,43.849 7.588,11.383c-3.845,-19.451 -6.288,-45.64 1.897,-62.604c4.57,-19.456 13.341,-34.722 20.868,-51.221c9.613,-14.416 14.737,-33.326 18.971,-53.118c2.208,-33.986 12.445,-34.472 5.691,1.897c0.131,22.571 -8.106,48.017 -3.794,66.398c4.589,-12.61 7.998,-38.122 9.485,-58.81c-3.642,-21.268 -0.331,-64.172 5.692,-20.868c0.011,22.187 0.457,51.552 -0,68.295c5.939,18.087 7.026,41.034 17.073,55.015c10.537,14.374 39.435,25.07 1.897,13.28c-13.298,1.271 -21.266,-49.129 -22.764,-26.559c3.853,20.175 13.034,35.027 32.25,39.838c34.151,-1.855 -13.887,20.362 -28.456,9.486c-25.192,-6.105 18.87,22.359 32.25,5.691c15.545,-18.61 -7.055,24.159 -18.971,22.765c-25.842,3.58 -16.489,13.976 -43.633,-1.897c-25.879,-24.567 -9.147,6.827 7.589,11.382c6.285,18.318 55.882,-2.392 39.838,5.692c-12.615,11.412 -15.275,32.787 -32.25,39.838c-6.163,10.343 -61.38,3.341 -36.044,17.074Zm163.148,-0c7.915,8.372 -14.759,-10.151 -15.176,-13.28c-1.968,-14.319 17.14,7.769 15.176,13.28Zm242.826,-11.383c1.675,-18.705 12.765,-52.044 1.897,-64.5c3.208,12.242 -7.55,47.364 -1.897,64.5Zm159.354,-1.897c-2.418,-0.275 -37.552,-19.557 -37.941,-39.838c0.597,2.096 30.389,26.718 37.941,39.838Zm-130.898,-9.485c2.836,-12.284 1.205,-46.896 1.897,-64.501c1.178,-17.783 -3.978,-55.764 3.794,-56.912c-14.689,8.412 -3.665,45.913 -7.588,62.604c2.011,17.589 -3.853,41.94 1.897,58.809Zm-132.795,-1.897c0.804,13.647 -12.337,8.909 -7.588,-15.177c-1.385,-16.815 13.063,-8.368 7.588,15.177Zm265.591,-1.897c-4.174,-7.608 -43.692,-27.734 -43.633,-56.913c3.322,8.46 35.913,35.512 43.633,56.913Zm-434.431,-1.897c1.434,24.022 -3.862,52.198 -7.588,75.883c-7.995,9.079 -45.194,40.844 -22.765,11.382c2.878,-22.715 -3.61,-50.876 3.794,-75.883c-2.261,-48.768 6.004,-28.285 26.559,-11.382Zm24.662,-5.692c19.2,-50.593 3.631,51.392 -5.691,-5.691c1.483,-28.866 4.972,-55.738 5.691,-85.368c3.584,-26.766 9.144,-51.567 13.28,-77.78c2.498,-27.853 6.22,-54.49 9.485,-81.575c-1.702,-9.288 2.694,-12.482 1.897,-20.867c4.83,-42.432 4.069,10.513 3.794,26.559c-3.46,26.889 -5.099,55.611 -9.485,81.574c-2.645,27.705 -4.255,56.453 -7.589,83.471c-0.062,30.289 -9.502,51.206 -11.382,79.677Zm436.328,-5.691c-30.839,5.001 -29.295,-41.847 -34.148,-72.089c-4.9,-33.037 -3.944,-71.941 -3.794,-110.03c-11.426,-33.677 7.588,-64.778 15.177,-91.06c10.325,-26.9 19.813,-57.2 28.456,-83.471c7.063,-30.875 6.723,-69.164 11.382,-102.442c-17.479,-38.773 -18.722,43.177 -24.662,58.809c-1.421,17.29 7.814,-4.492 5.692,-7.588c10.386,-49.487 10.872,-5.678 5.691,18.971c-4.094,33.132 -15.465,61.548 -22.765,89.162c-19.208,46.797 2.176,-37.763 -0,-56.912c4.614,-33.324 7.628,-68.259 15.176,-98.648c2.933,-6.048 1.742,-20.587 1.898,-26.559c-21.322,-18.698 46.036,-0.632 28.456,18.971c-3.846,33.381 -8.355,68.659 -13.28,98.648c-7.429,30.508 -17.576,58.31 -26.559,87.265c-11.327,23.351 -23.675,60.955 -17.074,85.369c-3.431,35.663 -0.415,72.595 3.795,106.236c5.592,31.634 15.588,61.427 26.559,85.368Zm-91.06,-7.588c-0.512,13.215 9.779,72.556 -7.588,55.015c0.724,-26.4 -3.77,-50.779 -1.897,-75.883c1.043,-13.744 -12.741,-69.594 3.794,-51.221c3.946,21.729 6.461,48.089 5.691,72.089Zm-366.136,-1.897c9.497,29.401 -20.28,-2.925 -22.765,-11.383c-9.802,-29.095 18.434,4.772 22.765,11.383Zm424.945,-1.897c-6.639,-8.907 -33.969,-30.676 -39.838,-55.015c5.524,10.022 33.354,31.29 39.838,55.015Zm-419.254,-9.486c6.073,7.259 -22.408,-16.844 -24.662,-28.456c-1.271,-12.061 26.332,12.921 24.662,28.456Zm104.34,0c-2.753,-19.357 7.51,-63.738 1.897,-58.809c-4.62,17.389 -13.915,53.583 -1.897,58.809Zm51.221,-1.897c-13.418,15.183 -5.974,-69.547 -13.28,-72.089c8.632,-22.548 6.168,58.465 13.28,72.089Zm-151.766,-17.073c4.617,1.899 -22.232,-20.506 -24.662,-30.354c-3.252,-3.264 31.04,11.698 24.662,30.354Zm407.871,-7.589c2.865,9.84 -30.403,-22.423 -32.25,-39.838c-3.508,-9.197 30.353,22.472 32.25,39.838Zm-208.678,-3.794c9.415,9.806 -8.429,19.667 -13.28,9.486c-5.632,-9.877 5.027,-17.926 13.28,-9.486Zm-197.296,-7.588c-0.801,-8.645 -27.954,-17.74 -26.559,-36.045c0.424,7.868 31.22,14.938 26.559,36.045Zm453.401,-3.794c41.817,3.879 55.159,-20.728 64.501,-49.324c4.619,-0.53 -0.3,64.605 -26.56,64.5c-35.372,19.172 -62.023,-7.971 -62.603,-39.838c18.119,24.155 85.867,-8.744 17.074,1.897c-41.412,-11.58 43.923,-7.763 37.941,-37.942c-3.183,-5.589 -51.511,47.664 -58.809,-1.897c1.185,-9.857 -4.669,-19.735 -0,-24.662c-0.799,-8.385 3.597,-11.58 1.897,-20.868c-2.184,-44.814 15.11,13.236 7.588,-24.662c1.146,-12.83 -0.468,-65.382 7.588,-91.059c13.999,-60.117 3.893,30.656 13.28,47.427c8.469,13.088 10.305,94.455 15.177,68.294c0.328,-33.242 -12.453,-71.573 -9.486,-92.956c7.744,30.195 11.601,64.286 15.177,98.648c-6.871,73.621 16.271,-8.547 -0,-30.354c-3.489,-52.37 11.919,36.335 22.765,41.736c18.879,21.951 7.567,72.239 -15.177,79.677c-27.832,16.939 -76.295,-29.315 -30.353,11.383Zm-273.179,-3.794c-10.914,-0.486 -31.89,-31.092 -18.971,-51.222c-2.832,4.546 2.256,47.05 18.971,51.222Zm3.794,-17.074c24.544,9.671 29.612,-23.292 15.177,-30.353c-25.315,-8.901 -28.441,22.123 -15.177,30.353Zm-189.708,-9.486c-7.563,5.722 -10.026,-63.95 -13.279,-15.176c-8.617,-11.675 -0.689,-46.924 -1.897,-64.501c2.963,-19.619 0.946,-54.059 1.897,-68.294c1.159,-25.548 -2.965,-49.099 -5.691,-68.295c-1.958,-22.431 -6.686,-45.378 -5.692,-68.295c-3.369,-21.02 -0.994,-51.069 -1.897,-72.089c-1.128,-21.173 -10.453,-47.19 -1.897,-64.5c21.221,-31.86 3.99,-6.213 3.794,17.073c-1.819,29.553 9.317,56.571 5.692,11.383c0.722,-18.165 8.472,-58.096 18.97,-36.045c0,16.535 -2.847,47.368 -5.691,64.501c-3.914,20.475 0.118,52.181 -3.794,70.192c-7.609,17.897 -5.475,46.461 -1.897,64.5c3.832,20.557 4.386,47.676 5.691,68.295c3.151,44.418 6.959,-18.305 5.691,-30.353c14.388,-9.047 17.408,22.177 13.28,43.633c-0.844,23.544 -6.076,45.987 -5.691,68.294c-5.005,39.791 11.284,-16.495 7.588,-28.456c4.303,-20.086 6.061,-46.002 7.588,-66.398c2.252,-22.137 2.874,-49.187 3.794,-70.191c1.165,-23.224 -2.077,-54.141 1.898,-72.089l-0,-73.986c-0.877,-12.912 11.39,-66.125 11.382,-36.045c-4.991,48.581 3.358,6.319 5.691,-11.382c-7.892,-26.093 39.308,-37.612 11.383,-17.074c-5.35,19.039 -8.928,43.134 -11.383,62.604c-3.927,20.462 -0.924,51.139 -1.897,72.089c3.001,19.439 2.764,53.361 0,70.191c-0.231,24.158 -5.49,46.574 -7.588,66.398c-3.887,20.502 -8.065,43.999 -9.486,64.501c-4.293,20.095 -6.176,45.886 -11.382,62.603c-8.474,15.552 -11.407,36.656 -15.177,56.912Zm352.857,-5.691c-16.404,3.153 -8.41,-40.643 -13.28,-58.809c-0.971,-24.704 -3.058,-51.492 -1.897,-75.883c6.49,6.759 5.295,43.758 9.485,62.603c-0.136,25.814 7.528,47.023 5.692,72.089Zm-147.972,-1.897c3.877,7.084 -12.189,12.921 -15.177,5.691c-5.904,-14.732 16.973,-13.759 15.177,-5.691Zm15.176,-7.588c9.928,33.246 -35.989,53.404 -43.632,18.971c-22.714,-35.682 39.764,-48.996 43.632,-18.971Zm9.486,-1.897c9.229,18.464 -18.929,46.461 -15.177,39.838c14.812,-1.403 12.346,-56.457 15.177,-39.838Zm56.912,-5.691c27.887,1.252 22.609,-11.413 -0,-5.692c-27.732,-8.087 -15.465,2.859 -0,5.692Zm-333.886,-1.898c12.589,34.947 -22.247,24.816 -24.662,7.589c-7.907,-14.854 -9.159,-36.373 -13.279,-55.015c0.935,-24.036 -0.541,-49.038 -1.897,-68.295c0.58,-23.344 -6.551,-38.981 -9.486,-58.81c-3.997,-19.103 -5.824,-43.754 -7.588,-62.603c-3.122,-19.64 -4.526,-41.005 -3.794,-64.501c-4.562,-23.833 1.425,-46.298 5.691,-28.456c-1.091,23.854 5.384,40.15 7.589,60.707c5.989,17.111 6.453,43.124 11.382,58.809c1.945,20.819 4.39,41.142 7.588,60.706c4.931,18.173 10.157,39.422 13.28,56.913c5.259,17.504 10.531,35.001 13.279,55.015c3.741,24.8 -12.281,-23.486 -13.279,-30.353c-7.632,-6.737 -13.325,-46.875 -17.074,-36.045c-0.076,22.839 8.867,36.665 15.177,53.118c6.446,16.315 14.334,31.2 17.073,51.221Zm136.59,-9.485c8.336,-2.14 47.554,-1.37 34.147,-5.691c-17.498,4.566 -40.921,-9.971 -34.147,5.691Zm185.913,0c8.424,0.004 45.348,1.694 28.457,-3.794c-9.914,-1.114 -34.453,-3.515 -28.457,3.794Zm129.002,-11.382c4.788,8.271 0.292,21.537 -0,30.353c-4.589,44.316 -22.807,-22.444 -26.559,-34.147c-4.846,-6.536 -3.77,-18.998 -7.589,-26.56c-3.077,-11.815 -14.067,-90.378 -1.897,-53.118c18.736,65.298 1.998,-42.625 -11.382,-47.427c0.489,-28.405 -27.741,-89.707 -0,-104.339c-24.679,-18.166 -3.956,-75.399 -9.486,-108.133c15.198,-3.817 15.864,6.901 15.177,18.971l0,24.662c-27.388,10.39 12.555,11.608 0,45.529c-25.542,36.893 -1.797,34.935 5.691,83.472c20.269,40.318 -6.046,-50.388 1.897,-72.089c-6.114,-28.301 6.528,-124.289 17.074,-70.192c3.663,37.909 8.237,84.655 3.794,123.31l0,34.147c-1.544,68.671 8.78,9.237 7.588,-17.073c3.594,-41.36 1.64,-87.575 -1.897,-125.207c-8.738,-27.328 -9.354,-116.113 22.765,-64.501c-0.855,37.725 -4.832,81.595 -3.794,119.516c-2.335,41.286 -8.432,81.109 -13.279,117.619c-1.095,47.944 -0.585,82.378 1.897,125.207Zm-301.635,-5.692c39.98,1.994 20.797,-24.366 20.867,-45.529c-12.13,-38.746 5.602,38.673 -18.97,30.353c-22.739,-31.37 21.592,34.711 -9.486,-3.794c-4.809,-45.984 -15.844,22.063 7.589,18.97Zm172.633,-11.382c13.612,3.369 21.519,-3.299 20.868,-11.382c1.67,-16.499 -6.252,2.16 -5.691,3.794c-32.607,3.325 -7.867,-25.577 -3.794,-34.148c1.69,17.854 -17.106,3.863 -5.691,0c2.369,-4.778 -2.142,-29.33 9.485,-58.809c-3.236,-13.479 5.788,-19.03 3.794,-28.456c8.497,-57.761 -10.25,8.588 -9.485,26.559c-1.497,32.87 -21.134,80.715 -9.486,102.442Zm115.722,-9.485c4.566,-30.492 7.983,-84.718 -13.279,-104.34c6.51,17.581 14.717,64.588 13.279,104.34Zm-295.944,-9.486c9.1,-18.8 -2.961,-45.645 -3.794,-62.603c-2.739,-14.156 13.386,-48.812 0,-43.633c3.474,42.083 -15.581,-3.159 -5.691,41.736c2.845,21.543 7.772,44.291 9.485,64.5Zm201.09,-5.691c7.877,-9.531 5.756,-45.693 5.692,-47.427c-3.284,2.225 -7.557,34.98 -5.692,47.427Zm-337.679,-3.794c2.976,77.213 -9.121,-32.852 -15.177,-43.633c-10.593,-31.749 -15.82,-71.214 -20.868,-106.236c-9.563,-70.625 14.511,27.462 17.074,41.735c9.157,33.186 15.899,71.135 18.971,108.134Zm-111.928,-5.691c31.955,1.386 5.487,-7.316 -9.485,-5.692c-25.802,-7.539 -3.032,4.861 9.485,5.692Zm662.08,-5.692c4.263,-32.836 -31.222,-44.858 -30.353,-83.471c1.045,-9.072 3.576,-16.662 7.588,-22.765c8.104,-33.781 -3.823,39.459 11.382,45.53c40.215,30.626 -21.11,-21.837 -3.794,-56.912c1.491,20.936 45.215,67.503 11.383,11.382c0.504,-5.46 -6.202,-26.551 1.897,-17.074c14.475,52.978 1.136,3.011 9.485,-20.867c4.314,-0.955 8.027,-22.653 9.486,-9.486c-3.353,21.892 33.031,48.975 30.353,37.942c-21.479,-16.249 -32.499,-74.849 13.279,-62.604c1.459,8.658 5.172,15.065 9.486,20.868c7.14,53.224 2.961,12.282 30.353,3.794c31.611,-16.671 2.817,60.771 -34.147,41.736c-51.827,25.02 82.856,-18.965 30.353,11.382c-22.911,17.556 -37.361,43.584 -77.78,43.633c-32.886,13.435 57.91,-0.284 56.912,-11.382c-7.454,12.729 -89.349,42.272 -24.662,28.456c44.771,-36.269 -1.235,25.846 -36.044,13.279c-13.489,-3.111 -13.735,-2.868 -5.692,5.692c43.561,0.65 50.806,-13.735 24.662,17.073c-17.855,58.798 -63.681,-23.994 -34.147,3.794Zm-394.592,-5.691c9.091,-13.052 -4.927,-39.838 -3.794,-60.706c-5.741,-9.239 -6.744,-63.672 -13.28,-41.736c8.992,14.786 -4.496,32.18 7.589,41.736c4.044,22.985 5.829,43.771 9.485,60.706Zm24.662,-5.691c3.771,43.05 -8.138,-38.845 -11.382,-47.427c-5.31,-27.57 -12.282,-53.488 -17.074,-81.574c-1.336,-31.543 -5.676,-60.092 -5.691,-92.957c4.843,-12.532 -26.195,-79.22 -1.897,-39.839c14.482,7.731 -1.761,92.392 11.382,55.016c6.902,-46.511 3.066,26.278 -3.794,37.941c5.847,27.033 9.567,56.201 15.176,83.471c3.833,29.047 14.198,51.571 13.28,85.369Zm111.927,-17.074c-4.376,20.731 -19.642,-10.667 -20.867,-20.868c-0.733,-16.443 6.797,24.42 20.867,20.868Zm56.913,-3.794c9.362,-15.871 -6.949,-23.691 -7.589,-32.25c-3.166,9.675 6.597,24.043 7.589,32.25Zm-470.475,-7.588c18.274,-0.695 24.895,-13.048 28.456,-28.456c-8.895,10.073 -14.475,23.468 -28.456,28.456Zm335.782,-0c2.983,21.926 -12.276,-27.608 -9.485,-30.353c0.296,-28.316 7.715,23.872 9.485,30.353Zm83.472,-0c4.562,-23.74 15.159,-76.773 11.382,-70.192c-3.906,8.006 -11.428,-0.575 -20.868,1.897c-6.624,-0.106 -15.96,-5.179 -5.691,-3.794c33.489,5.801 8.668,-9.808 28.456,-7.588c33.135,-48.911 -57.47,-3.379 -45.53,-20.868c7.704,-20.783 69.686,1.104 49.324,-18.971c31.357,-7.85 -18.644,-80.637 9.486,-53.118c7.22,28.372 -3.1,63.998 -3.794,94.854c-6.079,29.869 -14.363,60.148 -18.971,89.162c9.578,36.843 -37.911,-47.861 -3.794,-11.382Zm-443.916,-1.897c25.644,-2.176 33.87,-21.781 43.633,-39.839c-4.798,23.393 -27.986,47.465 -1.897,18.971c12.706,-14.771 1.637,-72.897 -3.795,-22.765c-5.055,21.905 -23.567,33.472 -37.941,43.633Zm497.034,-22.765c5.12,-5.445 4.87,-28.792 1.897,-34.148c-1.324,9.966 -6.437,26.909 -1.897,34.148Zm-53.118,-13.28c5.128,8.154 -13.333,5.781 -15.177,0c-1.385,-6.34 22.932,-9.821 15.177,0Zm-286.459,-1.897c-2.603,7.592 -13.258,-31.894 -17.074,-41.736c-3.058,-17.384 -18.534,-38.622 -5.691,-55.015c10.428,-33.703 8.526,25.51 11.383,36.045c4.187,19.839 7.937,40.123 11.382,60.706Zm9.486,0c5.909,44.538 -4.478,6.799 -5.692,-13.279c-3.961,-20.068 -6.543,-41.52 -9.485,-62.604c-2.916,-21.111 -4.024,-44.039 -9.485,-62.603c0.658,-23.759 -8.645,-40.934 -9.486,-60.707c-1.013,-40.332 15.366,-21.634 15.177,3.794c3.409,20.62 6.275,41.785 5.691,66.398c0.452,23.575 3.318,44.742 5.691,66.398c2.136,20.964 6.797,42.781 7.589,62.603Zm572.917,-9.485c66.105,-3.024 -8.554,-4.739 -15.177,-17.074c-26.218,-40.066 -6.552,21.687 15.177,17.074Zm-656.389,-1.897c2.182,26.071 -21.941,-41.569 -13.279,-68.295c7.023,-35.642 8.248,54.884 13.279,68.295Zm119.516,-5.692c-0.531,9.089 -19.155,-17.088 -18.971,-30.353c-2.642,-5.913 15.977,20.265 18.971,30.353Zm-184.016,-5.691c12.661,5.071 8.688,-36.765 -0,-26.559c8.043,33.85 -18.723,-4.297 -0,26.559Zm311.12,-13.279c9.745,7.343 -11.942,15.136 -13.279,5.691c-9.746,-7.344 11.942,-15.137 13.279,-5.691Zm-60.706,-3.794c7.643,-2.474 17.026,-3.21 17.073,-13.28c18.757,-17.37 -37.588,23.651 -28.456,0c5.437,3.299 21.767,3.058 20.868,-5.691c1.821,-4.802 5.541,-13.671 0,-15.177c-3.202,31.332 -30.9,5.822 -17.074,-7.588c-4.997,-2.624 -8.565,-19.895 1.897,-17.074c36.384,-12.238 -26.432,8.85 -11.382,-20.868c8.432,17.603 -16.782,79.977 17.074,79.678Zm-66.398,-1.898c3.758,13.183 -19.785,-15.783 -18.971,-24.662c-1.149,-15.791 17.317,18.252 18.971,24.662Zm284.561,0c32.304,3.133 34.652,-16.863 13.28,-3.794c-22.543,-8.703 -24.588,-25.178 -13.28,3.794Zm-121.412,-5.691c24.931,1.831 46.186,-3.392 64.5,-5.691c21.631,0.131 39.645,9.165 1.897,9.485c-22.275,-7.155 -11.494,36.606 -18.971,47.427c-3.519,19.242 -9.654,35.878 -15.176,53.118c-1.423,34.884 -25.544,9.427 -26.559,-5.691c-4.895,-17.868 -9.81,-35.722 -13.28,-55.015c-4.215,-18.885 -6.393,-43.185 -15.176,-55.015c-9.207,-29.691 4.968,18.238 22.765,11.382Zm127.104,-3.794c31.116,-2.182 22.068,-29.666 3.794,-5.691c-13.534,-20.735 10.8,-16.806 1.897,-37.942c3.565,-17.684 5.78,-46.831 9.485,-56.912c2.872,19.147 -3.513,44.122 -3.794,62.604c6.029,12.545 6.257,-36.481 9.486,-45.53c-3.59,-12.671 -3.457,-67.811 -7.589,-28.456c-6.528,16.572 -6.497,43.08 -11.382,58.809c0.986,18.183 -21.798,41.062 -1.897,53.118Zm-290.253,-22.765c2.737,1.736 -19.115,-15.395 -18.971,-24.662c-0.423,-4.052 23.044,11.468 18.971,24.662Zm115.722,0c-1.639,28.346 -23.057,-7.152 -3.794,-9.485c-8.167,-30.314 8.572,-5.874 3.794,9.485Zm51.221,0c30.875,9.025 90.086,-26.955 34.147,-7.588c-10.013,-1.03 -18.697,3.631 -26.559,1.897c-46.008,-5.716 9.688,-5.35 22.765,-3.794c40.476,-8.791 33.941,-21.83 51.221,-37.942c9.4,-14.547 10.235,47.482 -15.177,39.839c-18.369,14.112 -59.283,24.417 -83.471,9.485c-28.883,-11.898 -39.782,-28.177 -30.353,-55.015c-3.089,-15.934 -0.706,15.086 -3.794,13.28c-3.867,-6.181 -0.16,-43.349 -13.28,-55.016c-15.527,-20.016 -7.419,-69.694 -26.559,-73.986c-65.498,0.867 52.166,-26.416 18.971,18.971c5.49,30.456 14.915,59.597 36.044,72.089c8.486,17.404 51.394,28.775 79.677,17.074c24.812,-11.134 44.303,-30.209 51.222,-56.913c19.519,-46.941 2.282,32.205 -9.486,37.942c-8.977,26.969 -23.649,50.864 -47.427,60.706c-37.568,9.7 -68.3,-4.803 -77.78,-26.559c-17.049,7.169 15.385,49.055 39.839,45.53Zm-104.339,-1.897c11.403,2.87 17.658,-25.136 3.794,-17.074c-20.616,2.078 5.496,12.269 -3.794,17.074Zm-356.651,-11.382c6.6,50.452 -43.164,-68.348 9.486,-37.942c37.806,-10.718 56.307,-38.59 72.088,9.485c11.021,0.334 20.982,7.851 5.692,7.589c-40.334,2.817 -34.385,-42.163 -39.839,13.279c-20.49,44.658 -71.328,-56.734 -47.427,7.589Zm870.758,-3.795c17.508,4.316 26.377,-10.248 15.177,-18.97c-15.169,-9.294 -25.594,8.669 -15.177,18.97Zm-847.993,-3.794c18.415,7.162 22.215,-17.426 11.383,-22.765c-17.387,-4.194 -21.185,15.443 -11.383,22.765Zm271.282,-1.897c-11.286,-3.128 -23.62,-25.918 -13.28,-51.221c-2.504,-29.059 4.749,-48.371 3.795,-75.883c-6.731,-27.432 20.738,-42.217 28.456,-39.838c-12.758,1.161 -9.704,68.086 -17.074,36.044c4.978,-50.73 -14.683,-7.127 0,11.382c6.759,9.524 3.663,51.827 1.897,70.192c4.035,32.344 -9.535,58.261 -5.691,13.28c-6.581,-28.288 -9.88,29.274 1.897,36.044Zm53.118,-9.485c7.277,-4.03 24.653,0.381 17.074,-7.588c-2.15,-1.306 -21.837,-5.474 -17.074,7.588Zm15.177,-7.588c18.299,-28.307 -33.138,-28.081 -18.971,-13.28c31.757,-13.448 -6.651,7.793 18.971,13.28Zm531.181,-1.898c60.263,-39.038 15.266,32.951 13.28,43.633c24.205,-67.82 -10.364,2.986 -41.736,-11.382c-2.544,-8.839 -10.994,-11.772 -9.485,-24.662c11.657,-34.948 -26.489,32.506 -43.633,-1.897c26.768,-30.357 47.704,-34.114 81.574,-5.692Zm-665.874,-1.897c-2.841,24.634 -7.52,3.203 -11.382,-3.794c8.535,-19.678 18.428,-7.967 11.382,3.794Zm478.064,-3.794c4.756,31.917 -4.677,62.562 -5.692,91.06c-1.764,16.045 -14.152,89.745 -11.382,34.147c4.196,-29.186 8.231,-61.281 11.382,-89.162c1.133,-17.18 13.301,-85.839 5.692,-36.045Zm195.398,-15.176c73.584,-23.183 -3.122,29.097 -26.559,1.897c-5.391,-4.851 -12.966,-11.851 -13.279,-18.971c-5.663,-33.906 12.299,29.018 39.838,17.074Zm-331.988,-3.795c13.521,5.178 -12.887,8.79 -7.588,-22.764c1.91,-36.451 5.718,21.941 7.588,22.764Zm-582.402,-1.897c24.377,1.615 43.437,-2.094 53.118,-15.176c12.484,-31.898 13.258,12.71 -3.794,13.279c-12.274,9.996 -32.465,15.469 -53.119,11.383c-21.036,-13.908 -11.87,-31.084 3.795,-9.486Zm923.876,-5.691c-23.841,7.105 -51.447,-7.717 -41.736,-37.941c-9.791,-20.561 -21.526,-39.183 -22.765,-68.295c1.937,-28.415 27.857,-32.854 30.353,-60.707c4.914,9.968 15.797,17.252 -3.794,43.633c-4.137,13.752 10.165,60.896 9.486,51.221c-9.821,-18.781 41.367,-3.756 32.25,20.868c1.415,53.685 4.38,-43.267 22.765,-7.588c2.47,24.239 -10.369,50.164 -26.559,58.809Zm-531.182,-3.794c-0.686,25.112 -7.129,-15.353 -11.382,-17.074c-5.069,-21.761 9.776,14.433 11.382,17.074Zm597.58,-39.839c4.943,26.007 -10.651,-12.386 -15.177,-13.279c-5.293,-18.483 18.832,-0.537 15.177,13.279Zm-256.106,-17.073c7.382,29.972 -9.995,46.063 -17.073,66.397c-3.827,-31.237 9.115,-51.765 17.073,-66.397Zm-343.371,-9.486c-1.347,5.394 -16.997,-3.388 -20.867,-7.588c-3.905,-6.04 20.746,3.603 20.867,7.588Zm569.123,-5.691c-1.094,-15.178 -15.034,-32.601 -17.073,-49.324c-1.349,-21.752 -12.145,-37.433 -22.765,-47.427c6.063,10.212 14.116,33.52 17.073,49.324c1.653,21.449 12.36,37.219 22.765,47.427Zm-13.279,-1.897c-2.817,-14.689 -41.41,-14.979 -43.633,-39.839c-7.304,24.81 24.808,31.581 43.633,39.839Zm24.662,-9.485c8.948,36.082 -30.391,13.374 -41.736,9.485c-18.35,-5.564 -41.265,-16.144 -36.044,-37.941c6.512,-15.904 21.899,-42.349 5.691,-56.913c-29.34,-7.66 -16.818,39.661 -39.839,28.456c13.033,-16.39 12.995,-36.313 32.251,-41.735c10.525,-10.721 44.327,-20.316 58.809,-7.589c8.869,23.348 -1.503,41.928 5.691,64.501c14.393,10.229 12.047,14.162 15.177,41.736Zm-736.066,-1.897c42.417,-2.455 -8.954,-4.03 -11.382,-15.177c-10.339,-31.901 -6.092,20.38 11.382,15.177Zm411.666,-5.692c-7.241,42.618 -22.401,-20.894 -22.765,-32.25c-10.461,-26.331 25.872,18.495 22.765,32.25Zm24.662,-1.897c0.21,14.151 -2.717,44.048 -9.486,51.221c-4.727,-18.035 2.218,-47.751 -9.485,-58.809c0.673,-11.179 -29.928,-40.275 -13.28,-28.456c7.71,15.053 29.005,16.527 32.251,36.044Zm-125.207,-7.588c-17.427,5.164 -42.136,13.925 -72.089,11.382c-20.134,-1.151 -37.851,-10.468 -53.118,-26.559c-22.369,-12.291 -4.419,-46.414 -7.589,-72.089c-4.274,-24.811 -14.753,-43.427 -17.073,-70.191c-3.205,-25.996 -3.808,-58.745 7.588,-75.883c18.908,-19.969 13.143,-13.396 47.427,-17.074c-38.437,4.49 -13.34,-42.533 13.279,-32.25c26.493,14.522 48.645,-9.973 56.913,13.279c32.305,14.12 -32.372,-30.07 18.97,-3.794c4.849,24.235 28.218,29.962 37.942,49.324c7.233,22.207 3.126,56.59 -0,79.677c-2.554,26.533 -16.74,41.44 -15.177,72.089c15.135,10.474 -3.604,74.838 15.177,37.942c-7.065,10.895 51.544,22.173 30.353,30.353c-15.973,-14.386 -43.752,-24.966 -43.633,-9.486c-8.671,2.62 -8.132,4.517 1.897,5.692c43.806,4.232 -18.669,2.318 -20.867,7.588Zm-149.869,-18.971c47.626,2.757 -37.187,11.904 -7.589,-13.279c25.027,-30.422 3.62,12.15 7.589,13.279Zm210.575,-3.794c-8.607,8.15 -16.078,-15.34 -24.662,-15.177c3.781,-3.323 21.828,9.59 24.662,15.177Zm358.548,-7.588c11.447,3.828 13.88,-14.579 13.279,-1.897c-33.14,18.339 -13.268,-33.157 -17.074,-43.633c1.355,12.086 3.633,16.751 5.692,1.897c19.581,-3.487 -17.569,32.814 -1.897,43.633Zm-356.651,-3.794c-3.105,2.648 -18.438,-12.98 -28.456,-11.383c12.215,-11.758 21.572,9.846 28.456,11.383Zm-127.104,-7.589c37.892,-0.614 62.023,-17.495 73.986,-41.735c-5.748,-2.002 -32.855,37.175 -62.604,34.147c-36.826,-1.681 -58.991,-20.526 -72.088,-43.633c2.538,29.972 31.597,45.517 60.706,51.221Zm464.784,-3.794c1.755,-19.405 -14.653,-35.42 -34.148,-36.044c9.148,8.502 30.247,19.826 34.148,36.044Zm-464.784,-9.485c26.491,6.552 54.048,-21.881 17.074,-5.691c-28.198,-2.463 -54.209,-7.35 -17.074,5.691Zm-98.648,-3.794c12.572,0.337 -11.297,12.34 -13.279,9.485c-1.067,-11.534 2.046,-19.09 13.279,-9.485Zm-309.223,-17.074c7.472,0.451 3.49,52.919 -0,41.736c-10.709,-0.666 -16.463,-47.029 -0,-41.736Zm328.194,-5.691c-16.803,38.486 -36.388,-10.14 -15.177,-28.456c-5.543,-25.057 -11.278,-18.863 -20.868,-53.119c-0.671,-60.526 26.743,-6.518 20.868,11.383c11.876,25.737 1.99,49.117 15.177,70.192Zm195.399,-1.897c-16.558,44.776 -33.154,-14.91 -15.177,-28.457c1.159,-29.491 17.476,-48.781 13.28,-77.78c36.279,-5.636 7.053,48.52 3.794,55.016c0.808,-17.886 -12.665,39.944 -1.897,51.221Zm-113.825,-1.897c31.069,-1.945 65.303,-45.354 11.383,-32.251c-56.968,-11.422 -44.208,19.675 -11.383,32.251Zm-498.931,-5.692l75.883,0c21.395,-3.896 46.446,-4.145 64.501,-11.382c21.533,-3.758 40.601,-9.99 51.221,-24.662c-4.906,-19.483 -35.77,-16.292 -53.118,-20.868c-28.648,-2.013 -57.734,-3.824 -7.589,-3.794c23.896,1.396 47.181,3.411 66.398,9.485c32.258,5.158 9.58,30.775 -7.588,34.148c-18.656,5.733 -39.535,12.528 -58.81,15.176c-19.834,5.458 -44.738,5.853 -68.294,7.589c-24.795,-0.498 -52.111,1.519 -73.986,-1.898c-18.905,-4.057 -47.636,-7.11 -45.53,-26.559c12.942,-11.447 32.605,-19.456 51.221,-22.765c18.692,-6.599 43.621,-6.969 64.5,-11.382c39.774,1.098 -27.257,3.088 -34.147,7.588c-20.555,4.737 -40.956,9.636 -56.912,18.971c-20.84,22.683 17.948,28.811 32.25,30.353Zm11.382,-9.485c23.691,-0.698 55.653,3.589 66.398,-7.588c19.885,-24.689 22.543,26.802 34.148,-9.486c-19.523,-17.796 -37.695,2.108 -51.222,7.589c-13.789,2.041 -64.538,3.957 -49.324,9.485Zm478.064,-0c7.799,0.871 41.307,-2.442 26.559,3.794c-9.209,7.446 -31.385,-2.658 -26.559,-3.794Zm-451.504,-15.177c29.949,6.849 39.69,-9.887 55.015,-15.176c17.754,1.496 71.144,-0.124 30.353,-5.692c-19.764,-4.403 -51.189,-3.577 -55.015,11.383c-23.122,-1.719 -48.044,-12.805 -30.353,9.485Zm459.092,-9.485c17.474,0.592 46.748,-9.92 28.456,-28.456c-11.938,-12.874 8.841,27.984 -24.662,20.868c-37.133,5.9 -3.511,-33.628 -13.279,-24.662c-21.906,3.727 -15.202,38.687 9.485,32.25Zm-326.297,-5.691c-9.468,27.024 -57.603,26.942 -89.163,34.147c-34.138,5.735 -80.872,2.766 -108.133,-9.485c10.682,-25.808 56.649,-27.897 89.163,-34.148c33.891,-6.556 83.365,-4.448 108.133,9.486Zm282.664,-47.427c41.408,-2.106 38.033,-17.453 -5.691,-7.589c-37.247,-21.528 -30.423,3.461 5.691,7.589Zm87.266,-1.897c37.52,-3.637 64.102,-15.458 24.662,-32.251c-4.838,-3.834 -22.602,-1.8 -24.662,0c0.207,-1.356 -28.703,27.225 -0,32.251Zm-94.854,-9.486c8.666,-0.529 20.211,1.372 15.177,-7.588c33.804,16.106 -0.329,-14.198 9.485,-11.382c-33.294,-13.307 -68.536,20.727 -24.662,18.97Zm102.442,0c23.494,-10.079 41.624,-10.84 11.383,1.897c-26.84,5.866 -41.78,-19.302 -11.383,-1.897Zm75.883,-13.279c16.436,5.598 33.666,-31.827 28.456,-11.383c7.412,22.799 -50.526,9.313 -28.456,11.383Zm-129.001,-3.794c16.508,0.138 17.045,-6.2 1.897,-3.795c-11.743,-14.489 -39.294,-33.441 -66.398,-18.97c-29.71,20.814 54.226,-7.729 64.501,22.765Zm20.868,-5.692c14.224,-17.599 62.655,-10.965 66.397,-13.279c-16.992,-17.567 -63.903,-10.656 -66.397,13.279Zm-17.074,-5.691c11.364,1.121 17.059,-7.759 17.074,-15.176c4.595,-65.448 -6.634,-14.265 -13.28,7.588c-8.628,-1.615 -7.178,-17.639 -9.485,-22.765c-3.861,-63.949 -15.196,34.902 5.691,30.353Zm-123.31,-13.279c1.603,34.695 -1.072,14.127 -11.382,-0c-33.785,-6.927 2.811,-13.898 11.382,-0Zm125.207,-0c4.796,-5.817 6.519,-33.359 0,-36.045c1.812,8.283 -3.817,28.058 0,36.045Zm-144.178,-15.177c-4.414,-6.397 -27.031,-30.306 -18.97,-64.501c-0.188,-27.822 9.935,-64.054 13.279,-60.706c0.26,19.386 -12.775,38.706 -5.691,66.398c-18.015,32.404 22.484,31.508 11.382,58.809Zm36.045,0c-11.441,16.455 -21.854,-51.773 -15.177,-79.677c5.082,-34.703 25.77,-56.252 47.427,-72.089c29.619,-18.664 -20.029,37.924 -28.456,47.427c-6.145,28.151 -15.448,76.96 -3.794,104.339Zm218.164,-24.662c-0.361,32.73 -8.215,-21.678 -18.971,-22.765c-8.251,-14.85 -32.655,-16.924 -45.53,-24.662c-25.924,-8.229 29.67,1.544 34.147,7.588c9.548,13.553 29.014,20.565 30.354,39.839Zm-246.62,-15.177c-0.571,28.762 -13.587,-27.964 -3.794,-37.941c1.919,-23.372 9.25,-41.341 20.867,-55.015c12.544,-12.747 27.635,-22.957 41.736,-34.148c-0.082,-24.47 46.97,-5.093 37.942,-36.044c-0.606,-20.369 21.846,30.585 -7.589,26.559c-17.309,7.983 -33.383,17.208 -45.53,30.353c-12.241,13.05 -27.128,23.463 -34.147,41.736c-6.881,17.508 -11.312,40.751 -9.485,64.5Zm125.207,-24.662c-5.701,-4.224 -44.978,-2.303 -58.81,1.898c-13.217,10.809 -24.155,23.905 -30.353,41.735c-4.411,-21.611 18.906,-27.213 24.662,-43.633c10.918,-17.622 -22.512,13.255 -22.765,20.868c-0.891,-11.265 0.406,-43.771 22.765,-41.735c26.136,2.037 41.506,-8.983 36.045,5.691c-6.82,-3.142 -67.699,6.245 -30.354,7.588c20.857,1.565 51.607,-8.772 58.81,7.588Zm110.03,0c0.662,-18.232 -42.733,-12.469 -58.809,-13.279c5.465,-2.62 -7.044,-4.517 -3.794,-5.691c30.787,-10.292 7.869,-0.937 24.662,-1.897c28.742,-2.186 50.752,2.369 45.529,34.147c-11.725,-4.502 -40.586,-34.273 -7.588,-13.28Zm-100.545,-11.382c21.373,-1.085 28.217,-23.882 13.28,1.897c-14.94,16.336 -31.266,-28.145 -13.28,-1.897Zm172.634,-1.897c2.009,36.528 -2.842,75.67 -24.662,92.957c-27.942,59.302 -19.733,-9.656 5.691,-17.074c10.14,-23.124 24.165,-54.279 9.486,-89.163c1.375,-11.982 5.795,-12.623 -3.794,-18.97c-4.309,-45.504 15.489,14.176 13.279,32.25Zm-39.839,-1.897c4.589,34.259 -1.551,84.782 -17.073,89.162c13.473,-27.103 6.137,-77.958 -0,-104.339c-1.233,-21.014 -54.752,-58.671 -30.353,-56.912c22.983,16.802 43.211,38.81 47.426,72.089Zm17.074,-0c3.95,6.294 0.761,24.059 1.897,30.353c-9.453,46.37 -10.305,31.547 -5.691,-7.588c-1.933,-39.799 -15.448,-68.028 -39.839,-85.369c-5.691,-4.553 -11.382,-13.435 -17.073,-15.176c-43.918,-20.629 -1.474,-19.284 13.279,-0c20.771,20.959 45.739,37.736 47.427,77.78Zm-163.148,-1.897c-12.348,-8.503 -53.47,-28.904 -75.883,-13.28c18.225,-25.043 66.763,-1.711 75.883,13.28Zm111.927,-7.589c-2.034,-1.586 -20.172,-0.578 -34.147,0c9.586,-6.986 24.368,-5.059 34.147,0Zm1.897,-5.691c-11.75,-12.608 -60.951,-1.18 -75.883,15.177c7.522,-19.102 58.259,-38.701 75.883,-15.177Zm-123.31,-7.588c-3.325,6.977 -45.101,-24.522 -62.603,-1.897c10.172,-26.368 51.864,-12.515 62.603,1.897Zm36.045,-3.794c9.419,16.14 -9.897,24.931 -15.177,13.279c-9.218,-13.702 11.106,-25.347 15.177,-13.279Zm81.574,-3.794c-13.644,-9.85 -56.036,6.814 -62.604,7.588c11.859,-12.107 48.285,-27.136 62.604,-7.588Zm-132.795,-15.177c22.654,-1.853 49.817,-7.45 73.986,-1.897c31.827,-2.817 45.192,-2.567 9.485,7.588c-16.598,7.884 -48.383,-8.385 -68.295,3.794c-18.481,-4.401 -56.567,-20.327 -15.176,-9.485Zm182.119,-0c-2.191,7.179 -16.871,-28.282 -28.456,-30.353c4.115,-7.985 21.875,21.943 28.456,30.353Zm-199.193,-13.28c11.834,-11.268 38.588,-10.989 53.118,-17.073c40.066,-3.631 10.019,3.959 41.736,5.691c24.421,12.699 35.889,9.512 11.382,-5.691c-39.074,-6.196 28.06,-10.789 17.074,11.382c0.239,20.602 -40.909,0.55 -49.324,5.691c-22.071,5.995 -45.761,-5.583 -58.809,0c-27.677,15.955 -17.797,-18.959 -1.898,-22.764c34.73,-2.12 -20.416,5.566 -13.279,22.764Zm-73.986,-3.794c3.067,6.551 -10.37,10.878 -20.868,9.486c4.43,-4.677 12.335,-14.536 20.868,-9.486Zm280.767,-13.279c1.186,-0.302 -34.777,7.947 -22.765,-11.383c0.344,-12.972 13.623,10.451 22.765,11.383Zm-269.385,-5.691c4.35,9.891 -16.182,8.138 -22.765,3.794c7.114,0.195 22.403,-14.128 22.765,-3.794Zm98.648,-9.486c18.265,1.48 99.568,-5.763 49.324,3.794c-15.396,7.797 -96.597,-4.342 -49.324,-3.794Zm106.237,-3.794c-4.762,1.193 -57.825,-2.946 -43.633,-22.765c-2.203,-5.871 24.07,25.888 43.633,22.765Zm39.838,-3.794c6.957,6.926 -29.626,10.227 -22.765,-5.691c1.59,-21.346 9.013,13.503 22.765,5.691Zm-87.265,-3.794c-10.508,5.634 -54.291,11.01 -66.398,-1.897c1.778,-4.405 50.354,-1.583 66.398,1.897Zm-136.59,-1.897c10.537,11.919 -15.512,15.48 -18.971,7.588c-0.104,-0.433 21.447,-10.32 18.971,-7.588Zm7.589,-9.486c16.294,1.45 21.896,-23.782 18.97,3.794c-5.317,15.57 -31.493,-7.91 -18.97,-3.794Zm180.222,0c24.279,-5.224 -2.368,16.643 -7.589,3.794c-7.248,-13.896 2.095,-18.462 7.589,-3.794Zm-113.825,-17.073c6.067,-4.051 0.708,-19.529 7.589,-22.765c9.815,44.165 -23.274,22.491 -22.765,-1.897c-6.39,-19.311 5.797,-56.976 34.147,-64.501c19.637,-10.644 52.469,20.054 55.015,45.53c-6.742,3.989 -0.89,16.25 0,20.868c-4.135,43.001 -41.942,2.906 -15.176,9.485c1.39,-23.49 -39.418,-85.151 -5.692,-45.53c19.686,50.76 8.154,-43.481 -30.353,-22.765c-10.95,-0.834 -16.254,3.982 -20.868,9.486c-17.127,38.231 -1.627,30.216 7.589,1.897c23.036,-0.653 -25.656,40.508 -9.486,70.192Zm43.633,-0c1.865,20.052 -24.774,-21.8 -28.456,11.382c-18.282,-20.79 29.509,-43.333 28.456,-11.382Zm-20.868,-28.457c19.312,-3.151 27.206,-23.421 17.074,5.692c-27.821,13.664 -27.741,-33.592 -17.074,-5.692Zm9.485,-13.279c2.852,24.112 -16.117,1.673 -5.691,-13.28c-1.69,-29.943 10.857,6.608 5.691,13.28Z" style="fill:#a98ad1;fill-rule:nonzero;"/></g></svg>