<?xml version="1.0" encoding="UTF-8" standalone="no"?><!DOCTYPE svg PUBLIC "-//W3C//DTD SVG 1.1//EN" "http://www.w3.org/Graphics/SVG/1.1/DTD/svg11.dtd"><svg width="100%" height="100%" viewBox="0 0 5000 2500" version="1.1" xmlns="http://www.w3.org/2000/svg" xmlns:xlink="http://www.w3.org/1999/xlink" xml:space="preserve" xmlns:serif="http://www.serif.com/" style="fill-rule:evenodd;clip-rule:evenodd;stroke-linejoin:round;stroke-miterlimit:2;"><g id="Layer1"><path d="M1038.34,2382.83c20.462,-4.742 58.918,4.876 58.81,-22.765c14.137,-13.678 22.653,-32.99 26.559,-56.912c13.414,-12.274 32.626,-27.242 22.765,-56.912c5.778,-17.017 16.001,-37.505 13.279,-1.897c2.347,25.477 36.132,19.521 56.912,26.559c21.805,-7.57 46.89,-17.017 56.913,7.588c18.107,4.819 26.974,38.833 13.279,55.015c7.928,15.613 -33.937,26.996 -41.735,26.559c22.178,8.215 42.077,-8.631 56.912,-18.97c-3.367,-23.714 6.569,-55.471 -17.074,-62.604c-25.28,-12.255 -17.062,-28.779 -17.074,-51.221c4.419,-8.973 17.442,-34.66 17.074,-58.809c18.015,-7.684 25.899,-33.958 20.868,-58.81c11.646,-16.182 2.635,-53.023 15.177,-68.294c10.413,-17.416 15.624,-40.029 13.279,-70.192c1.417,-26.408 11.259,-44.392 13.28,-70.192c6.289,-21.961 2.923,-56.607 3.794,-81.574c-6.198,-44.252 11.471,-30.257 9.485,5.691c-0.907,27.517 42.352,19.414 56.913,11.382c21.41,-6.41 48.233,-7.417 64.5,-18.971c15.397,-12.277 8.852,-50.01 3.794,-68.294c-19.663,-35.157 19.345,-29.974 30.354,-45.53c3.388,-24.636 -10.607,-42.965 -11.383,-68.295c-9.499,-23.459 7.139,-44.018 7.588,-68.295c-11.568,-22.599 -4.991,-43.566 1.897,-66.397c-4.16,-8.585 -1.61,-67.092 -9.485,-55.016c-4.462,26.404 11.288,56.317 -1.897,70.192c-0.552,-50.608 -9.675,23.306 -3.794,34.148c20.46,38.283 -11.096,12.082 -7.588,-15.177c-26.188,-0.666 -66.842,-5.479 -17.074,-9.485c35.039,12.217 17.724,-33.154 15.176,-49.324c-6.302,-26.258 3.937,-50.248 9.486,-70.192c5.862,-22.386 5.285,-54.245 39.838,-45.53c36.787,-8.964 25.11,30.541 30.354,53.118c-1.776,17.58 20.067,58.419 7.588,53.118c-28.206,-0.383 -14.52,41.131 -32.25,51.221c0.878,-21.915 13.82,-33.783 -3.795,-56.912c0.655,-40.404 -9.441,33.03 -11.382,30.353c14.418,28.392 -16.876,33.825 -18.971,56.913c6.454,-14.796 30.257,-23.315 49.324,-30.354c26.696,6.769 28.855,-40.633 37.942,-30.353c2.971,24.85 2.134,53.517 7.588,75.883c18.036,38.947 12.405,3.371 7.588,-22.765c3.341,-23.874 4.189,-57.424 -9.485,-70.192c-19.845,-7.977 -18.785,-36.865 -24.662,-58.809c-8.715,-25.802 8.567,-54.18 -3.794,-72.089c-11.299,-16.521 -6.242,-49.407 -18.971,-64.5c-14.179,-13.642 -13.801,-41.85 -20.868,-62.604c-5.469,-22.78 -15.886,-43.644 -22.765,-62.603c-10.102,-17.719 -15.402,-40.247 -30.353,-53.119c-17.02,-28.091 -16.726,-25.737 11.383,-37.941c18.439,-9.381 23.85,-31.801 37.941,-45.53c15.48,-12.34 20.646,-35.005 30.353,-53.118c12.42,-15.401 18.8,-36.849 30.354,-53.118c7.093,-20.728 12.534,-43.117 20.867,-62.604c27.32,-17.865 -12.583,-39.979 7.589,-56.912c1.216,-44.071 18.339,-8.7 30.353,3.794c27.927,-1.275 2.865,-39.195 -1.897,-51.221c-11.089,-24.677 9.055,-43.766 -3.794,-68.295c-1.254,-25.834 7.671,-56.576 -26.559,-53.118c-13.523,-16.639 -48.892,-7.732 -62.604,1.897c-15.581,10.523 -35.997,22.431 -39.838,39.839c-11.011,-21.615 35.092,-38.572 18.97,-41.736c18.127,-9.694 34.356,-21.295 64.501,-18.971c32.535,8.448 -27.42,-22.618 -37.942,-1.897c-16.229,7.501 -52.666,28.845 -20.868,1.897c31.099,-12.49 42.442,-7.561 3.795,-18.97c-12.25,-36.161 -46.964,30.277 -22.765,7.588c34.91,-15.531 -8.173,14.797 -5.691,32.25c-12.208,17.673 -7.591,49.466 1.897,66.398c-4.726,18.699 -1.577,52.278 5.691,70.192c23.812,17.83 5.217,33.366 -0,56.912c-18.18,9.641 -17.787,37.864 -41.736,41.736c9.229,22.611 -16.07,36.037 -26.559,49.324c-15.214,12.118 -31.558,45.283 -17.074,1.897c1.063,-26.758 6.576,-49.076 5.692,-77.78c-10.854,-35.081 21.704,15.8 11.382,30.353c-20.638,38.105 7.272,8.258 11.383,-11.383c-16.818,-30.514 14.33,-28.439 7.588,-64.5c-2.501,-39.014 -1.102,49.29 -20.868,20.868c7.649,-17.197 18.844,-55.069 -7.588,-58.81c-23.828,12.087 13.727,-59.665 -9.486,-20.868c-28.856,42.888 7.253,-24.119 -5.691,-5.691c7.89,23.79 -66.678,19.923 -26.559,11.383c22.122,-1.313 15.438,-55.052 -9.485,-47.427c-29.067,38.277 23.279,-7.401 1.897,28.456c-28.798,15.416 -31.628,-20.479 -41.736,-34.147c11.963,-43.664 -8.986,27.177 -11.382,-22.765c1.329,24.271 -20.201,15.163 -17.074,-17.074c-6.139,-13.149 -59.532,-23.501 -11.383,-26.559c47.547,-11.276 13.21,26.005 22.765,26.559c25.218,-4.405 16.404,-48.07 -15.176,-37.942c-21.335,14.247 -46.562,-18.642 -32.251,-24.662c3.863,33.398 53.959,0.05 24.662,-17.073c2.854,39.742 -27.799,10.775 -17.073,-17.074c-0.26,5.642 29.958,-52.993 5.691,-17.074c-46.687,0.052 -4.16,-2.343 1.897,-22.765c3.517,-24.305 17.339,-38.311 22.765,-60.706c3.449,-22.738 0.478,-54.488 1.897,-70.192c-1.948,-6.044 -9.643,-37.577 -17.074,-55.015c-11.934,-15.886 -23.662,-31.989 -39.838,-43.633c-15.594,-12.227 -42.85,-12.801 -56.913,-26.559c4.591,-15.622 7.291,-45.864 -5.691,-62.603c-11.492,-16.328 -30.302,-25.349 -47.427,-36.045c-11.132,-44.754 -8.421,-5.043 -26.559,7.588c-20.143,0.39 -32.045,21.189 -43.633,36.045c-16.257,13.663 5.246,60.515 -1.897,55.015c-15.155,12.665 -41.045,14.604 -56.912,26.559c-13.78,14.04 -30.279,25.37 -37.941,45.53c-14.081,19.701 -11.189,29.809 -20.868,55.015c5.807,25.761 -0.884,49.558 5.691,73.986c9.851,17.971 13.006,42.645 34.147,49.324c19.944,30.985 -36.27,49.18 -17.073,22.765c-1.641,-18.589 -28.364,26.569 5.691,28.456c-11.436,28.371 -57.381,-18.625 -28.456,13.28c27.541,7.789 40.333,-20.069 37.941,26.559c-28.913,38.668 -4.105,-9.618 -18.971,-0c-18.542,12.464 -1.857,46.252 -22.764,56.912c-46.464,18.914 16.33,-31.74 -22.765,-11.382c-27.999,29.826 33.077,28.985 20.867,28.456c-18.727,26.337 -46.374,-36.062 -34.147,3.794c6.276,22.188 68.705,-13.858 34.147,11.382c-28.831,-1.009 -32.274,23.376 -53.118,30.354c-26.889,-32.046 32.289,3.521 -5.691,-24.662c-28.839,6.044 12.329,60.932 -15.177,22.765c9.27,-35.25 -3.293,-37.103 -3.794,-0c3.11,20.9 54.084,16.694 11.383,30.353c-25.047,-10.047 -34.203,-30.628 -17.074,5.691c16.749,8.323 -48.163,2.576 -43.633,22.765c-3.97,10.115 -14.224,67.041 -26.559,30.353c10.41,-28.382 -35.164,25.715 5.692,24.662c30.028,-6.401 -12.961,52.758 7.588,37.942c10.384,-44.386 11.158,-12.291 5.691,17.073c-5.818,15.547 0.816,70.697 -3.794,53.119c-10.92,-16.902 -26.085,-29.566 -39.839,-43.633c-15.33,-12.491 -13.052,-42.599 -32.25,-51.221c-19.764,-8.057 -19.978,-35.673 -32.25,-51.221c2.223,-19.024 17.637,-35.935 18.97,-60.707c6.278,-21.545 2.78,-52.869 3.795,-79.677c-7.279,-8.637 29.89,-8.349 49.324,-15.177c24.88,-2.942 44.856,-10.794 66.397,-17.073c23.657,-9.076 18.996,-38.934 -7.588,-41.736c-23.898,-3.923 -46.45,-9.199 -75.883,-7.588c-28.904,-1.082 -54.036,1.612 -79.677,3.794c-26.233,2.015 -52.39,7.14 -73.986,11.382c-19.764,8.057 -42.967,12.684 -51.221,32.251c4.65,23.171 33.102,22.548 55.015,28.456c24.14,2.299 55.656,3.487 79.677,-0c29.847,37.738 -14.217,-14.57 -17.074,20.868c-1.944,24.339 22.595,43.399 5.692,66.397c-1.175,39.463 6.749,37.005 9.485,-1.897c13.879,-27.794 -11.134,-41.163 -7.588,-64.5c13.871,38.408 -1.471,-44.773 13.279,9.485c9.967,16.137 31.845,26.584 20.868,58.809c0.4,26.504 -19.716,38.712 -18.971,60.707c6.646,24.133 -22.51,35.545 -47.427,28.456c-12.664,-13.439 -24.259,-34.168 -20.867,-58.809c12.382,-34.478 22.423,-10.442 13.279,20.867c10.242,31.054 0.668,-38.945 17.074,-39.838c13.387,-11.832 37.063,-28.803 13.279,-47.427c7.444,46.226 -9.373,5.735 -7.588,-17.074c10.857,-43.521 -17.466,10.848 -5.691,28.456c1.225,46.116 -11.157,12.073 -13.28,-13.279c15.441,-32.877 -1.766,-26.741 -7.588,-0c19.234,38.951 -10.939,23.882 7.588,41.736c-11.141,9.758 -28.234,-32.137 -13.279,-47.427c-21.532,-5.274 -13.329,41.967 -3.794,53.118c-14.183,15.083 -10.398,48.478 -0,64.5c-20.077,17.903 -1.681,41.319 7.588,56.913c6.268,21.552 7.34,48.311 22.765,60.706c5.983,21.837 21.757,33.893 28.456,55.015c5.665,22.156 20.877,34.774 32.25,51.221c12.794,15.029 22.596,33.055 37.942,45.53c6.012,6.938 56.072,33.59 32.25,9.486c-13.023,-2.444 -43.352,-34.419 -32.25,-28.457c3.371,15.403 67.418,18.434 24.662,5.692c-23.513,6.171 -48.211,-39.776 -24.662,-18.971c17.77,5.961 70.933,10.58 24.662,-1.897c-50.702,-3.237 -16.962,-10.671 9.485,-5.691c-6.133,-8.543 -46.129,-5.365 -58.809,-17.074c-21.219,-6.604 -27.84,-27.809 -39.839,-43.633c-15.307,-24.032 24.072,15.623 43.633,1.897c-21.357,-6.463 -42.254,-13.397 -56.912,-26.559c-3.298,1.524 54.818,13.257 41.735,0c-29.744,2.411 -62.871,-13.968 -13.279,-5.691c50.743,-9.372 -22.519,-1.922 -30.353,-11.383c-19.886,-13.822 49.399,11.853 39.838,-5.691c-28.834,1.013 -53.313,-2.337 -55.015,-28.456c-0.977,-8.721 39.994,-0.766 37.941,22.765c5.895,-18.417 8.289,-55.066 28.457,-47.427c37.419,-7.123 22.651,34.946 13.279,47.427c-3.862,13.968 -19.674,67.957 -1.897,28.456c12.936,-7.027 18.4,-58.28 28.456,-37.941c14.839,13.932 13.549,47.032 -5.691,55.015c16.656,7.406 32.322,-29.515 18.971,-45.53c-19.724,-23.88 21.234,12.202 20.868,24.662c-1.442,36.466 11.181,35.124 17.073,58.809c3.094,24.344 -4.185,49.387 -11.382,68.295c-6.149,15.691 -16.668,35.5 -26.559,53.118c-9.911,17.911 -21.242,34.409 -30.353,53.118c-9.769,18.055 -17.33,38.321 -26.56,56.913c-5.85,21.657 -25.236,32.601 -20.867,58.809c-22.426,35.437 -0.57,7.81 20.867,1.897c31.329,-13.668 23.6,38.281 22.765,41.736c-6.905,-24.049 63.941,-17.527 34.148,-7.588c-14.027,9.02 -26.421,39.7 -49.324,22.764c-21.87,0.539 -54.061,-14.837 -68.295,0c-3.045,50.605 -12.403,-0.88 -13.28,-5.691c18.903,-8.224 28.254,-46.233 -3.794,-39.838c-15.013,10.722 -9.705,49.576 0,60.706c16.031,17.666 0.757,45.581 -7.588,60.707c-12.549,13.565 -20.894,41.041 -9.485,62.603c14.362,10.294 -8.545,-40.596 11.382,-49.324c9.745,-23.977 21.056,-28.475 24.662,-51.221c-0.791,-24.764 17.546,-45.092 45.53,-30.353c34.599,2.219 7.531,28.232 18.971,53.118c4.122,24.654 2.454,55.69 -9.486,70.192c-1.472,31.334 -25.341,37.659 -15.176,-0c11.807,-6.023 11.911,-75.722 1.897,-28.456c-4.001,23.819 -17.089,38.561 -11.383,72.088c5.893,37.712 -16.671,-16.764 -18.97,-26.559c21.311,-26.598 16.559,1.503 5.691,-39.838c-2.275,-55.23 -6.399,10.77 -11.383,22.765c3.354,-27.971 -15.412,-14.919 -3.794,15.176c-14.765,21.496 -7.803,-42.185 -9.485,-53.118c-6.132,17.332 -12.312,54.35 -1.897,66.398c21.685,6.135 30.526,25.125 41.735,41.736c8.983,18.838 11.447,44.203 17.074,66.397c10.844,20.069 7.645,47.355 1.897,70.192c4.76,21.803 49.552,10.838 43.633,32.25c-18.263,49.045 4.225,-11.061 -20.868,-9.485c-4.589,11.4 8.099,41.929 9.485,62.604c8.714,19.109 11.92,43.731 17.074,66.397c7.64,20.183 11.451,44.2 15.177,68.295c22.958,19.502 -21.891,46.573 17.073,47.427c24.067,-10.757 68.525,2.352 20.868,9.485c-10.109,-12.35 -45.803,16.106 -34.147,26.559c12.843,5.9 82.612,-4.097 41.736,7.589c-40.078,-12.407 2.475,30.505 -34.148,34.147c3.975,23.6 4.026,22.12 -18.971,41.736c-10.136,18.117 -23.104,36.424 -20.867,64.5c-0.095,27.906 16.368,39.289 30.353,53.118c18.062,9.751 36.651,19.009 56.912,26.559c32.446,3.396 42.339,9.182 26.559,34.148c14.547,13.279 27.525,28.133 37.942,45.53c13.884,35.494 14.763,23.903 13.279,-17.074c-1.724,-21.266 21.198,-60.156 -15.176,-56.912c10.244,-0.019 18.183,27.659 7.588,53.118c-5.467,21.949 -20.126,-24.15 -22.765,-37.942c-5.473,-26.729 33.396,-20.185 41.736,-37.941c15.277,-12.54 19.739,-35.912 32.25,-51.221c8.239,-8.822 -12.34,32.895 -11.382,49.324c-1.59,29.404 0.521,55.129 20.867,62.603c20.804,1.252 51.933,20.697 18.971,34.148c-23.138,6.374 -17.705,38.852 -18.971,56.912c-1.921,23.163 22.547,31.017 45.53,34.147Zm180.222,-15.176c32.222,6.924 27.466,-33.408 13.28,-43.633c-10.369,-31.814 -18.159,-30.202 -9.485,1.897c-43.25,22.272 33.25,21.873 3.794,30.353c-26.155,0.474 -25.865,-28.684 -39.839,-37.941c-3.874,-22.689 -13.826,-39.289 -26.559,-53.118c-5.934,-41.49 -11.885,-24.757 -3.794,7.588c14.518,12.046 17.117,36.006 24.662,55.015c15.366,10.301 17.153,37.391 37.941,39.839Zm37.942,-15.177c25.853,-4.06 -6.865,-39.839 -9.485,-55.015c-17.446,2.466 17.007,35.798 9.485,55.015Zm17.074,-5.691c31.068,-15.063 2.426,-40.142 -9.486,-55.015c-6.765,8.65 30.008,34.678 9.486,55.015Zm-225.752,-60.707c-2.588,-11.022 11.079,-42.684 9.485,-1.897c20.316,3.87 47.285,-3.32 60.706,-9.485c14.024,-3.282 35.049,-43.348 22.765,-3.794c-7.116,17.263 -29.567,22.499 -28.456,45.53c-0.732,24.567 -24.309,26.274 -28.456,47.427c-11.05,27.355 -55.628,-9.96 -7.588,-1.898c4.346,-12.938 -23.357,-30.979 -13.28,-39.838c-3.684,20.697 -18.68,33.388 -22.765,51.221c-3.367,-0.987 -18.786,2.049 -13.279,-1.897c34.121,-2.694 -8.26,-22.025 9.485,-24.662c11.57,-16.163 26.637,-39.251 1.897,-15.177c-8.296,26.464 -28.023,25.118 -11.382,-3.794c31.69,-22.366 -15.998,-11.724 -11.383,9.485c-12.953,36.899 -16.939,-25.06 3.794,-22.764c29.274,-23.809 -1.445,-11.649 -11.382,1.897c-21.919,21.968 2.405,-23.904 15.177,-22.765c16.874,-18.459 13.355,-37.126 24.662,-7.589Zm20.867,-5.691c-6.537,12.805 -13.841,-24.605 1.898,-22.765c20.913,-6.677 -16.797,10.131 -1.898,22.765Zm15.177,-3.794c-24.11,-10.605 10.552,-28.342 28.456,-39.839c18.11,-0.986 43.235,-56.798 41.736,-34.147c-4.798,30.619 -34.479,36.348 -51.221,55.015c-6.266,2.922 -3.168,15.67 -5.691,17.074c-1.419,-20.185 -3.167,-30.239 -13.28,1.897Zm-157.457,-9.485c3.354,-7.209 7.486,-26.18 3.794,-32.251c-5.858,9.391 -5.268,22.177 -3.794,32.251Zm87.265,-18.971c24.897,2.144 40.393,-5.141 56.913,-11.383c22.768,-16.125 -18.941,4.269 -30.354,3.795c-37.537,3.187 -26.031,-2.846 1.897,-5.692c20.107,-1.707 35.343,-11.762 45.53,-20.868c15.852,-6.905 23.719,-21.816 32.251,-36.044c6.013,-9.011 24.098,-46.099 15.176,-13.28c1.199,15.955 -14.3,29.728 -22.765,41.736c-7.082,25.174 21.265,-5.615 22.765,-13.279c12.141,-10.624 17.791,-27.736 22.765,-45.53c0.15,-11.269 16.231,-54.408 1.897,-36.045c-0.687,22.082 -5.135,40.389 -11.382,56.913c-4.709,7.171 -29.682,41.792 -17.074,18.97c9.614,-13.146 17.076,-28.456 17.074,-51.221c0.618,-21.19 5.761,-41.337 11.382,-55.015c3.085,-19.673 8.619,-36.917 11.383,-56.912c0.571,-19.18 -0.708,-41.774 5.691,-56.912c2.06,-20.698 2.525,-43.007 5.691,-62.604c3.265,-19.502 0.25,-45.281 3.794,-64.501c6.116,-16.645 3.104,-42.428 3.794,-64.5c-6.531,-28.352 -0.813,-40.878 28.456,-34.148c2.582,20.182 4.724,40.808 3.795,64.501c1.849,23.662 -3.408,43.69 -1.897,64.501c-4.024,18.743 -3.759,41.773 -7.589,60.706c-1.802,20.014 -5.695,41.394 -5.691,60.707c-2.44,20.317 -4.536,40.995 -9.485,58.809c-2.351,20.412 -8.181,37.353 -13.28,55.015c-7.211,15.556 -10.388,35.153 -18.971,49.324c-6.459,15.347 -15.078,32.023 -24.662,41.736c-6.404,16.353 -23.89,21.645 -34.147,34.147c-15.184,6.621 -27.834,19.255 -45.53,20.868c-14.827,6.583 -46.129,4.61 -58.809,-1.897c-26.667,-19.768 -3.123,-10.491 11.382,-1.897Zm178.325,-18.971c18.307,1.707 -36.975,-19.711 -13.279,-53.118c-0.573,-62.85 6.765,17.586 37.941,1.897c27.535,-0.683 -46.332,-5.672 -26.559,-39.839c-0.954,-20.488 12.493,-88.954 11.383,-36.044c0.182,22.746 50.997,50.235 17.073,18.971c-14.311,-17.321 -18.086,-68.048 -5.691,-37.942c-2.658,29.215 80.315,10.017 36.045,11.383c-28.487,4.647 -41.442,-34.736 -36.045,-43.633c0.061,25.572 52.035,46.687 15.177,17.074c-14.253,-14.76 -18.622,-76.13 -1.897,-26.559c53.746,16.466 2.872,-2.41 -5.691,-18.971c-12.261,-53.422 -0.812,-13.545 17.073,1.897c13.12,19.71 79.008,10.491 20.868,3.794c-22.905,-7.645 -39,-30.505 -37.941,-55.015c8.064,24.036 25.456,41.565 47.426,49.324c31.921,-2.296 51.373,3.168 55.016,-32.251c14.008,-20.678 -2.702,47.408 -13.28,49.324c-7.442,20.489 -38.099,36.823 -64.5,24.662c-21.843,5.009 44.807,25.042 51.221,3.795c21.67,1.897 -59.472,30.732 -15.177,28.456c22.156,-14.039 34.407,-51.126 18.971,-1.897c-11.709,20.393 -25.846,41.166 -43.633,53.118c-29.118,17.51 -54.894,-33.085 -53.118,-17.074c7.34,21.304 37.727,33.559 62.603,20.868c29.291,-36.86 21.149,-6.943 3.795,9.485c23.222,-9.163 39.887,-50.898 18.97,-5.691c-16.677,15.423 -27.731,39.289 -64.5,32.25c-46.42,-17.32 -30.261,8.215 7.588,7.589c38.869,-1.139 55.933,-24.359 30.353,13.279c-6.658,23.884 -32.136,37.373 -62.603,30.353c-29.329,-0.493 -43.72,-27.147 -36.045,-56.912c5.215,-10.206 0.175,54.162 28.456,47.427Zm-174.531,-1.897c-15.301,20.014 -49.614,-38.871 -28.456,-20.868c14.938,17.984 47.262,20.109 70.192,9.486c16.679,-14.93 40.998,-22.234 45.53,-49.324c21.655,-9.163 14.543,-49.969 32.25,-60.707c4.348,-30.22 13.502,-46.725 13.28,-77.78c3.855,-25.345 8.802,-52.264 11.382,-73.986c4.443,-25.459 2.825,-51.752 7.589,-75.883c-8.579,-26.866 6.911,-46.141 1.897,-75.883c18.088,-14.522 -10.18,-76.794 11.382,-34.147c-5.648,29.533 1.874,57.752 -7.588,83.471c4.699,25.178 -2.901,53.118 -3.794,79.677c1.439,26.483 -8.951,54.598 -7.589,77.78c-11.086,24.435 -4.828,51.715 -15.176,75.883c0.635,31.454 -21.215,43.311 -22.765,70.192c-15.818,15.803 -21.526,41.717 -43.633,51.221c-10.075,16.657 -46.676,26.085 -64.501,20.868Zm-7.588,-18.971c32.67,1.063 51.196,-12.046 68.295,-26.559c6.144,-23.751 36.587,-32.667 30.353,-55.015c21.957,-15.158 7.668,-40.522 24.662,-62.604c-7.292,-29.708 16.721,-50.424 5.691,-75.883c10.897,-21.057 1.391,-56.722 11.383,-75.883c0.521,-28.266 7.154,-49.952 3.794,-77.78c5.839,-5.509 -1.271,-59.591 7.588,-55.015c-38.15,-22.93 30.05,-57.017 13.28,-34.147c-8.535,14.438 -0.137,42.488 -9.486,66.397c-6.617,22.944 -1.024,53.255 -7.588,73.986c8.988,28.172 -11.606,50.216 -1.897,77.78c-13.276,21.115 -0.415,56.742 -15.177,73.986c5.97,33.18 -15.482,44.088 -13.279,73.986c-16.719,16.998 -9.812,47.01 -32.25,56.913c-4.954,25.857 -30.439,34.071 -51.222,41.735c-13.029,19.085 -77.59,-17.737 -34.147,-1.897Zm-11.382,-15.176c39.013,12.369 79.584,-39.877 77.78,-22.765c-6.545,23.41 -78.122,39.193 -77.78,22.765Zm-130.899,-7.589c36.424,-1.517 68.124,-7.759 87.266,-26.559c44.543,-35.494 4.323,16.106 -17.074,20.868c-17.775,16.543 -61.661,20.773 -92.957,13.28c-53.355,-22.12 -21.755,-10.7 22.765,-7.589Zm129.002,-7.588l30.353,0c-0.922,9.979 -58.5,-26.407 -28.456,-13.28c32.645,15.196 70.848,-1.745 85.368,-20.867c27.087,-22.177 -20.154,34.83 -39.839,32.25c-9.906,0.209 -10.547,9.694 -18.97,11.382c-35.462,20.09 -48.406,-45.245 -28.456,-9.485Zm-151.767,-9.485c-6.969,2.333 -13.681,-19.237 -20.867,-24.662c15.203,-21.399 17.99,10.68 20.867,24.662Zm7.589,-7.589c-20.874,-17.472 22.844,-43.557 17.073,3.794c-13.23,29.234 -15.243,-67.744 -17.073,-3.794Zm26.559,0c-28.214,-13.165 24.853,-54.541 18.971,-3.794c-1.226,54.181 -25.192,-54.18 -18.971,3.794Zm138.486,-3.794c37.811,3.662 48.108,-20.185 66.398,-36.044c8.947,-12.73 31.129,-63.856 11.383,-56.913c-2.945,14.968 -51.893,45.739 -32.251,39.839c19.225,1.214 46.968,-62.338 30.353,-17.074c-9.051,25.099 -24.536,43.766 -47.426,55.016c-23.928,29.86 -69.052,-34.679 -34.148,-7.589c30.976,15.253 67.138,-28.19 17.074,-1.897c-36.386,-21.076 -32.683,-22.822 11.382,-13.279c46.456,-19.199 -33.825,7.019 -39.838,-17.074c11.02,7 58.968,5.824 66.397,-17.074c14.634,-19.502 26.053,-42.248 30.354,-72.089c13.839,-18.022 29.452,-42.494 36.044,-60.706c-0.931,27.185 -10.248,56.002 -18.971,75.883c-6.903,27.242 -0.781,67.517 -18.97,83.471c-10.556,23.581 -22.162,46.137 -51.222,51.221c-30.119,22.424 -70.203,-32.857 -26.559,-5.691Zm-197.296,-3.794c9.076,13.45 -13.626,22.367 -5.691,7.588c-7.776,-15.954 6.099,-26.767 5.691,-7.588Zm-22.764,-7.588c1.781,21.968 -22.394,2.656 -13.28,-28.456c1.656,-13.697 1.055,5.843 9.485,1.897c29.79,6.924 -19.798,8.138 3.795,26.559Zm123.309,-0c7.94,22.063 -12.05,42.077 -9.485,9.485c-17.793,-17.605 6.283,-41.679 9.485,-9.485Zm24.662,-0c-5.29,1.214 -22.501,-52.056 -64.5,-18.971c-24.249,12.426 -108.281,-8.48 -34.147,-1.897c38.66,-1.707 70.451,-9.808 98.647,-11.383c6.132,3.984 7.469,12.768 9.486,20.868c-5.257,59.891 -6.13,-49.343 -9.486,11.383Zm22.765,-18.971c3.574,67.137 -27.12,-35.134 3.795,-28.456c4.716,4.268 7.246,15.082 7.588,20.868c-4.494,51.259 -11.641,-55.547 -11.383,7.588Zm261.797,-1.897c22.854,-9.694 1.836,-18.288 -11.383,-26.559c-11.907,-17.264 6.792,21.266 11.383,26.559Zm-373.724,-7.588c15.068,-18.592 22.163,9.409 13.279,-28.457c18.7,-14.835 11.058,51.392 17.074,5.692c3.026,-12.521 5.06,8.916 5.691,7.588c26.087,21.892 -11.587,-23.903 5.692,-11.382c24.432,36.253 6.774,-21.001 5.691,-9.486c22.363,21.001 18.557,24.359 15.176,-7.588c23.112,-11.022 13.183,43.652 -9.485,36.044c-18.46,8.101 -44.853,8.272 -70.192,9.486c-18.732,-2.789 -57.724,-6.261 -51.221,-15.177c-0.495,-13.564 34.504,-44.145 28.456,-24.662c-19.141,8.992 -37.63,29.5 1.897,28.456c-4.363,-15.935 31.723,-17.339 26.559,-45.53c-0.624,18.402 -24.817,27.698 -41.735,32.251c-16.448,-1.841 42.481,-8.879 22.765,-30.354c-34.652,1.271 10.97,-20.716 32.25,-13.279c22.351,-4.212 42.826,-10.301 55.015,-24.662c17.265,-36.291 -42.198,-10.32 -34.147,-39.839c19.473,-16.485 14.56,-37.201 -9.486,-43.632c26.901,-25.326 -17.904,-26.218 -15.176,-49.324c-5.623,-20.935 -15.962,-37.158 -18.971,-60.707c-11.978,-20.634 34.969,2.47 47.427,1.897c18.808,7.748 51.329,1.791 43.633,36.045c0.36,22.328 15.358,46.592 1.897,66.397c-14.426,20.773 0.324,45.265 7.588,60.707c6.192,37.429 8.383,37.296 -18.971,28.456c32.808,12.995 16.592,8.309 1.897,20.868c-24.608,-9.808 -25.001,32.345 5.692,9.485c2.893,-28.873 56.775,5.312 34.147,-3.794c-20.13,-2.39 -39.711,13.09 -53.118,20.868c-18.256,-30.96 -11.842,-21.836 -20.868,9.485c-32.377,21.684 -25.643,-43.082 -32.25,-13.279c-3.796,15.613 -34.411,37.429 -5.691,43.632c-11.138,-30.239 27.367,-30.372 9.485,3.795Zm134.692,-18.971c-1.305,83.983 -1.963,-53.232 -39.838,-1.897c10.819,-9.372 19.896,-56.059 39.838,1.897Zm26.559,-9.486c24.08,1.309 35.491,-10.035 43.633,-24.662c10.309,-12.463 12.041,-33.483 20.868,-47.426c17.161,-5.123 -3.51,31.017 -5.691,39.838c-9.305,13.45 -16.034,29.5 -32.251,36.045c-14.271,10.263 -41.623,4.799 -47.426,-9.486c-5.806,-16.96 -19.466,-26.066 -30.354,-37.941c-15.193,-7.57 -23.131,-22.405 -22.765,-45.53c4.933,16.884 20.597,26.502 32.251,34.147c8.952,11.515 33.033,16.713 53.118,11.383c28.215,-14.266 -29.164,0.967 -36.045,-9.486c-13.378,-9.39 -28.351,-17.187 -36.044,-32.25c-6.704,-16.049 -24.617,-20.925 -26.559,-41.736c3.136,-44.107 5.257,11.914 15.176,15.177c13.842,8.916 17.457,28.077 34.148,34.147c20.686,18.212 -5.473,-17.737 -13.28,-20.868c-10.969,-10.851 -20.35,-26.748 -22.765,-43.632c-5.537,-29.12 11.519,16.39 15.177,22.765c12.834,9.921 23.015,22.518 43.633,24.662c25.303,2.542 37.661,-7.873 51.221,-17.074c10.43,-12.331 24.33,-21.209 32.25,-36.045c14.105,-23.58 19.904,-17.794 3.794,3.795c-8.036,14.721 -16.702,28.835 -32.25,36.044c-23.345,20.394 -8.856,13.868 9.485,1.897c11.351,-10.472 24.006,-23.087 30.354,-36.044c7.341,-15.424 13.272,-32.27 18.97,-49.324c8.782,-13.982 7.587,-37.946 17.074,-51.221c1.372,-34.973 15.548,13.975 7.588,26.559c-1.018,21.74 -7.554,37.979 -11.382,56.912c-6.904,15.86 -10.591,34.944 -18.971,49.324c-8.535,14.228 -20.147,25.383 -34.147,34.147c-10.918,11.838 -9.102,36.424 -20.868,47.427c-6.086,15.727 -22.131,24.966 -37.942,28.456Zm-5.691,-3.794c30.873,-3.794 43.489,-28.532 49.324,-55.015c-12.151,22.518 -26.316,45.701 -49.324,55.015Zm168.84,-3.794c11.265,-25.079 19.286,-63.799 15.177,-96.751c-13.073,5.767 -1.435,-58.088 -0,-83.471c-13.68,2.504 -7.894,60.251 -13.28,79.677c-6.084,42.343 8.793,64.045 -1.897,100.545Zm-316.812,-5.691c19.318,0.303 24.023,-0.266 17.074,-17.074c-1.797,-10.187 -11.809,19.559 -17.074,17.074Zm79.677,-1.897c18.842,-32.99 15.251,24.491 -3.794,22.765c-19.485,8.612 21.041,-26.635 3.794,-22.765Zm-125.207,-36.045c25.239,-4.818 78.443,-24.51 83.472,-18.97c-9.461,20.071 -71.664,33.483 -83.472,18.97Zm208.679,-5.691c37.211,-7.057 57.963,-30.581 72.089,-60.706c12.581,-29.765 27.839,-63.723 30.353,-96.751c-12.682,25.762 -20.652,65.373 -36.045,92.957c-11.904,31.719 -38.596,50.936 -66.397,64.5Zm-147.972,-22.765c-7.207,-11.003 -39.695,24.226 -30.353,0c8.072,-17.017 31.345,-28.323 30.353,0Zm383.209,-9.485c35.229,19.464 63.457,-47.693 41.736,-20.868c-1.451,31.719 -87.491,-1.764 -41.736,20.868Zm11.383,-13.28c26.13,-0.417 33.821,-19.293 41.735,-37.941c8.53,-18.022 15.128,-37.999 20.868,-58.81c8.421,-17.113 -2.219,37.809 -5.691,47.427c-5.221,21.342 -11.259,41.869 -22.765,56.913c-10.496,11.913 -33.074,28.854 -53.118,15.176c-13.71,-12.843 -28.452,-24.662 -32.25,-47.427c-6.927,-48.622 7.575,-6.829 17.073,5.692c-0.878,20.033 65.317,6.317 34.148,18.97Zm-77.78,-11.382c4.849,-12.047 7.36,-35.381 3.794,-47.427c-3.392,12.407 -5.428,38.397 -3.794,47.427Zm-185.914,-22.765c32.028,3.775 47.77,-11.762 58.809,-26.559c15.572,-12.255 22.564,-33.085 32.251,-51.221c8.69,-19.557 16.876,-42.656 22.765,-62.604c5.989,-17.741 11.974,-69.539 -0,-22.765c-5.885,22.363 -14.896,44.635 -20.868,64.501c-9.855,17.965 -16.966,38.681 -30.353,53.118c-12.671,15.575 -24.651,34.887 -45.53,39.839c-29.413,-5.407 -53.154,-13.014 -17.074,5.691Zm254.208,-0c35.929,-1.992 -25.758,-11.231 -17.073,-20.868c15.315,8.101 51.223,10.206 56.912,-7.588c14.072,-5.274 24.827,-35.798 28.456,-36.045c-4.046,21.248 -14.057,36.538 -20.868,55.016c-9.992,18.591 -11.084,39.952 -34.147,30.353c-28.303,3.016 -36.665,-13.925 -43.633,-32.251c-12.756,-5.084 -10.91,-61.237 -3.794,-30.353c5.467,19.825 15.177,35.419 34.147,41.736Zm-256.105,-26.559c25.076,1.973 38.56,-11.022 49.324,-20.868c11.688,-11.42 22.291,-27.288 26.559,-43.633c8.328,-14.772 19.396,-30.182 24.662,-45.53c6.809,-15.954 12.471,-33.062 15.177,-53.118c-7.839,-22.097 -6.748,34.022 -13.28,37.942c-7.62,15.142 -19.834,25.698 -28.456,39.838c-25.288,30.409 25.825,-23.944 5.691,3.795c-11.496,11.266 -17.648,27.883 -34.147,34.147c-8.949,11.534 -46.209,9.144 -53.118,9.485c14.873,9.296 46.897,6.412 55.015,-3.794c13.6,-8.601 29.9,-38.006 15.177,-5.691c-12.531,10.225 -20.663,24.871 -36.045,32.25c-15.738,11.952 -44.281,2.979 -51.221,-7.588c-11.608,-11.155 -20.655,-24.876 -26.559,-41.736c-11.151,-10.849 7.757,31.036 11.382,36.045c9.541,13.222 21.487,24.036 39.839,28.456Zm-34.147,-1.897c3.384,-13.754 -24.456,-19.73 -20.868,-43.633c-2.482,-17.106 -25.979,-31.808 -11.383,-49.324c8.717,-11.703 17.395,-38.848 5.692,-55.015c7.155,9.119 13.869,33.766 28.456,37.941c10.849,11.349 38.165,13.845 58.809,9.486c18.455,-5.572 31.753,-16.309 39.839,-32.251c-11.24,5.961 -23.672,22.449 -43.633,24.662c-21.014,5.654 -42.128,-5.482 -53.118,-13.279c-9.332,-14.695 -20.489,-27.574 -22.765,-49.324c-8.632,-41.815 0.413,-2.736 13.279,5.691c10.21,13.817 25.977,22.086 47.427,24.662c25.694,2.593 44.678,-4.9 56.913,-13.279c29.091,-16.562 8.762,-16.036 -9.486,-1.897c-12.718,8.696 -43.445,10.395 -60.706,3.794c-10.07,-7.947 -23.061,-11.242 20.868,-9.486c34.458,-2.661 30.981,-14.421 -0,-5.691c-21.618,3.293 -68.521,-4.016 -18.971,-3.794c42.934,-2.721 20.251,-4.547 -11.383,-3.794c-55.326,-6.521 36.716,-0.471 7.589,-7.589c-22.405,5.574 -59.054,-4.196 -39.839,-15.176c20.227,3.802 50.089,-2.028 60.707,11.382c18.701,8.784 44.294,-3.485 60.706,7.589c19.064,4.283 56.153,-14.836 53.118,15.176c-2.062,21.039 -1.643,47.936 -5.691,64.501c-6.033,17.994 -8.577,39.484 -15.177,56.912c-5.336,18.686 -14.848,33.218 -24.662,47.427c-9.476,14.551 -24.491,23.562 -34.147,37.942c-13.494,9.599 -29.862,19.71 -53.118,17.073c-18.455,-5.577 -31.753,-16.315 -39.839,-32.25c-9.62,-14.399 -17.419,-30.638 -20.868,-51.221c-5.767,-18.971 -8.142,-54.031 3.794,-18.971c5.233,17.871 14.443,35.134 28.457,41.736Zm-149.869,-7.589c18.944,8.044 28.258,-16.352 28.456,-7.588c3.399,14.532 -35.995,8.954 -28.456,7.588Zm440.121,-3.794c6.767,-8.233 -21.198,-23.011 -24.662,-34.147c-3.638,5.103 13.98,30.239 24.662,34.147Zm-60.706,-11.382c8.905,-14.19 8.626,-40.952 11.382,-58.81c-4.703,-12.397 -14.626,-46.117 -18.97,-39.838c8.662,35.562 -0.968,24.614 -3.795,43.633c-7.112,22.231 0.816,47.294 11.383,55.015Zm75.883,-18.971c12.24,1.992 22.26,-2.557 26.559,-5.691c21.088,-35.76 -22.186,20.887 -37.942,-11.383c-17.855,0.877 -43.338,-85.647 -22.764,-45.529c9.269,20.623 57.747,51.31 75.883,17.073c4.991,-3.096 5.082,-17.083 -1.897,-5.691c-6.414,1.174 -12.106,3.071 -17.074,5.691c-56.167,-0.095 27.589,8.156 -9.486,9.486c-29.529,-11.535 -54.967,-29.561 -58.809,-64.501c2.77,-14.329 13.39,57.204 49.324,41.736c6.983,-0.167 27.982,-3.688 18.971,-5.692c-30.759,0.41 -40.816,-19.892 -56.912,-34.147c-7.469,-11.191 -0.279,-9.062 9.485,-5.691c53.687,-3.942 24.104,-7.232 -1.897,-17.074c-59.037,-40.552 29.128,7.279 22.765,-9.485c-9.372,-0.746 -18.146,-2.091 -24.662,-5.691c-42.102,-16.585 22.048,-8.287 39.838,-13.28c59.798,-29.61 4.98,12.231 3.795,39.839c-0.128,9.99 -7.319,12.917 -9.486,20.867c11.878,-10.911 15.359,-16.303 39.839,5.692c16.823,11.088 1.517,69.006 -1.897,91.059c-10.738,22.462 -37.056,59.208 -70.192,32.251c-19.618,-25.402 -18.307,-59.25 -22.765,-96.751c4.485,20.786 12.845,54.945 49.324,56.912Zm-79.677,-1.897c-1.157,-18.242 8.351,-61.634 5.691,-17.074c-6.416,53.972 -12.267,-37.501 -5.691,17.074Zm-199.193,-3.794c28.306,3.014 43.644,-6.947 56.912,-18.971c11.838,-13.454 23.304,-27.287 32.25,-43.633c10.994,-14.298 17.321,-33.271 18.971,-56.912c-4.432,-9.421 -12.9,32.252 -18.971,39.839c-9.051,16.241 -18.974,31.616 -30.353,45.529c-12.147,13.145 -24.343,26.248 -51.221,24.662c-26.555,3.07 -29.253,-24.282 -41.736,-30.353c4.003,20.386 17.522,34.542 34.148,39.839Zm-165.046,-11.383c5.847,20.261 -11.358,39.308 -18.971,43.633c-3.052,-17.472 18.265,-32.404 18.971,-43.633Zm-11.382,-45.529c3.541,15.281 -7.703,28.496 -17.074,36.044c3.124,-13.796 9.609,-31.77 17.074,-36.044Zm-9.486,-9.486c3.11,6.35 -16.182,44.17 -13.279,18.971c1.58,-10.472 12.9,-48.431 13.279,-18.971Zm28.456,0c-13.294,18.421 -26.665,-25.218 -17.073,-51.221c-5.606,-32.888 16.066,-50.242 47.427,-37.941c46.787,-13.489 35.813,22.683 32.25,51.221c-13.084,48.98 45.575,15.131 39.838,15.176c-5.772,20.595 -11.714,56.782 -45.529,37.942c-32.996,3.464 -31.562,-30.462 -37.942,-51.221c-7,-1.431 4.424,7.436 0,15.176c3.28,45.883 -3.155,-6.416 -9.485,-9.485c-15.695,-23.59 -9.598,-3.062 -9.486,30.353Zm529.285,-11.382c44.334,3.217 19.166,-72.728 22.765,-96.751c-3.271,-6.972 -1.49,-23.329 -1.897,-30.353c-3.969,-56.199 9.052,-19.561 7.588,15.176c1.571,69.589 13.34,-47.561 5.691,-56.912c-1.982,-7.444 -5.562,-22.002 -11.382,-17.074c12.04,-26.544 35.498,12.42 45.529,17.074c21.105,-2.296 13.187,68.68 20.868,94.854c2.842,19.794 5.056,4.336 3.794,-5.691c-0.912,-65.351 5.261,1.847 9.486,20.867c10.506,32.332 17.447,89.945 -32.25,79.678c-32.936,18.868 -95.384,-7.084 -70.192,-20.868Zm-436.328,-24.662c-12.879,30.429 -32.068,8.633 -18.971,-30.353c20.18,-45.86 34.225,16.104 18.971,30.353Zm430.636,-0c8.951,-24.173 -37.059,16.026 -49.324,1.897c-6.977,-21.752 2.247,-52.339 30.354,-49.324c34.969,-5.437 47.334,14.689 39.838,49.324c13.092,32.506 -58.606,-15.296 -20.868,-1.897Zm-559.637,-20.868c10.553,0.666 11.993,-12.282 3.794,-15.177c-32.024,-9.578 -19.802,-40.969 9.485,-18.97c-3.346,27.792 -4.327,73.547 -20.867,91.059c-18.146,20.914 28.122,-71.751 7.588,-43.633c-2.724,7.393 -7.541,12.696 -9.485,20.868c-18.277,27.392 4.173,-36.668 9.485,-34.147Zm-22.765,-5.691c2.914,11.179 -12.82,6.628 -7.588,-5.692c3.327,-15.146 7.123,-0.722 7.588,5.692Zm303.532,-22.765c32.296,-4.458 68.249,-0.805 96.751,-3.794c37.524,-4.14 62.953,-5.401 96.751,-3.795c65.318,-11.985 3.398,17.894 -26.559,9.486c-30.397,1.387 -66.512,4.54 -94.854,5.691c-29.583,-1.941 -72.332,6.894 -96.751,-3.794c-38.129,9.174 -55.087,-18.055 -91.059,-9.485c-49.932,-29.491 -4.46,-5.737 26.559,-9.486c25.075,13.595 62.945,9.047 89.162,15.177Zm294.047,-5.691c-33.572,18.879 -15.309,-56.642 -17.074,-75.884c-3.851,-32.094 -8.064,-66.447 -11.382,-96.75c-4.94,-31.006 -5.587,-68.927 -7.588,-100.546c-3.093,-32.853 -8.055,-66.456 -13.28,-94.853c-6.632,-29.314 -4.898,-69.615 -7.588,-100.545c1.44,-37.386 -4.612,-69.902 -7.589,-100.545c-2.606,-33.34 -5.841,-68.671 -9.485,-98.648c-4.168,-31.78 -6.769,-67.743 -7.588,-100.545c8.982,-0.205 7.527,59.12 13.279,79.677c2.891,33.054 5.494,69.017 7.589,100.545c3.393,32.552 9.07,65.441 9.485,98.648c3.836,32.11 7.926,66.585 11.382,96.751c8.211,27.735 11.024,63.487 13.28,94.854c4.47,31.478 5.873,68.638 9.485,98.647c1.575,34.372 6.818,67.696 9.486,98.648c4.327,31.619 5.291,69.221 7.588,100.546Zm-472.372,-18.971c-4.671,-13.883 -43.286,-5.318 -60.706,-11.383c-16.839,-5.141 38.296,-4.961 51.221,-1.897c33.754,4.921 -13.496,-16.85 -30.354,-11.382c-36.86,16.299 -20.186,-22.993 -11.382,-34.148c20.746,4.546 61.08,-10.489 58.809,17.074c-5.987,19.305 8.556,59.147 -22.765,53.118c-9.544,-9.664 -66.978,5.227 -51.221,-13.279c15.441,-4.838 44.506,2.631 66.398,1.897Zm-123.31,-3.794c3.72,2.528 -25.036,-2.664 -30.353,-7.589c-5.661,-0.588 30.036,-2.337 30.353,7.589Zm692.433,-0c56.948,-17.097 18.419,24.311 -0,17.073c45.186,-21.955 17.051,-11.91 -0,-17.073Zm24.662,-13.28c1.235,-2.47 -31.421,12.278 -30.353,3.794c2.462,-7.931 36.496,-14.514 30.353,-3.794Zm-673.462,-7.588c0.349,24.144 -5.985,54.359 -15.177,17.073c-32.635,-10.991 0.125,-41.456 15.177,-17.073Zm-47.427,-3.794c26.199,0.005 -13.376,13.994 -24.662,7.588c-25.305,-12.441 20.951,-15.218 24.662,-7.588Zm102.442,-3.795c12.807,-0.982 14.651,0.742 3.794,-7.588c-9.893,-11.606 -10.699,-0.745 -3.794,7.588Zm-49.324,-7.588c-26.163,13.456 -40.434,-34.483 -77.78,-17.074c47.222,-15.502 37.907,6.714 77.78,17.074Zm-41.736,-3.794c1.355,4.232 -31.939,-5.018 -37.941,-3.794c-1.332,-5.079 32.548,-5.576 37.941,3.794Zm146.075,-1.897c-2.456,18.347 16.486,80.318 -18.971,62.603c3.956,-24.576 3.273,-57.407 5.692,-77.78c-5.946,-22.93 20.361,-74.82 17.073,-26.559c-1.806,5.781 -2.485,12.694 -1.897,20.868c-10.016,-34.95 -9.874,11.381 -1.897,20.868Zm544.461,-7.588c7.736,-43.963 26.364,20.63 -1.897,17.073c-25.958,-5.387 14.498,-34.69 0,-47.427c0.886,-12.137 16.33,-64.149 18.971,-30.353c-5.522,20.155 -12.69,41.861 -17.074,60.707Zm-650.697,-22.765c-7.205,-16.272 1.698,-34.618 5.691,-55.016c4.952,-17.559 8.621,-45.14 0,-56.912c-1.506,22.52 -7.92,40.142 -9.485,62.604c-2.315,15.317 -13.735,52.909 3.794,49.324Zm83.471,-1.897c-1.017,19.811 -45.681,0.614 -60.706,7.588c-0.296,-24.209 45.439,-7.116 60.706,-7.588Zm434.431,-1.897c3.212,26.321 1.079,60.943 1.897,87.265c-27.525,18.794 -31.378,21.447 -18.971,-11.382c-13.938,-18.613 -6.831,-55.763 -5.691,-72.089c-14.725,-31.926 34.331,-47.365 22.765,-3.794Zm-553.946,-1.898c-2.138,21.432 -11.244,-15.339 -5.692,-28.456c-4.08,-11.395 -23.69,55.877 -26.559,34.148c12.39,-20.491 13.244,-52.527 30.353,-68.295c36.214,-3.513 2.372,47.62 1.898,62.603Zm39.838,-1.897c6.242,-6.706 25.408,-64.254 17.074,-24.662c-8.499,16.748 -7.342,52.475 -20.868,56.913c-36.559,4.071 -20.635,-29.946 -17.074,-51.221c4.403,-22.56 8.359,-48.681 13.28,-68.295c5.738,-22.082 9.155,-46.496 17.074,-66.398c4.41,-22.552 13.712,-43.327 15.176,-66.397c5.318,-22.506 7.145,-48.507 13.28,-70.192c2.72,-24.243 6.694,-50.343 13.279,-68.295c4.743,-23.078 16.643,-39.008 22.765,-60.707c5.082,-21.879 12.342,-44.697 13.28,-68.294c2.669,-24.837 5.664,-52.174 1.897,-77.78c-2.358,-26.083 4.319,-46.94 -9.486,-64.501c-6.744,-21.077 -13.26,-42.388 -18.97,-64.501c-7.41,-19.551 -15.384,-41.656 -18.971,-62.603c-2.03,-25.791 -7.205,-48.446 -11.383,-72.089c-14.863,-40.11 30.118,-29.699 32.251,-45.53c-0.126,-1.241 -15.452,35.648 -0,53.118c6.425,14.481 -14.375,69.266 -11.383,28.456c-3.889,-10.198 -2.536,-78.726 -13.279,-43.632c5.852,21.11 6.507,50.532 9.485,72.089c4.841,22.979 8.442,47.208 17.074,66.397c5.268,21.693 14.791,42.248 20.868,60.707c4.94,16.703 21.04,45.67 7.588,64.5c6.055,18.578 3.807,57.303 1.897,75.883c-0.368,27.453 -5.107,50.544 -11.383,72.089c-3.627,23.336 -10.94,46.097 -13.279,68.295c-5.272,22.549 -8.586,47.065 -11.383,72.089c-1.189,25.772 -4.076,52.962 -3.794,77.78c-2.75,25.072 -2.475,53.175 -5.691,77.78c-4.416,22.545 -10.57,46.469 -18.971,62.604c-17.933,55.673 2.009,-23.092 -9.485,9.485c-3.515,21.116 -24.958,36.153 -20.868,56.912Zm307.327,-15.176c28.738,7.491 34.913,-17.698 43.632,-22.765c-15.81,4.655 -25.117,24.622 -51.221,13.279c0.169,-20.065 -29.807,-34.397 -26.559,-13.279c1.212,-1.374 24.988,15.651 34.148,22.765Zm-259.9,-3.794c10.717,0.599 19.401,-0.835 26.559,-3.795c30.071,-22.159 8.471,39.234 -18.971,11.383c-11.851,-1.734 -17.309,2.927 -28.456,1.897c-1.576,-45.481 -3.796,-27.141 20.868,-9.485Zm-127.104,-5.692c4.636,9.488 -6.507,17.254 -9.485,24.662c-2.461,-12.847 6.116,-23.182 9.485,-24.662Zm646.903,0c60.226,1.232 -54.37,18.482 -13.28,-11.382c4.673,-1.52 21.57,-4.75 15.177,1.897c-24.848,14.05 23.632,0.427 15.177,-18.971c1.844,-26.1 51.08,-34.756 30.353,-17.073c-23.755,7.06 -20.305,44.213 -47.427,45.529Zm37.942,0c5.556,-22.516 36.924,-83.809 17.073,-20.867c4.538,15.358 3.5,-10.603 9.486,1.897c-20.931,36.89 11.97,-7.052 15.176,-13.28c1.266,30.729 -23.207,71.662 -47.427,51.221c-9.015,-41.726 25.527,-80.398 5.692,-18.971Zm-297.841,-3.794c10.561,1.579 20.439,-1.891 24.662,-3.794c20.293,-23.287 10.765,-20.891 -11.383,-3.794c-10.692,1.709 -15.753,-6.575 -15.177,-13.28c26.117,-27.737 -32.292,7.126 1.898,20.868Zm-261.797,-15.176c33.083,0.688 70.977,-19.813 32.25,7.588c-28.917,25.823 -67.06,-33.442 -32.25,-7.588Zm462.887,-0c10.416,12.998 -21.811,16.423 -22.765,9.485c-6.631,-16.787 23.459,-18.072 22.765,-9.485Zm-497.034,-18.971c8.204,-11.007 1.286,-33.742 -1.897,-41.736c-5.938,7.913 5.213,28.582 1.897,41.736Zm527.387,-0c11.828,0.829 55.095,-12.707 41.736,-3.794c-9.156,8.785 -46.024,13.048 -41.736,3.794Zm-481.858,-1.897c30.883,-4.79 63.511,-1.264 20.868,7.588c-31.21,19.445 -55.074,-27.921 -20.868,-7.588Zm246.62,-1.897c30.936,4.38 42.785,-10.337 66.398,-13.28c-25.432,6.883 -28.68,-13.312 5.691,-13.279c1.457,-15.883 -56.645,19.839 -37.941,-7.589c-16.224,-8.571 -55.444,-2.42 -60.707,-5.691c27.844,5.065 21.559,4.238 51.221,5.691c-32.438,0.291 18.565,16.16 -17.073,17.074c46.799,-14.008 -3.519,23.896 -7.589,-7.588c-4.149,17.612 -36.497,12.482 0,24.662Zm201.09,-3.794c9.822,12.408 -12.465,15.298 -18.97,11.382c-7.363,-10.722 9.622,-17.085 18.97,-11.382Zm-527.387,-5.692c19.707,-1.276 -8.042,7.786 -18.971,3.794c-16.98,-1.451 10.77,-10.513 18.971,-3.794Zm497.034,-1.897c3.053,33.62 1.171,72.188 1.897,108.134c10.715,46.66 -7.353,67.158 -43.632,64.5c-32.975,-14.463 -58.823,5.079 -98.648,0c-30.534,2.561 -64.165,2.654 -92.957,0c-42.654,13.356 -56.114,-17.03 -92.957,-9.485c-43.075,7.129 -34.062,-40.452 -34.147,-73.986c2.282,-33.664 4.765,-69.748 9.485,-98.648c4.05,-31.896 3.889,-70.623 7.588,-100.545c3.191,-33.482 8.283,-65.076 13.28,-96.751c7.304,-28.642 9.398,-65.113 11.382,-96.751c-1.988,-38.661 3.028,-70.33 1.897,-108.133c2.727,-33.22 6.669,-67.845 11.383,-96.751c1.358,-32.296 5.312,-74.068 1.897,-100.545c1.516,-24.816 7.579,-69.591 1.897,-98.648c1.969,-33.977 3.828,-70.685 7.588,-100.545c-4.517,-41.711 22.225,-44.718 37.942,-66.398c11.422,9.309 -37.661,33.373 -30.353,41.736c14.71,-10.072 60.848,-9.372 58.809,18.97c11.574,25.099 33.626,39.733 66.398,43.633c37.856,1.911 58.139,-16.372 72.089,-36.044c39.52,-19.755 -15.327,23.865 -18.971,37.941c-11.455,20.138 -57.231,27.878 -79.677,13.28c-21.42,-14.526 -38.397,-36.117 -45.53,-62.604c-16.719,-19.528 -76.16,-19.891 -51.221,22.765c9.923,10.743 -0.903,32.916 17.073,66.398c9.953,25.994 13.369,61.143 17.074,91.06c2.311,34.363 11.366,61.99 17.074,92.956c8.613,27.333 11.853,62.659 15.176,92.957c-1.735,38.408 1.11,72.248 3.795,106.236c4.272,31.674 3.93,70.581 11.382,96.751c3.798,25.554 9.592,61.904 15.177,89.163c-0.831,24.546 41.762,61.7 51.221,18.971c12.5,-25.421 17.978,-47.809 22.765,-83.472c4.86,-31.085 11.657,-62.854 15.176,-92.957c-3.716,-33.03 7.095,-66.299 3.794,-98.648l0,-28.456c-5.186,-35.672 16.482,24.26 37.942,-3.794c7.943,-0.499 2.432,-26.009 -0,-13.279c-12.371,27.691 -46.771,2.917 -36.045,-22.765c2.296,-33.651 10.533,-63.981 17.074,-91.06c6.456,-29.49 10.096,-64.415 13.28,-94.854c3.623,-32.322 16.316,-58.196 22.765,-85.368c2.058,-6.925 4.336,-17.992 5.691,-22.765c8.74,-46.89 -2.531,-24.594 -7.588,1.897c-23.223,26.18 -43.263,2.46 -7.589,1.897c3.041,-5.94 6.763,-15.565 5.691,-22.765c22.054,-35.284 -16.024,6.444 -17.073,11.383c7.089,29.29 -19.257,-41.675 -24.662,15.176c-11.276,25.396 -31.909,41.448 -58.81,51.221c-42.45,6.505 -54.909,-19.604 -73.986,-34.147c-14.148,-5.765 -32.603,-79.319 -15.176,-47.427c7.421,22.42 22.621,49.55 45.53,58.809c29.907,14.179 67.34,1.152 83.471,-15.176c5.338,-12.574 45.938,-62.744 32.25,-41.736c46.619,-1.664 6.593,-40.698 -17.073,-17.074c-14.018,21.929 -36.821,37.693 -70.192,37.942c-31.679,-3.538 -54.822,-20.845 -62.604,-43.633c15.543,20.403 48.768,25.743 85.369,22.765c5.784,-3.197 16.601,-5.727 20.868,-7.588c53.046,-14.923 -18.962,-2.979 -3.795,-7.589c32.416,-2.775 56.387,-22.871 85.369,-7.588c13.947,22.725 13.48,59.878 15.176,94.854l0,108.133c-3.34,37.735 -6.377,63.423 -3.794,98.648c-0.294,36.24 -0.863,75.377 3.794,104.339c3.726,32.947 4.688,68.669 3.795,106.237c0.39,35.557 -1.402,75.913 1.897,106.236c1.519,34.426 5.249,69.262 5.691,102.442c3.504,32.442 6.64,67.874 7.588,100.545Zm-206.781,-1.897c23.949,-0.745 18.832,-6.899 1.897,-7.588c-29.295,-2.002 -12.507,4.153 -1.897,7.588Zm-214.37,-3.794c15.285,1.478 83.062,-5.209 51.221,7.588c-11.534,1.748 -75.243,1.996 -51.221,-7.588Zm195.399,-9.485c0.376,-27.341 -18.794,-53.938 -17.074,-66.398c-3.604,-34.333 -6.275,-69.611 -5.691,-108.133c-12.981,1.056 -1.062,63.32 -1.897,89.162c0.782,39.027 13.392,54.769 24.662,85.369Zm330.091,-0c-10.644,5.169 -52.871,16.299 -41.735,-18.971c-4.437,-21.995 -2.764,-52.027 11.382,-58.81c14.054,-32.55 12.692,-9.984 18.971,15.177c1.656,22.733 8.488,43.576 11.382,62.604Zm-523.593,-1.897c13.102,-2.359 70.524,-4.885 56.913,3.794c-16.169,-0.152 -73.527,2.308 -56.913,-3.794Zm593.785,-0c-13.911,-2.778 -13.37,-44.333 -22.765,-58.81c-5.642,-23.442 -11.528,-46.651 -15.176,-72.089c-5.786,-23.298 -7.628,-50.551 -11.383,-75.883c1.711,-15.336 -19.9,-67.576 -7.588,-49.324c14.886,16.042 12.619,49.14 28.456,56.913c11.081,18.005 25.497,32.684 30.353,56.912c19.225,18.684 -7.806,41.798 -5.691,66.397c-9.584,29.855 12.214,47.869 3.794,75.884Zm-751.242,-3.795c6.774,6.946 -4.303,30.818 -5.691,13.28c-4.479,-9.237 -6.689,-26.438 5.691,-13.28Zm737.963,0c-33.417,-2.111 -48.51,35.762 -98.648,26.559c42.644,2.051 57.532,-37.125 98.648,-26.559Zm-652.595,-1.897c6.542,16.089 -11.371,16.059 -22.764,15.177c-4.258,-9.669 8.155,-24.372 22.764,-15.177Zm121.413,-7.588c5.265,6.932 -33.432,2.273 -49.324,3.794c2.937,-8.081 38.519,-9.48 49.324,-3.794Zm151.766,-3.794c17.526,-25.778 -2.411,-29.003 -1.897,-49.324c-5.008,-23.731 -2.893,-43.415 -5.691,-66.398c-7.471,-18.944 -2.944,44.409 -1.897,53.118c4.819,21.995 9.582,40.518 9.485,62.604Zm246.62,-1.897c-15.184,27.887 -19.202,-33.624 -20.867,-51.221c-10.404,-25.3 4.807,-67.787 -0,-62.604c9.544,0.765 11.272,-3.399 3.794,-5.691c-3.269,-17.605 18.028,13.346 11.382,32.25c3.153,27.663 4.337,60.181 5.691,87.266Zm125.207,-0c-8.84,-1.939 -38.119,11.413 -41.735,3.794c8.886,-3.834 35.232,-19.477 41.735,-3.794Zm-792.978,-1.897c-16.69,-3.485 6.403,-60.257 -5.691,-47.427c-10.69,16.04 -9.204,45.258 5.691,47.427Zm413.563,-1.897c5.062,-13.982 -4.963,-36.781 -7.588,-53.119c-5.321,-21.201 -0.158,-39.825 -3.794,-60.706c-7.228,9.95 -2.262,40.702 -0,56.912c1.724,21.039 6.213,39.321 11.382,56.913Zm-269.385,-3.795c21.883,-4.08 5.857,15.217 -3.794,9.486c-19.09,2.109 -1.066,-17.019 3.794,-9.486Zm645.006,-9.485c-4.329,-10.267 -43.642,11.954 -45.53,1.897c6.555,-8.521 44.402,-24 45.53,-1.897Zm106.237,-1.897c4.704,9.814 -1.268,26.939 -7.589,28.456c3.474,-7.091 2.525,-31.137 7.589,-28.456Zm-660.183,-1.897c3.312,-5.541 10.969,-6.738 11.382,-15.177c1.806,-4.712 2.486,-14.801 1.897,-18.97c8.695,-35.288 -1.121,2.27 -1.897,-20.868c-2.293,-14.418 -1.502,8.933 -3.794,11.382c-8.096,-21.938 -5.911,33.343 -7.588,43.633Zm307.326,-7.588c6.756,-11.269 11.383,-33.292 7.589,-49.324c-5.007,8.104 -8.771,29.907 -7.589,49.324Zm240.929,-11.383c-8.169,0.943 -37.765,7.568 -41.736,7.588c2.313,-11.71 33.749,-17.58 41.736,-7.588Zm-221.958,-15.176c5.771,-0.943 24.478,-2.036 20.868,-3.795c-37.114,1.347 -8.913,-25.798 -17.074,-55.015c-2.792,-50.709 -7.751,55.651 -3.794,58.81Zm214.37,-5.692c-7.699,0.882 -48.689,27.277 -37.942,-5.691c2.442,-10.079 20.669,-59.693 15.177,-24.662c-12.95,40.256 16.745,-3.346 9.485,-15.176c5.253,-10.241 11.405,33.747 13.28,45.529Zm-206.782,-7.588c13.363,-11.026 0.985,-51.079 15.177,-58.809c-23.271,1.117 -6.892,45.169 -15.177,58.809Zm83.472,0c3.09,-5.968 2.57,-34.667 -0,-32.25c-8.696,9.02 -0.603,24.523 -0,32.25Zm-102.442,-24.662c9.117,-5.722 6.376,-39.804 1.897,-45.53c-4.155,-0.318 -0.332,34.842 -1.897,45.53Zm187.81,-5.691c-8.258,15.178 -8.133,-45.046 -11.382,-58.81c-20.521,-23.588 41.783,-28.522 32.25,3.795c15.621,33.358 -16.62,32.703 -15.177,62.603c4.671,-27.587 0.792,-53.016 -5.691,-7.588Zm-242.826,-11.383c7.23,34.834 -46.523,12.553 -18.97,-7.588c3.103,-15.053 -10.688,-41.83 -13.28,-62.603c-5.547,-21.024 -7.374,-45.092 -9.485,-66.398c-6.462,-23.685 -3.637,-45.862 -11.383,-66.398c0.564,-28.384 -8.943,-46.706 -9.485,-73.986c-0.251,-27.57 -1.95,-53.7 -3.794,-79.677c-4.635,-11.064 -1.192,-53.693 7.588,-30.353c-0.434,33.686 7.245,38.387 5.691,56.912c-14.71,-6.717 3.349,50.918 9.486,39.839c-1.844,13.624 -20.9,45.253 -0,60.706c22.518,5.302 3.228,52.422 36.044,47.427c12.989,-13.24 9.478,-40.816 28.456,-49.324c13.805,-20.333 4.415,-46.095 -13.279,-55.015c-25.353,8.834 -67.159,-8.897 -24.662,-1.897c-10.525,-9.99 -18.153,-28.675 -24.662,-51.221c-8.112,-18.852 -9.7,-47.34 -13.28,-68.295c-6.106,-20.284 -4.215,-55.712 -7.588,-64.501c-10.948,17.617 -42.631,-25.976 -5.691,-1.897c-6.515,-11.574 -10.504,-65.986 1.897,-20.868c12.925,19.815 13.505,39.145 11.382,51.221c2.812,6.113 4.225,41.932 11.383,60.707c7.209,20.612 4.437,51.213 36.044,47.427c23.118,-1.727 23.653,-39.514 24.662,-47.427c13.86,19.096 -3.841,47.237 -9.485,60.706c-14.004,16.609 22.258,13.437 -11.383,26.559c-19.883,11.759 45.921,5.523 36.045,-17.073c12.469,-46.274 6.285,5.298 5.691,28.456c-0.949,26.014 -6.107,50.933 -9.485,72.089c0.612,28.433 -8.972,46.679 -9.486,73.986c-5.691,26.961 -3.968,50.276 -9.485,58.809c29.378,-10.637 -15.642,17.098 -9.486,32.25c-2.411,27.098 -29.315,37.128 0,47.427Zm-261.796,-9.485c10.969,-5.492 45.742,-45.647 36.044,-30.353c-3.532,10.612 -43.938,50.306 -34.147,18.971c6.585,-15.761 39.385,-39.824 37.941,-39.839c-5.201,25.148 -33.278,27.432 -39.838,51.221Zm235.237,-9.485c6.209,4.035 -11.266,12.353 -9.485,3.794c-4.693,-13.538 11.542,-9.914 9.485,-3.794Zm-201.09,-3.795c-4.917,33.537 -0.751,85.268 -7.588,121.413c-63.328,29.185 -27.65,-23.271 -28.456,-60.706c-4.464,-25.52 67.022,-77.076 18.971,-41.736c-53.071,36.866 40.889,-47.831 17.073,-18.971Zm307.327,-7.588c14.911,1.455 25.73,-12.42 7.588,-5.691c-19.449,-4.284 -20.183,-0.495 -7.588,5.691Zm77.78,-3.794c-0.063,35.143 -20.959,-11.773 -11.383,-28.456c-1.851,-33.227 17.656,15.076 11.383,28.456Zm244.723,-3.794c7.013,15.11 -26.195,-17.947 -47.427,-1.897c-15.704,1.593 -37.695,40.696 -20.868,5.691c27.986,-17.669 -33.711,4.05 13.279,-13.28c16.414,-9.016 47.627,-6.188 55.016,9.486Zm-523.593,-5.691c8.096,-26.759 44.306,19.682 51.221,-20.868c8.129,32.842 -65.37,-10.225 -51.221,20.868Zm-369.93,-1.897c8.425,-12.654 24.722,-24.609 47.427,-17.074c8.792,3.084 50.799,20.682 30.353,5.691c-16.907,-5.856 -29.648,-15.884 -47.427,-20.868c-13.75,7.57 -29.562,19.937 -30.353,32.251Zm552.049,-1.898c7.44,-4.238 29.217,-2.498 32.25,-5.691c-9.688,-3.464 -27.925,-1.665 -32.25,5.691Zm-305.429,-3.794c18.223,-11.048 3.598,-52.655 5.691,-70.192c-9.009,23.113 -1.448,52.91 -5.691,70.192Zm462.886,-3.794c8.37,42.151 -26.403,6.126 -26.559,-5.691c-4.422,-20.87 -10.542,-40.049 -11.382,-64.501c-12.098,-40.318 14.757,6.657 24.662,7.589c14.23,11.061 13.78,36.81 13.279,62.603Zm104.339,0c13.84,-0.882 6.989,-11.128 7.589,-22.765c-0.399,-38.787 44.08,-21.702 49.324,-1.897c26.737,-4.534 -45.223,-42.961 -37.942,-47.427c3.836,43.995 -54.992,51.375 -64.5,13.28c-53.521,-33.222 68.101,27.564 30.353,-3.794c-11.111,-0.27 -17.941,-4.827 -28.456,-5.692c4.524,-4.651 55.757,7.758 -0,-9.485c-10.687,-7.484 -62.731,-72.493 -24.662,-51.221c44.955,-6.674 57.521,-19.999 66.397,-56.912c-12.85,-71.11 31.516,17.206 13.28,39.838c-4.519,6.864 -4.003,18.764 -11.383,22.765c-18.58,43.549 18.812,-12.147 18.971,-24.662c6.528,12.938 -44.822,89.946 -5.691,37.942c6.26,-5.122 6.09,-16.677 9.485,-24.662c11.163,-0.824 -7.711,48.844 -15.176,58.809c10.301,15.089 35.426,-95.88 22.765,-18.971c0.54,7.416 -19.233,16.298 -0,15.177c6.306,-1.432 2.286,-17.537 5.691,-18.971c1.354,-46.366 7.243,1.537 11.382,15.177c0.162,10.083 4.616,20.202 7.589,24.662c0.967,6.77 3.932,15.89 3.794,20.868c5.888,-33.747 15.381,20.64 11.382,30.353c12.568,10.642 -0.778,-2.043 -13.279,1.897c-27.749,-9.573 -53.327,26.889 -68.295,9.485c-4.826,-5.418 -5.963,-18.855 -11.382,-20.868c-39.52,-22.823 54.009,-10.248 22.764,17.074Zm-263.693,-7.588c38.135,11.094 35.079,-33.808 15.176,-9.486c-33.092,-2.014 -39.21,-19.441 -15.176,9.486Zm-174.531,-1.897c38.317,22.427 51.428,-45.376 34.147,-9.486c-27.392,14.909 -49.982,-29.34 -34.147,9.486Zm464.784,-3.794c16.643,3.447 19.653,-18.666 7.588,-22.765c-16.643,-3.447 -19.654,18.665 -7.588,22.765Zm-766.419,-5.692c17.113,0.444 11.932,-25.859 -1.897,-22.765c-16.989,1.78 -12.307,25.535 1.897,22.765Zm314.914,0c40.361,-0.222 22.333,-55.275 24.662,-87.265c-3.557,-36.229 -7.417,-74.605 -5.691,-113.825c-8.214,3.965 -14.864,-1.889 -26.559,0c-44.115,0.342 65.517,13.426 7.588,13.28c-6.287,-1.021 -30.605,0.074 -15.176,3.794c58.456,10.449 -50.417,-3.929 5.691,11.382c36.843,-37.213 17.927,32.856 26.559,62.604c-1.963,29.955 16.047,89.024 -9.485,102.442c-17.467,-14.752 -0.444,-80.4 -17.074,-94.854c4.769,29.094 -3.823,83.322 9.485,102.442Zm163.149,0c30.357,-6.359 22.421,-28.08 1.897,-9.485c-10.068,-12.817 17.956,-27.333 7.588,-56.912c3.013,-24.918 2.313,-45.818 1.897,-70.192c11.922,-17.998 -5.232,-64.742 -15.176,-36.045c0.819,6.115 -6.873,66.275 1.897,47.427c-2.096,-30.433 15.994,-22.905 7.588,11.383c-0.465,17.092 0.383,52.023 -1.897,66.397c9.889,21.699 -33.032,31.828 -3.794,47.427Zm-531.182,-1.897c13.51,-11.122 27.426,-33.684 20.868,-56.912c-4.38,16.009 -13.801,41.159 -20.868,56.912Zm275.077,0c0.794,34 -9.454,66.561 -11.383,102.442c-5.435,18.015 1.637,108.426 -17.074,70.192c0.346,-38.858 3.789,-74.627 7.589,-110.03c9.514,-18.406 4.306,-99.627 20.868,-62.604Zm-292.15,-3.794c8.165,6.589 -10.051,17.009 -9.486,7.588c-0.851,-9.606 8.374,-17.993 9.486,-7.588Zm741.757,0c0.874,3.542 -21.86,2.134 -26.559,0c7.561,-3.221 20.023,-5.909 26.559,0Zm-447.71,-13.279c6.015,15.757 -12.809,-8.302 -9.486,-15.177c-9.555,-12.217 16.156,4.955 9.486,15.177Zm447.71,-5.692c-41.506,41.801 -30.166,-65.318 -28.456,-51.221c5.442,4.8 19.528,5.289 20.867,11.383c-51.659,-0.74 20.914,8.895 7.589,39.838Zm-349.062,-7.588c3.936,-31.156 3.153,-93.129 -3.795,-113.825c-2.798,56.414 -2.936,60.548 3.795,113.825Zm-258.003,-5.691c22.792,-4.944 46.207,-19.68 20.868,3.794c-13.042,10.986 -22.063,25.999 -51.221,20.868c-14.554,-3.546 -10.144,-50.286 -17.074,-39.839c-2.462,8.806 -46.947,26.195 -34.147,11.383c13.156,-10.871 14.626,-33.434 22.765,-49.324c15.738,-44.881 2.413,18.479 11.382,11.382c10.62,-13.406 2.81,-45.251 11.383,-60.706c4.921,-1.089 0.975,40.167 15.176,45.53c22.557,20.556 20.876,11.539 3.795,-7.589c-10.59,-11.682 -12.35,-40.861 -5.692,-58.809c13.215,-37.725 1.643,15.84 7.589,30.353c-1.418,22.691 25.574,43.849 7.588,11.383c-3.845,-19.451 -6.289,-45.64 1.897,-62.604c4.57,-19.456 13.34,-34.722 20.868,-51.221c9.612,-14.416 14.736,-33.326 18.971,-53.118c2.208,-33.986 12.444,-34.472 5.691,1.897c0.131,22.571 -8.106,48.017 -3.794,66.398c4.589,-12.61 7.998,-38.122 9.485,-58.81c-3.642,-21.268 -0.332,-64.172 5.691,-20.868c0.012,22.187 0.457,51.552 0,68.295c5.94,18.087 7.027,41.034 17.074,55.015c10.536,14.374 39.434,25.07 1.897,13.28c-13.298,1.271 -21.266,-49.129 -22.765,-26.559c3.853,20.175 13.035,35.027 32.25,39.838c34.152,-1.855 -13.886,20.362 -28.456,9.486c-25.191,-6.105 18.87,22.359 32.251,5.691c15.544,-18.61 -7.056,24.159 -18.971,22.765c-25.842,3.58 -16.49,13.976 -43.633,-1.897c-25.88,-24.567 -9.148,6.827 7.588,11.382c6.285,18.318 55.883,-2.392 39.839,5.692c-12.616,11.412 -15.275,32.787 -32.25,39.838c-6.164,10.343 -61.38,3.341 -36.045,17.074Zm163.149,-0c7.914,8.372 -14.759,-10.151 -15.177,-13.28c-1.967,-14.319 17.14,7.769 15.177,13.28Zm242.826,-11.383c1.675,-18.705 12.765,-52.044 1.897,-64.5c3.208,12.242 -7.551,47.364 -1.897,64.5Zm159.354,-1.897c-2.419,-0.275 -37.553,-19.557 -37.942,-39.838c0.598,2.096 30.39,26.718 37.942,39.838Zm-130.898,-9.485c2.836,-12.284 1.204,-46.896 1.897,-64.501c1.178,-17.783 -3.978,-55.764 3.794,-56.912c-14.689,8.412 -3.665,45.913 -7.588,62.604c2.011,17.589 -3.853,41.94 1.897,58.809Zm-132.796,-1.897c0.805,13.647 -12.336,8.909 -7.588,-15.177c-1.385,-16.815 13.063,-8.368 7.588,15.177Zm265.591,-1.897c-4.173,-7.608 -43.691,-27.734 -43.633,-56.913c3.322,8.46 35.914,35.512 43.633,56.913Zm-434.43,-1.897c1.434,24.022 -3.863,52.198 -7.589,75.883c-7.994,9.079 -45.194,40.844 -22.765,11.382c2.878,-22.715 -3.61,-50.876 3.794,-75.883c-2.261,-48.768 6.005,-28.285 26.56,-11.382Zm24.662,-5.692c19.2,-50.593 3.631,51.392 -5.692,-5.691c1.484,-28.866 4.973,-55.738 5.692,-85.368c3.583,-26.766 9.143,-51.567 13.279,-77.78c2.499,-27.853 6.221,-54.49 9.485,-81.575c-1.701,-9.288 2.694,-12.482 1.898,-20.867c4.83,-42.432 4.069,10.513 3.794,26.559c-3.461,26.889 -5.1,55.611 -9.486,81.574c-2.644,27.705 -4.255,56.453 -7.588,83.471c-0.063,30.289 -9.502,51.206 -11.382,79.677Zm436.327,-5.691c-30.839,5.001 -29.295,-41.847 -34.147,-72.089c-4.9,-33.037 -3.944,-71.941 -3.794,-110.03c-11.426,-33.677 7.588,-64.778 15.176,-91.06c10.326,-26.9 19.813,-57.2 28.456,-83.471c7.063,-30.875 6.724,-69.164 11.383,-102.442c-17.48,-38.773 -18.722,43.177 -24.662,58.809c-1.421,17.29 7.814,-4.492 5.691,-7.588c10.387,-49.487 10.872,-5.678 5.691,18.971c-4.094,33.132 -15.465,61.548 -22.765,89.162c-19.208,46.797 2.176,-37.763 0,-56.912c4.614,-33.324 7.629,-68.259 15.177,-98.648c2.933,-6.048 1.742,-20.587 1.897,-26.559c-21.321,-18.698 46.036,-0.632 28.456,18.971c-3.845,33.381 -8.355,68.659 -13.279,98.648c-7.429,30.508 -17.577,58.31 -26.559,87.265c-11.328,23.351 -23.676,60.955 -17.074,85.369c-3.432,35.663 -0.416,72.595 3.794,106.236c5.593,31.634 15.588,61.427 26.559,85.368Zm-91.06,-7.588c-0.512,13.215 9.78,72.556 -7.588,55.015c0.725,-26.4 -3.769,-50.779 -1.897,-75.883c1.043,-13.744 -12.741,-69.594 3.794,-51.221c3.946,21.729 6.462,48.089 5.691,72.089Zm-366.135,-1.897c9.496,29.401 -20.28,-2.925 -22.765,-11.383c-9.802,-29.095 18.434,4.772 22.765,11.383Zm424.945,-1.897c-6.64,-8.907 -33.969,-30.676 -39.839,-55.015c5.525,10.022 33.355,31.29 39.839,55.015Zm-419.254,-9.486c6.072,7.259 -22.408,-16.844 -24.662,-28.456c-1.271,-12.061 26.331,12.921 24.662,28.456Zm104.339,0c-2.753,-19.357 7.511,-63.738 1.897,-58.809c-4.619,17.389 -13.915,53.583 -1.897,58.809Zm51.221,-1.897c-13.418,15.183 -5.974,-69.547 -13.279,-72.089c8.631,-22.548 6.167,58.465 13.279,72.089Zm-151.766,-17.073c4.618,1.899 -22.232,-20.506 -24.662,-30.354c-3.251,-3.264 31.04,11.698 24.662,30.354Zm407.872,-7.589c2.864,9.84 -30.403,-22.423 -32.251,-39.838c-3.507,-9.197 30.353,22.472 32.251,39.838Zm-208.679,-3.794c9.415,9.806 -8.429,19.667 -13.279,9.486c-5.633,-9.877 5.027,-17.926 13.279,-9.486Zm-197.296,-7.588c-0.8,-8.645 -27.953,-17.74 -26.559,-36.045c0.425,7.868 31.22,14.938 26.559,36.045Zm453.401,-3.794c41.818,3.879 55.16,-20.728 64.501,-49.324c4.619,-0.53 -0.3,64.605 -26.559,64.5c-35.373,19.172 -62.023,-7.971 -62.604,-39.838c18.119,24.155 85.868,-8.744 17.074,1.897c-41.411,-11.58 43.923,-7.763 37.942,-37.942c-3.184,-5.589 -51.512,47.664 -58.81,-1.897c1.186,-9.857 -4.668,-19.735 0,-24.662c-0.798,-8.385 3.597,-11.58 1.897,-20.868c-2.183,-44.814 15.111,13.236 7.589,-24.662c1.146,-12.83 -0.469,-65.382 7.588,-91.059c13.999,-60.117 3.893,30.656 13.28,47.427c8.468,13.088 10.304,94.455 15.176,68.294c0.328,-33.242 -12.452,-71.573 -9.485,-92.956c7.744,30.195 11.6,64.286 15.176,98.648c-6.871,73.621 16.272,-8.547 0,-30.354c-3.488,-52.37 11.92,36.335 22.765,41.736c18.88,21.951 7.568,72.239 -15.176,79.677c-27.832,16.939 -76.295,-29.315 -30.354,11.383Zm-273.179,-3.794c-10.913,-0.486 -31.889,-31.092 -18.97,-51.222c-2.833,4.546 2.255,47.05 18.97,51.222Zm3.795,-17.074c24.544,9.671 29.611,-23.292 15.176,-30.353c-25.314,-8.901 -28.441,22.123 -15.176,30.353Zm-189.708,-9.486c-7.564,5.722 -10.026,-63.95 -13.28,-15.176c-8.616,-11.675 -0.688,-46.924 -1.897,-64.501c2.964,-19.619 0.947,-54.059 1.897,-68.294c1.16,-25.548 -2.965,-49.099 -5.691,-68.295c-1.958,-22.431 -6.685,-45.378 -5.691,-68.295c-3.369,-21.02 -0.994,-51.069 -1.897,-72.089c-1.129,-21.173 -10.453,-47.19 -1.897,-64.5c21.22,-31.86 3.989,-6.213 3.794,17.073c-1.819,29.553 9.316,56.571 5.691,11.383c0.723,-18.165 8.473,-58.096 18.971,-36.045c-0,16.535 -2.848,47.368 -5.691,64.501c-3.914,20.475 0.117,52.181 -3.794,70.192c-7.61,17.897 -5.475,46.461 -1.898,64.5c3.833,20.557 4.387,47.676 5.692,68.295c3.151,44.418 6.958,-18.305 5.691,-30.353c14.387,-9.047 17.408,22.177 13.279,43.633c-0.844,23.544 -6.076,45.987 -5.691,68.294c-5.004,39.791 11.284,-16.495 7.589,-28.456c4.302,-20.086 6.061,-46.002 7.588,-66.398c2.252,-22.137 2.874,-49.187 3.794,-70.191c1.165,-23.224 -2.077,-54.141 1.897,-72.089l0,-73.986c-0.876,-12.912 11.39,-66.125 11.383,-36.045c-4.992,48.581 3.357,6.319 5.691,-11.382c-7.892,-26.093 39.307,-37.612 11.382,-17.074c-5.35,19.039 -8.927,43.134 -11.382,62.604c-3.927,20.462 -0.924,51.139 -1.897,72.089c3.001,19.439 2.764,53.361 -0,70.191c-0.232,24.158 -5.49,46.574 -7.589,66.398c-3.887,20.502 -8.064,43.999 -9.485,64.501c-4.293,20.095 -6.177,45.886 -11.382,62.603c-8.475,15.552 -11.408,36.656 -15.177,56.912Zm352.856,-5.691c-16.404,3.153 -8.41,-40.643 -13.279,-58.809c-0.972,-24.704 -3.058,-51.492 -1.897,-75.883c6.489,6.759 5.294,43.758 9.485,62.603c-0.137,25.814 7.528,47.023 5.691,72.089Zm-147.972,-1.897c3.878,7.084 -12.189,12.921 -15.176,5.691c-5.904,-14.732 16.973,-13.759 15.176,-5.691Zm15.177,-7.588c9.927,33.246 -35.99,53.404 -43.633,18.971c-22.714,-35.682 39.765,-48.996 43.633,-18.971Zm9.485,-1.897c9.229,18.464 -18.929,46.461 -15.176,39.838c14.812,-1.403 12.346,-56.457 15.176,-39.838Zm56.912,-5.691c27.888,1.252 22.61,-11.413 0,-5.692c-27.731,-8.087 -15.464,2.859 0,5.692Zm-333.885,-1.898c12.589,34.947 -22.247,24.816 -24.662,7.589c-7.907,-14.854 -9.159,-36.373 -13.28,-55.015c0.936,-24.036 -0.54,-49.038 -1.897,-68.295c0.581,-23.344 -6.55,-38.981 -9.485,-58.81c-3.997,-19.103 -5.824,-43.754 -7.588,-62.603c-3.123,-19.64 -4.527,-41.005 -3.794,-64.501c-4.563,-23.833 1.424,-46.298 5.691,-28.456c-1.091,23.854 5.384,40.15 7.588,60.707c5.989,17.111 6.454,43.124 11.383,58.809c1.944,20.819 4.389,41.142 7.588,60.706c4.93,18.173 10.157,39.422 13.279,56.913c5.259,17.504 10.531,35.001 13.28,55.015c3.741,24.8 -12.282,-23.486 -13.28,-30.353c-7.632,-6.737 -13.325,-46.875 -17.073,-36.045c-0.076,22.839 8.867,36.665 15.176,53.118c6.447,16.315 14.335,31.2 17.074,51.221Zm136.59,-9.485c8.335,-2.14 47.554,-1.37 34.147,-5.691c-17.499,4.566 -40.922,-9.971 -34.147,5.691Zm185.913,0c8.423,0.004 45.348,1.694 28.456,-3.794c-9.914,-1.114 -34.453,-3.515 -28.456,3.794Zm129.001,-11.382c4.788,8.271 0.292,21.537 0,30.353c-4.589,44.316 -22.806,-22.444 -26.559,-34.147c-4.845,-6.536 -3.769,-18.998 -7.588,-26.56c-3.077,-11.815 -14.067,-90.378 -1.897,-53.118c18.735,65.298 1.997,-42.625 -11.383,-47.427c0.49,-28.405 -27.741,-89.707 0,-104.339c-24.679,-18.166 -3.955,-75.399 -9.485,-108.133c15.197,-3.817 15.863,6.901 15.177,18.971l-0,24.662c-27.389,10.39 12.554,11.608 -0,45.529c-25.543,36.893 -1.797,34.935 5.691,83.472c20.268,40.318 -6.046,-50.388 1.897,-72.089c-6.114,-28.301 6.528,-124.289 17.074,-70.192c3.663,37.909 8.237,84.655 3.794,123.31l-0,34.147c-1.545,68.671 8.779,9.237 7.588,-17.073c3.593,-41.36 1.639,-87.575 -1.897,-125.207c-8.738,-27.328 -9.355,-116.113 22.765,-64.501c-0.856,37.725 -4.832,81.595 -3.794,119.516c-2.336,41.286 -8.433,81.109 -13.28,117.619c-1.094,47.944 -0.584,82.378 1.897,125.207Zm-301.635,-5.692c39.981,1.994 20.798,-24.366 20.868,-45.529c-12.13,-38.746 5.602,38.673 -18.971,30.353c-22.738,-31.37 21.593,34.711 -9.485,-3.794c-4.809,-45.984 -15.845,22.063 7.588,18.97Zm172.634,-11.382c13.612,3.369 21.519,-3.299 20.868,-11.382c1.669,-16.499 -6.253,2.16 -5.691,3.794c-32.607,3.325 -7.868,-25.577 -3.795,-34.148c1.691,17.854 -17.105,3.863 -5.691,0c2.37,-4.778 -2.142,-29.33 9.486,-58.809c-3.237,-13.479 5.788,-19.03 3.794,-28.456c8.497,-57.761 -10.25,8.588 -9.486,26.559c-1.496,32.87 -21.133,80.715 -9.485,102.442Zm115.722,-9.485c4.566,-30.492 7.983,-84.718 -13.28,-104.34c6.511,17.581 14.718,64.588 13.28,104.34Zm-295.944,-9.486c9.1,-18.8 -2.962,-45.645 -3.794,-62.603c-2.74,-14.156 13.385,-48.812 -0,-43.633c3.473,42.083 -15.581,-3.159 -5.692,41.736c2.846,21.543 7.773,44.291 9.486,64.5Zm201.09,-5.691c7.877,-9.531 5.756,-45.693 5.691,-47.427c-3.284,2.225 -7.556,34.98 -5.691,47.427Zm-337.68,-3.794c2.977,77.213 -9.121,-32.852 -15.176,-43.633c-10.594,-31.749 -15.82,-71.214 -20.868,-106.236c-9.563,-70.625 14.511,27.462 17.073,41.735c9.158,33.186 15.9,71.135 18.971,108.134Zm-111.927,-5.691c31.954,1.386 5.486,-7.316 -9.486,-5.692c-25.802,-7.539 -3.031,4.861 9.486,5.692Zm662.079,-5.692c4.263,-32.836 -31.222,-44.858 -30.353,-83.471c1.046,-9.072 3.576,-16.662 7.589,-22.765c8.104,-33.781 -3.823,39.459 11.382,45.53c40.214,30.626 -21.111,-21.837 -3.794,-56.912c1.491,20.936 45.215,67.503 11.382,11.382c0.505,-5.46 -6.201,-26.551 1.897,-17.074c14.475,52.978 1.137,3.011 9.486,-20.867c4.314,-0.955 8.026,-22.653 9.485,-9.486c-3.352,21.892 33.032,48.975 30.353,37.942c-21.478,-16.249 -32.498,-74.849 13.28,-62.604c1.459,8.658 5.171,15.065 9.485,20.868c7.141,53.224 2.962,12.282 30.353,3.794c31.611,-16.671 2.818,60.771 -34.147,41.736c-51.826,25.02 82.857,-18.965 30.353,11.382c-22.911,17.556 -37.361,43.584 -77.78,43.633c-32.886,13.435 57.91,-0.284 56.912,-11.382c-7.453,12.729 -89.348,42.272 -24.661,28.456c44.771,-36.269 -1.235,25.846 -36.045,13.279c-13.488,-3.111 -13.735,-2.868 -5.691,5.692c43.56,0.65 50.805,-13.735 24.662,17.073c-17.855,58.798 -63.681,-23.994 -34.148,3.794Zm-394.591,-5.691c9.09,-13.052 -4.927,-39.838 -3.795,-60.706c-5.74,-9.239 -6.744,-63.672 -13.279,-41.736c8.992,14.786 -4.496,32.18 7.588,41.736c4.045,22.985 5.83,43.771 9.486,60.706Zm24.662,-5.691c3.771,43.05 -8.139,-38.845 -11.383,-47.427c-5.31,-27.57 -12.282,-53.488 -17.074,-81.574c-1.335,-31.543 -5.676,-60.092 -5.691,-92.957c4.843,-12.532 -26.195,-79.22 -1.897,-39.839c14.482,7.731 -1.76,92.392 11.383,55.016c6.901,-46.511 3.065,26.278 -3.795,37.941c5.847,27.033 9.567,56.201 15.177,83.471c3.832,29.047 14.198,51.571 13.28,85.369Zm111.927,-17.074c-4.377,20.731 -19.642,-10.667 -20.868,-20.868c-0.732,-16.443 6.797,24.42 20.868,20.868Zm56.912,-3.794c9.362,-15.871 -6.949,-23.691 -7.588,-32.25c-3.166,9.675 6.596,24.043 7.588,32.25Zm-470.475,-7.588c18.275,-0.695 24.896,-13.048 28.457,-28.456c-8.896,10.073 -14.475,23.468 -28.457,28.456Zm335.783,-0c2.982,21.926 -12.276,-27.608 -9.485,-30.353c0.295,-28.316 7.715,23.872 9.485,30.353Zm83.471,-0c4.563,-23.74 15.16,-76.773 11.383,-70.192c-3.906,8.006 -11.428,-0.575 -20.868,1.897c-6.625,-0.106 -15.96,-5.179 -5.691,-3.794c33.489,5.801 8.667,-9.808 28.456,-7.588c33.134,-48.911 -57.47,-3.379 -45.53,-20.868c7.704,-20.783 69.685,1.104 49.324,-18.971c31.357,-7.85 -18.645,-80.637 9.485,-53.118c7.221,28.372 -3.099,63.998 -3.794,94.854c-6.078,29.869 -14.363,60.148 -18.971,89.162c9.579,36.843 -37.911,-47.861 -3.794,-11.382Zm-443.916,-1.897c25.645,-2.176 33.871,-21.781 43.633,-39.839c-4.798,23.393 -27.986,47.465 -1.897,18.971c12.707,-14.771 1.637,-72.897 -3.794,-22.765c-5.056,21.905 -23.567,33.472 -37.942,43.633Zm497.034,-22.765c5.121,-5.445 4.87,-28.792 1.897,-34.148c-1.324,9.966 -6.436,26.909 -1.897,34.148Zm-53.118,-13.28c5.128,8.154 -13.332,5.781 -15.176,0c-1.385,-6.34 22.932,-9.821 15.176,0Zm-286.458,-1.897c-2.603,7.592 -13.259,-31.894 -17.074,-41.736c-3.058,-17.384 -18.534,-38.622 -5.691,-55.015c10.428,-33.703 8.525,25.51 11.382,36.045c4.187,19.839 7.938,40.123 11.383,60.706Zm9.485,0c5.909,44.538 -4.477,6.799 -5.691,-13.279c-3.961,-20.068 -6.543,-41.52 -9.486,-62.604c-2.915,-21.111 -4.023,-44.039 -9.485,-62.603c0.658,-23.759 -8.645,-40.934 -9.485,-60.707c-1.013,-40.332 15.366,-21.634 15.176,3.794c3.409,20.62 6.276,41.785 5.692,66.398c0.451,23.575 3.318,44.742 5.691,66.398c2.136,20.964 6.797,42.781 7.588,62.603Zm572.917,-9.485c66.106,-3.024 -8.554,-4.739 -15.176,-17.074c-26.218,-40.066 -6.553,21.687 15.176,17.074Zm-656.388,-1.897c2.181,26.071 -21.942,-41.569 -13.28,-68.295c7.023,-35.642 8.249,54.884 13.28,68.295Zm119.516,-5.692c-0.532,9.089 -19.155,-17.088 -18.971,-30.353c-2.643,-5.913 15.977,20.265 18.971,30.353Zm-184.017,-5.691c12.661,5.071 8.689,-36.765 0,-26.559c8.044,33.85 -18.722,-4.297 0,26.559Zm311.121,-13.279c9.745,7.343 -11.942,15.136 -13.28,5.691c-9.745,-7.344 11.942,-15.137 13.28,-5.691Zm-60.707,-3.794c7.644,-2.474 17.026,-3.21 17.074,-13.28c18.756,-17.37 -37.589,23.651 -28.456,0c5.437,3.299 21.767,3.058 20.868,-5.691c1.821,-4.802 5.541,-13.671 -0,-15.177c-3.203,31.332 -30.9,5.822 -17.074,-7.588c-4.997,-2.624 -8.565,-19.895 1.897,-17.074c36.384,-12.238 -26.432,8.85 -11.382,-20.868c8.432,17.603 -16.782,79.977 17.073,79.678Zm-66.397,-1.898c3.758,13.183 -19.785,-15.783 -18.971,-24.662c-1.15,-15.791 17.316,18.252 18.971,24.662Zm284.561,0c32.303,3.133 34.652,-16.863 13.28,-3.794c-22.543,-8.703 -24.588,-25.178 -13.28,3.794Zm-121.413,-5.691c24.932,1.831 46.186,-3.392 64.501,-5.691c21.63,0.131 39.645,9.165 1.897,9.485c-22.276,-7.155 -11.495,36.606 -18.971,47.427c-3.519,19.242 -9.654,35.878 -15.177,53.118c-1.422,34.884 -25.544,9.427 -26.559,-5.691c-4.894,-17.868 -9.809,-35.722 -13.279,-55.015c-4.215,-18.885 -6.393,-43.185 -15.177,-55.015c-9.206,-29.691 4.969,18.238 22.765,11.382Zm127.104,-3.794c31.116,-2.182 22.069,-29.666 3.794,-5.691c-13.533,-20.735 10.8,-16.806 1.897,-37.942c3.565,-17.684 5.781,-46.831 9.486,-56.912c2.872,19.147 -3.514,44.122 -3.794,62.604c6.029,12.545 6.256,-36.481 9.485,-45.53c-3.589,-12.671 -3.456,-67.811 -7.588,-28.456c-6.528,16.572 -6.498,43.08 -11.383,58.809c0.987,18.183 -21.797,41.062 -1.897,53.118Zm-290.252,-22.765c2.737,1.736 -19.115,-15.395 -18.971,-24.662c-0.423,-4.052 23.044,11.468 18.971,24.662Zm115.721,0c-1.639,28.346 -23.057,-7.152 -3.794,-9.485c-8.167,-30.314 8.573,-5.874 3.794,9.485Zm51.221,0c30.875,9.025 90.087,-26.955 34.148,-7.588c-10.013,-1.03 -18.698,3.631 -26.559,1.897c-46.008,-5.716 9.688,-5.35 22.765,-3.794c40.476,-8.791 33.94,-21.83 51.221,-37.942c9.4,-14.547 10.234,47.482 -15.177,39.839c-18.369,14.112 -59.284,24.417 -83.471,9.485c-28.883,-11.898 -39.782,-28.177 -30.354,-55.015c-3.088,-15.934 -0.705,15.086 -3.794,13.28c-3.866,-6.181 -0.159,-43.349 -13.279,-55.016c-15.528,-20.016 -7.42,-69.694 -26.559,-73.986c-65.499,0.867 52.165,-26.416 18.97,18.971c5.491,30.456 14.915,59.597 36.045,72.089c8.485,17.404 51.394,28.775 79.677,17.074c24.812,-11.134 44.302,-30.209 51.221,-56.913c19.519,-46.941 2.282,32.205 -9.485,37.942c-8.977,26.969 -23.649,50.864 -47.427,60.706c-37.568,9.7 -68.301,-4.803 -77.78,-26.559c-17.049,7.169 15.385,49.055 39.838,45.53Zm-104.339,-1.897c11.403,2.87 17.658,-25.136 3.794,-17.074c-20.615,2.078 5.496,12.269 -3.794,17.074Zm-356.65,-11.382c6.6,50.452 -43.164,-68.348 9.485,-37.942c37.807,-10.718 56.307,-38.59 72.089,9.485c11.02,0.334 20.982,7.851 5.691,7.589c-40.334,2.817 -34.384,-42.163 -39.838,13.279c-20.491,44.658 -71.329,-56.734 -47.427,7.589Zm870.758,-3.795c17.508,4.316 26.377,-10.248 15.176,-18.97c-15.169,-9.294 -25.593,8.669 -15.176,18.97Zm-847.993,-3.794c18.415,7.162 22.214,-17.426 11.382,-22.765c-17.387,-4.194 -21.185,15.443 -11.382,22.765Zm271.282,-1.897c-11.286,-3.128 -23.621,-25.918 -13.28,-51.221c-2.504,-29.059 4.748,-48.371 3.794,-75.883c-6.731,-27.432 20.739,-42.217 28.456,-39.838c-12.758,1.161 -9.703,68.086 -17.073,36.044c4.978,-50.73 -14.684,-7.127 -0,11.382c6.759,9.524 3.663,51.827 1.897,70.192c4.035,32.344 -9.535,58.261 -5.692,13.28c-6.58,-28.288 -9.88,29.274 1.898,36.044Zm53.118,-9.485c7.277,-4.03 24.652,0.381 17.073,-7.588c-2.149,-1.306 -21.837,-5.474 -17.073,7.588Zm15.176,-7.588c18.3,-28.307 -33.138,-28.081 -18.97,-13.28c31.757,-13.448 -6.652,7.793 18.97,13.28Zm531.182,-1.898c60.262,-39.038 15.265,32.951 13.279,43.633c24.205,-67.82 -10.363,2.986 -41.735,-11.382c-2.544,-8.839 -10.994,-11.772 -9.486,-24.662c11.658,-34.948 -26.489,32.506 -43.633,-1.897c26.768,-30.357 47.704,-34.114 81.575,-5.692Zm-665.874,-1.897c-2.842,24.634 -7.52,3.203 -11.383,-3.794c8.535,-19.678 18.429,-7.967 11.383,3.794Zm478.063,-3.794c4.756,31.917 -4.676,62.562 -5.691,91.06c-1.764,16.045 -14.152,89.745 -11.383,34.147c4.197,-29.186 8.232,-61.281 11.383,-89.162c1.132,-17.18 13.3,-85.839 5.691,-36.045Zm195.399,-15.176c73.584,-23.183 -3.123,29.097 -26.559,1.897c-5.392,-4.851 -12.967,-11.851 -13.28,-18.971c-5.662,-33.906 12.299,29.018 39.839,17.074Zm-331.988,-3.795c13.52,5.178 -12.887,8.79 -7.589,-22.764c1.911,-36.451 5.718,21.941 7.589,22.764Zm-582.403,-1.897c24.378,1.615 43.438,-2.094 53.118,-15.176c12.485,-31.898 13.259,12.71 -3.794,13.279c-12.274,9.996 -32.465,15.469 -53.118,11.383c-21.037,-13.908 -11.87,-31.084 3.794,-9.486Zm923.876,-5.691c-23.84,7.105 -51.446,-7.717 -41.735,-37.941c-9.791,-20.561 -21.526,-39.183 -22.765,-68.295c1.937,-28.415 27.856,-32.854 30.353,-60.707c4.913,9.968 15.797,17.252 -3.794,43.633c-4.138,13.752 10.164,60.896 9.485,51.221c-9.821,-18.781 41.368,-3.756 32.251,20.868c1.415,53.685 4.38,-43.267 22.764,-7.588c2.47,24.239 -10.369,50.164 -26.559,58.809Zm-531.181,-3.794c-0.687,25.112 -7.129,-15.353 -11.382,-17.074c-5.069,-21.761 9.775,14.433 11.382,17.074Zm597.579,-39.839c4.944,26.007 -10.65,-12.386 -15.177,-13.279c-5.292,-18.483 18.833,-0.537 15.177,13.279Zm-256.105,-17.073c7.381,29.972 -9.996,46.063 -17.074,66.397c-3.826,-31.237 9.116,-51.765 17.074,-66.397Zm-343.371,-9.486c-1.347,5.394 -16.998,-3.388 -20.868,-7.588c-3.904,-6.04 20.747,3.603 20.868,7.588Zm569.123,-5.691c-1.095,-15.178 -15.034,-32.601 -17.074,-49.324c-1.349,-21.752 -12.145,-37.433 -22.765,-47.427c6.063,10.212 14.116,33.52 17.074,49.324c1.652,21.449 12.359,37.219 22.765,47.427Zm-13.28,-1.897c-2.817,-14.689 -41.409,-14.979 -43.632,-39.839c-7.304,24.81 24.808,31.581 43.632,39.839Zm24.662,-9.485c8.949,36.082 -30.391,13.374 -41.735,9.485c-18.351,-5.564 -41.266,-16.144 -36.045,-37.941c6.513,-15.904 21.9,-42.349 5.691,-56.913c-29.34,-7.66 -16.817,39.661 -39.838,28.456c13.033,-16.39 12.995,-36.313 32.25,-41.735c10.525,-10.721 44.327,-20.316 58.809,-7.589c8.869,23.348 -1.502,41.928 5.692,64.501c14.393,10.229 12.046,14.162 15.176,41.736Zm-736.065,-1.897c42.416,-2.455 -8.955,-4.03 -11.383,-15.177c-10.339,-31.901 -6.091,20.38 11.383,15.177Zm411.665,-5.692c-7.241,42.618 -22.4,-20.894 -22.765,-32.25c-10.46,-26.331 25.873,18.495 22.765,32.25Zm24.662,-1.897c0.211,14.151 -2.716,44.048 -9.485,51.221c-4.728,-18.035 2.218,-47.751 -9.486,-58.809c0.674,-11.179 -29.928,-40.275 -13.279,-28.456c7.71,15.053 29.004,16.527 32.25,36.044Zm-125.207,-7.588c-17.426,5.164 -42.136,13.925 -72.089,11.382c-20.133,-1.151 -37.85,-10.468 -53.118,-26.559c-22.368,-12.291 -4.418,-46.414 -7.588,-72.089c-4.274,-24.811 -14.754,-43.427 -17.074,-70.191c-3.204,-25.996 -3.807,-58.745 7.588,-75.883c18.909,-19.969 13.143,-13.396 47.427,-17.074c-38.436,4.49 -13.34,-42.533 13.28,-32.25c26.493,14.522 48.645,-9.973 56.912,13.279c32.306,14.12 -32.372,-30.07 18.971,-3.794c4.849,24.235 28.217,29.962 37.941,49.324c7.234,22.207 3.127,56.59 0,79.677c-2.553,26.533 -16.739,41.44 -15.176,72.089c15.135,10.474 -3.605,74.838 15.176,37.942c-7.064,10.895 51.544,22.173 30.354,30.353c-15.974,-14.386 -43.753,-24.966 -43.633,-9.486c-8.672,2.62 -8.133,4.517 1.897,5.692c43.805,4.232 -18.669,2.318 -20.868,7.588Zm-149.869,-18.971c47.626,2.757 -37.186,11.904 -7.588,-13.279c25.026,-30.422 3.619,12.15 7.588,13.279Zm210.576,-3.794c-8.607,8.15 -16.078,-15.34 -24.662,-15.177c3.781,-3.323 21.827,9.59 24.662,15.177Zm358.547,-7.588c11.447,3.828 13.881,-14.579 13.28,-1.897c-33.14,18.339 -13.269,-33.157 -17.074,-43.633c1.354,12.086 3.633,16.751 5.691,1.897c19.582,-3.487 -17.569,32.814 -1.897,43.633Zm-356.65,-3.794c-3.106,2.648 -18.438,-12.98 -28.456,-11.383c12.215,-11.758 21.571,9.846 28.456,11.383Zm-127.104,-7.589c37.892,-0.614 62.023,-17.495 73.986,-41.735c-5.749,-2.002 -32.856,37.175 -62.604,34.147c-36.826,-1.681 -58.991,-20.526 -72.089,-43.633c2.538,29.972 31.598,45.517 60.707,51.221Zm464.783,-3.794c1.755,-19.405 -14.653,-35.42 -34.147,-36.044c9.148,8.502 30.247,19.826 34.147,36.044Zm-464.783,-9.485c26.49,6.552 54.047,-21.881 17.073,-5.691c-28.198,-2.463 -54.209,-7.35 -17.073,5.691Zm-98.648,-3.794c12.572,0.337 -11.297,12.34 -13.28,9.485c-1.066,-11.534 2.047,-19.09 13.28,-9.485Zm-309.224,-17.074c7.473,0.451 3.491,52.919 0,41.736c-10.709,-0.666 -16.463,-47.029 0,-41.736Zm328.194,-5.691c-16.802,38.486 -36.387,-10.14 -15.176,-28.456c-5.543,-25.057 -11.278,-18.863 -20.868,-53.119c-0.672,-60.526 26.743,-6.518 20.868,11.383c11.875,25.737 1.99,49.117 15.176,70.192Zm195.399,-1.897c-16.557,44.776 -33.153,-14.91 -15.176,-28.457c1.159,-29.491 17.476,-48.781 13.279,-77.78c36.28,-5.636 7.054,48.52 3.794,55.016c0.808,-17.886 -12.665,39.944 -1.897,51.221Zm-113.824,-1.897c31.068,-1.945 65.303,-45.354 11.382,-32.251c-56.967,-11.422 -44.207,19.675 -11.382,32.251Zm-498.931,-5.692l75.883,0c21.395,-3.896 46.446,-4.145 64.5,-11.382c21.534,-3.758 40.601,-9.99 51.221,-24.662c-4.906,-19.483 -35.769,-16.292 -53.118,-20.868c-28.648,-2.013 -57.734,-3.824 -7.588,-3.794c23.895,1.396 47.18,3.411 66.398,9.485c32.257,5.158 9.58,30.775 -7.589,34.148c-18.656,5.733 -39.535,12.528 -58.809,15.176c-19.834,5.458 -44.739,5.853 -68.295,7.589c-24.795,-0.498 -52.111,1.519 -73.986,-1.898c-18.904,-4.057 -47.636,-7.11 -45.53,-26.559c12.942,-11.447 32.605,-19.456 51.221,-22.765c18.692,-6.599 43.622,-6.969 64.501,-11.382c39.774,1.098 -27.257,3.088 -34.147,7.588c-20.555,4.737 -40.956,9.636 -56.913,18.971c-20.839,22.683 17.948,28.811 32.251,30.353Zm11.382,-9.485c23.691,-0.698 55.653,3.589 66.398,-7.588c19.885,-24.689 22.543,26.802 34.147,-9.486c-19.523,-17.796 -37.695,2.108 -51.221,7.589c-13.79,2.041 -64.539,3.957 -49.324,9.485Zm478.063,-0c7.799,0.871 41.307,-2.442 26.559,3.794c-9.208,7.446 -31.385,-2.658 -26.559,-3.794Zm-451.504,-15.177c29.949,6.849 39.691,-9.887 55.015,-15.176c17.755,1.496 71.144,-0.124 30.354,-5.692c-19.764,-4.403 -51.189,-3.577 -55.016,11.383c-23.121,-1.719 -48.043,-12.805 -30.353,9.485Zm459.093,-9.485c17.474,0.592 46.747,-9.92 28.456,-28.456c-11.939,-12.874 8.84,27.984 -24.662,20.868c-37.134,5.9 -3.512,-33.628 -13.28,-24.662c-21.905,3.727 -15.201,38.687 9.486,32.25Zm-326.298,-5.691c-9.468,27.024 -57.602,26.942 -89.162,34.147c-34.138,5.735 -80.873,2.766 -108.134,-9.485c10.683,-25.808 56.649,-27.897 89.163,-34.148c33.891,-6.556 83.365,-4.448 108.133,9.486Zm282.665,-47.427c41.407,-2.106 38.032,-17.453 -5.691,-7.589c-37.248,-21.528 -30.424,3.461 5.691,7.589Zm87.265,-1.897c37.521,-3.637 64.103,-15.458 24.662,-32.251c-4.837,-3.834 -22.601,-1.8 -24.662,0c0.207,-1.356 -28.702,27.225 0,32.251Zm-94.853,-9.486c8.665,-0.529 20.211,1.372 15.176,-7.588c33.804,16.106 -0.328,-14.198 9.486,-11.382c-33.294,-13.307 -68.536,20.727 -24.662,18.97Zm102.442,0c23.493,-10.079 41.623,-10.84 11.382,1.897c-26.84,5.866 -41.779,-19.302 -11.382,-1.897Zm75.883,-13.279c16.436,5.598 33.665,-31.827 28.456,-11.383c7.412,22.799 -50.527,9.313 -28.456,11.383Zm-129.001,-3.794c16.508,0.138 17.045,-6.2 1.897,-3.795c-11.743,-14.489 -39.295,-33.441 -66.398,-18.97c-29.71,20.814 54.226,-7.729 64.501,22.765Zm20.867,-5.692c14.225,-17.599 62.655,-10.965 66.398,-13.279c-16.992,-17.567 -63.903,-10.656 -66.398,13.279Zm-17.073,-5.691c11.363,1.121 17.058,-7.759 17.073,-15.176c4.595,-65.448 -6.634,-14.265 -13.279,7.588c-8.628,-1.615 -7.179,-17.639 -9.486,-22.765c-3.86,-63.949 -15.195,34.902 5.692,30.353Zm-123.31,-13.279c1.603,34.695 -1.072,14.127 -11.383,-0c-33.785,-6.927 2.812,-13.898 11.383,-0Zm125.207,-0c4.796,-5.817 6.518,-33.359 -0,-36.045c1.811,8.283 -3.817,28.058 -0,36.045Zm-144.178,-15.177c-4.415,-6.397 -27.032,-30.306 -18.971,-64.501c-0.188,-27.822 9.935,-64.054 13.28,-60.706c0.26,19.386 -12.775,38.706 -5.692,66.398c-18.014,32.404 22.485,31.508 11.383,58.809Zm36.044,0c-11.441,16.455 -21.854,-51.773 -15.176,-79.677c5.082,-34.703 25.77,-56.252 47.427,-72.089c29.619,-18.664 -20.03,37.924 -28.456,47.427c-6.145,28.151 -15.448,76.96 -3.795,104.339Zm218.164,-24.662c-0.36,32.73 -8.214,-21.678 -18.971,-22.765c-8.25,-14.85 -32.654,-16.924 -45.529,-24.662c-25.924,-8.229 29.67,1.544 34.147,7.588c9.548,13.553 29.014,20.565 30.353,39.839Zm-246.62,-15.177c-0.571,28.762 -13.587,-27.964 -3.794,-37.941c1.92,-23.372 9.25,-41.341 20.868,-55.015c12.543,-12.747 27.635,-22.957 41.736,-34.148c-0.082,-24.47 46.969,-5.093 37.941,-36.044c-0.605,-20.369 21.847,30.585 -7.588,26.559c-17.309,7.983 -33.383,17.208 -45.53,30.353c-12.242,13.05 -27.128,23.463 -34.147,41.736c-6.881,17.508 -11.313,40.751 -9.486,64.5Zm125.207,-24.662c-5.7,-4.224 -44.978,-2.303 -58.809,1.898c-13.217,10.809 -24.156,23.905 -30.353,41.735c-4.411,-21.611 18.906,-27.213 24.662,-43.633c10.917,-17.622 -22.513,13.255 -22.765,20.868c-0.892,-11.265 0.406,-43.771 22.765,-41.735c26.136,2.037 41.506,-8.983 36.044,5.691c-6.82,-3.142 -67.699,6.245 -30.353,7.588c20.856,1.565 51.606,-8.772 58.809,7.588Zm110.031,0c0.662,-18.232 -42.734,-12.469 -58.81,-13.279c5.466,-2.62 -7.043,-4.517 -3.794,-5.691c30.788,-10.292 7.869,-0.937 24.662,-1.897c28.743,-2.186 50.753,2.369 45.53,34.147c-11.726,-4.502 -40.586,-34.273 -7.588,-13.28Zm-100.545,-11.382c21.372,-1.085 28.217,-23.882 13.279,1.897c-14.939,16.336 -31.266,-28.145 -13.279,-1.897Zm172.634,-1.897c2.009,36.528 -2.842,75.67 -24.662,92.957c-27.942,59.302 -19.734,-9.656 5.691,-17.074c10.14,-23.124 24.165,-54.279 9.485,-89.163c1.376,-11.982 5.796,-12.623 -3.794,-18.97c-4.308,-45.504 15.49,14.176 13.28,32.25Zm-39.839,-1.897c4.589,34.259 -1.552,84.782 -17.074,89.162c13.473,-27.103 6.137,-77.958 0,-104.339c-1.233,-21.014 -54.751,-58.671 -30.353,-56.912c22.983,16.802 43.212,38.81 47.427,72.089Zm17.074,-0c3.949,6.294 0.76,24.059 1.897,30.353c-9.453,46.37 -10.305,31.547 -5.691,-7.588c-1.934,-39.799 -15.448,-68.028 -39.839,-85.369c-5.691,-4.553 -11.383,-13.435 -17.074,-15.176c-43.917,-20.629 -1.474,-19.284 13.28,-0c20.771,20.959 45.738,37.736 47.427,77.78Zm-163.149,-1.897c-12.348,-8.503 -53.469,-28.904 -75.883,-13.28c18.225,-25.043 66.764,-1.711 75.883,13.28Zm111.928,-7.589c-2.034,-1.586 -20.172,-0.578 -34.148,0c9.586,-6.986 24.368,-5.059 34.148,0Zm1.897,-5.691c-11.751,-12.608 -60.951,-1.18 -75.883,15.177c7.522,-19.102 58.259,-38.701 75.883,-15.177Zm-123.31,-7.588c-3.326,6.977 -45.101,-24.522 -62.604,-1.897c10.172,-26.368 51.864,-12.515 62.604,1.897Zm36.044,-3.794c9.419,16.14 -9.897,24.931 -15.176,13.279c-9.218,-13.702 11.105,-25.347 15.176,-13.279Zm81.574,-3.794c-13.643,-9.85 -56.035,6.814 -62.603,7.588c11.859,-12.107 48.284,-27.136 62.603,-7.588Zm-132.795,-15.177c22.655,-1.853 49.817,-7.45 73.986,-1.897c31.827,-2.817 45.192,-2.567 9.485,7.588c-16.597,7.884 -48.383,-8.385 -68.294,3.794c-18.482,-4.401 -56.567,-20.327 -15.177,-9.485Zm182.119,-0c-2.191,7.179 -16.87,-28.282 -28.456,-30.353c4.115,-7.985 21.876,21.943 28.456,30.353Zm-199.193,-13.28c11.834,-11.268 38.589,-10.989 53.119,-17.073c40.066,-3.631 10.018,3.959 41.735,5.691c24.421,12.699 35.889,9.512 11.383,-5.691c-39.074,-6.196 28.059,-10.789 17.073,11.382c0.239,20.602 -40.908,0.55 -49.324,5.691c-22.07,5.995 -45.761,-5.583 -58.809,0c-27.676,15.955 -17.796,-18.959 -1.897,-22.764c34.73,-2.12 -20.416,5.566 -13.28,22.764Zm-73.986,-3.794c3.068,6.551 -10.369,10.878 -20.867,9.486c4.429,-4.677 12.334,-14.536 20.867,-9.486Zm280.768,-13.279c1.185,-0.302 -34.777,7.947 -22.765,-11.383c0.343,-12.972 13.623,10.451 22.765,11.383Zm-269.385,-5.691c4.35,9.891 -16.182,8.138 -22.765,3.794c7.114,0.195 22.403,-14.128 22.765,-3.794Zm98.648,-9.486c18.265,1.48 99.568,-5.763 49.324,3.794c-15.397,7.797 -96.597,-4.342 -49.324,-3.794Zm106.236,-3.794c-4.761,1.193 -57.825,-2.946 -43.633,-22.765c-2.202,-5.871 24.071,25.888 43.633,22.765Zm39.839,-3.794c6.956,6.926 -29.627,10.227 -22.765,-5.691c1.59,-21.346 9.013,13.503 22.765,5.691Zm-87.266,-3.794c-10.508,5.634 -54.29,11.01 -66.397,-1.897c1.777,-4.405 50.354,-1.583 66.397,1.897Zm-136.589,-1.897c10.536,11.919 -15.513,15.48 -18.971,7.588c-0.104,-0.433 21.446,-10.32 18.971,-7.588Zm7.588,-9.486c16.294,1.45 21.896,-23.782 18.971,3.794c-5.318,15.57 -31.494,-7.91 -18.971,-3.794Zm180.222,0c24.279,-5.224 -2.367,16.643 -7.588,3.794c-7.249,-13.896 2.094,-18.462 7.588,-3.794Zm-113.824,-17.073c6.067,-4.051 0.707,-19.529 7.588,-22.765c9.816,44.165 -23.273,22.491 -22.765,-1.897c-6.389,-19.311 5.798,-56.976 34.148,-64.501c19.636,-10.644 52.469,20.054 55.015,45.53c-6.742,3.989 -0.89,16.25 -0,20.868c-4.136,43.001 -41.943,2.906 -15.177,9.485c1.391,-23.49 -39.417,-85.151 -5.691,-45.53c19.686,50.76 8.154,-43.481 -30.353,-22.765c-10.95,-0.834 -16.254,3.982 -20.868,9.486c-17.127,38.231 -1.628,30.216 7.588,1.897c23.036,-0.653 -25.656,40.508 -9.485,70.192Zm43.633,-0c1.864,20.052 -24.774,-21.8 -28.457,11.382c-18.282,-20.79 29.509,-43.333 28.457,-11.382Zm-20.868,-28.457c19.312,-3.151 27.206,-23.421 17.073,5.692c-27.82,13.664 -27.741,-33.592 -17.073,-5.692Zm9.485,-13.279c2.851,24.112 -16.118,1.673 -5.691,-13.28c-1.69,-29.943 10.857,6.608 5.691,13.28Z" style="fill:#a98ad1;fill-rule:nonzero;"/></g></svg>