<?xml version="1.0" encoding="UTF-8" standalone="no"?><!DOCTYPE svg PUBLIC "-//W3C//DTD SVG 1.1//EN" "http://www.w3.org/Graphics/SVG/1.1/DTD/svg11.dtd"><svg width="100%" height="100%" viewBox="0 0 5000 2500" version="1.1" xmlns="http://www.w3.org/2000/svg" xmlns:xlink="http://www.w3.org/1999/xlink" xml:space="preserve" xmlns:serif="http://www.serif.com/" style="fill-rule:evenodd;clip-rule:evenodd;stroke-linejoin:round;stroke-miterlimit:2;"><g id="Layer1"><path d="M1222.54,2342.85c16.011,-4.518 26.075,-17.989 37.093,-25.29c13.582,-6.946 22.705,-21.361 33.72,-28.662c9.14,-11.397 24.58,-19.49 33.72,-28.662c10.519,-7.334 24.103,-24.009 30.348,-20.232c13.856,6.676 31.761,12.308 45.522,16.86c17.189,3.338 35.422,8.632 52.266,10.116c17.624,2.9 42.714,1.349 60.697,1.686c16.523,-3.709 38.065,-2.394 52.266,-8.43c19.603,-0.927 36.003,-8.059 53.952,-8.43c16.778,-3.76 36.511,-7.553 50.58,-11.802c27.921,-1.197 2.194,-27.549 0,-35.406c-9.905,-10.319 -15.674,-24.785 -26.976,-33.72c-2.205,-10.622 -36.795,-30.045 -5.058,-23.605c17.071,3.153 34.896,5.564 52.266,8.431c17.737,2.781 37.598,6.457 52.267,10.116c18.36,1.871 32.135,8.328 50.58,10.116c19.507,1.028 45.927,-1.855 60.696,1.686c23.2,9.542 34.816,-7.503 38.778,-20.232c6.137,-14.382 12.241,-31.815 10.116,-52.267c-1.618,-18.613 -8.413,-32.051 -13.488,-47.208c-6.204,-14.331 -13.521,-30.533 -20.232,-42.15c-5.985,-14.23 -15.241,-25.223 -21.918,-38.778c-8.936,-11.583 -16.017,-28.039 -26.976,-35.406c-7.891,-12.342 -18.007,-22.458 -30.348,-30.349c-9.931,-10.605 -24.228,-19.827 -35.406,-26.976c-28.359,-7.519 -8.161,-16.438 6.744,-21.918c15.562,-4.957 30.247,-13.825 42.15,-20.232c14.904,-5.311 26.622,-13.842 40.464,-20.232c16.574,-8.986 37.463,3.136 47.208,8.43c14.955,5.277 26.437,14.028 37.092,23.604c10.1,10.42 23.132,20.924 28.663,33.72c10.116,10.116 16.034,24.431 23.604,37.093c-7.031,0.556 -38.509,2.073 -52.267,3.372c-18.63,1.905 -38.019,6.035 -55.638,6.744c-9.593,3.557 -52.317,5.395 -38.778,10.116c19.254,-0.978 36.637,-3.844 53.952,-6.744c19.406,-1.113 39.925,-4.148 57.325,-5.058c9.643,-7.048 55.587,8.008 40.464,-13.488c-6.576,-13.961 -17.72,-26.336 -23.604,-38.779c-10.116,-10.116 -20.232,-20.232 -30.349,-30.348c-8.581,-11.954 -24.902,-19.153 -37.092,-25.29c-10.571,-10.099 -43.532,-6.676 -25.29,-20.232c10.824,-9.711 27.01,-17.059 40.464,-21.918c14.5,-5.738 26.521,-13.948 40.465,-20.232c10.807,-8.105 35.423,-12.143 26.976,-32.034c-4.553,-15.677 -16.405,-24.056 -28.662,-32.034c-13.758,-6.765 -26.707,-17.365 -40.465,-21.919c3.49,-8.895 31.293,-10.264 30.348,-23.604c-10.065,10.467 -30.786,13.271 -45.522,16.86c-20.384,-0.148 -38.845,-5.218 -53.952,-8.43c-16.793,-3.741 -40.194,-3.871 -59.01,-3.372c-18.378,1.857 -33.72,6.751 -50.58,10.116c-13.843,6.68 -34.429,9.641 -47.209,15.174c-14.095,6.136 -31.052,9.413 -43.836,16.861c-16.327,4.203 -32.858,11.203 -45.522,16.86c-15.823,4.407 -29.24,11.225 -43.836,16.86c-15.64,1.47 -39.267,23.85 -13.488,8.43c18.01,-2.521 32.039,-12.023 47.208,-15.174c14.66,-5.871 30.862,-13.2 45.522,-16.86c12.783,-7.447 29.741,-10.725 43.836,-16.86c15.984,-4.543 33.434,-10.632 47.209,-15.175c16.59,-3.636 31.292,-9.168 48.894,-11.802c20.013,-4.918 30.904,-0.922 53.952,-1.686c16.405,3.829 34.175,6.288 52.266,8.43c-1.618,6.777 -36.654,3.959 -48.894,6.744c-22.66,-2.124 -40.093,3.971 -52.266,10.117c-15.511,5.027 -28.477,15.583 -40.464,21.918c-13.556,6.669 -24.549,15.926 -38.779,21.918c-13.218,7.31 -28.297,15.764 -40.464,21.918c-13.326,7.204 -30.638,13.424 -42.15,20.232c-14.129,6.402 -30.333,13.729 -42.15,20.232c-14.4,5.834 -27.748,12.712 -42.15,18.546c-14.353,6.171 -29.372,14.685 -43.836,18.546c-10.057,17.012 -0.183,-24.734 -8.43,-33.72c-9.884,-16.388 -20.917,-24.751 1.686,-30.348c9.119,-11.111 24.125,-16.341 33.72,-26.976c13.204,-7.328 25.988,-18.074 37.092,-25.29c13.835,-6.395 26.48,-13.986 40.464,-20.232c15.531,-4.999 31.697,-12.366 42.15,-20.233c13.647,-6.582 25.127,-15.339 37.092,-23.604c12.325,-8.2 25.021,-19.035 37.092,-25.29c13.219,-7.31 30.062,-14.002 45.523,-16.86c15.848,-4.684 34.664,-9.398 52.266,-10.116c14.247,-3.935 39.402,-4.803 55.638,-1.686c18.327,2.197 34.209,9.86 40.464,21.918c7.908,12.317 2.883,37.585 26.976,33.72c39.554,-5.823 -8.548,-1.913 -13.488,-11.802c-1.214,-19.013 -8.447,-32.025 -20.232,-40.464c-9.408,-11.122 -31.107,-12.948 -47.208,-15.174c-21.463,-0.931 -42.049,2.005 -57.324,5.058c-17.551,2.983 -37.16,6.908 -50.58,11.802c-14.517,2.327 -31.647,14.385 -37.093,16.86c7.942,-12.596 20.266,-23.793 26.977,-35.406c10.2,-12.814 2.832,-35.912 -1.686,-48.894c-6.778,-13.748 -13.455,-30.613 -20.233,-42.15c-6.507,-13.729 -13.977,-26.496 -25.29,-35.406c-12.442,-8.088 -31.976,-12.086 -48.894,-13.489c-17,-3.53 -39.076,-4.985 -57.324,-5.058c-21.033,0.501 -40.635,-3.427 -57.324,-5.058c-21.222,-0.993 -39.699,0.768 -59.011,1.686c-17.689,5.637 -34.87,-2.429 -55.638,0c-18.3,1.929 -28.212,12.254 -40.464,20.233c-6.896,13.636 -21.255,22.806 -28.662,33.72c-11.222,9.006 -22.024,18.441 -35.406,25.29c-28.952,10.187 -12.544,14.918 5.058,3.372c12.883,-7.648 28.283,-15.78 35.406,-26.976c11.987,-8.543 19.974,-24.088 30.348,-32.034c9.802,-10.427 24.741,-15.726 42.15,-18.547c20.841,1.464 37.843,4.099 55.638,0c19.948,1.845 39.568,-5.813 55.639,1.686c18.374,2.157 39.838,4.224 57.324,5.058c20.003,0.228 37.788,2.678 55.638,5.059c31.36,4.705 25.474,8.431 -5.058,6.744c-19.215,-4.753 -41.658,0.677 -55.638,3.372c-34.609,10.444 10,4.722 20.232,1.686c18.113,-4.994 38.111,1.021 57.324,-0c20.055,-6.404 31.68,10.637 38.778,20.232c6.508,13.715 13.725,26.748 20.233,40.464c4.231,14.238 15.915,31.875 10.116,48.894c-7.149,13.073 -16.136,24.322 -23.605,37.092c-9.542,10.988 -18.841,25.221 -32.034,30.348c-11.298,9.233 -25.595,18.467 -35.406,26.976c-1.984,-3.286 15.016,-24.28 23.604,-28.662c6.697,-13.533 16.488,-23.98 21.918,-38.778c4.232,-14.651 9.172,-37.593 5.058,-53.952c-3.85,4.077 -5.166,31.933 -8.43,45.522c-4.693,15.837 -16.809,27.253 -25.29,37.092c-10.087,10.143 -21.334,19.131 -26.976,33.72c-7.492,13.04 -21.109,22.954 -37.092,25.291c-5.704,4.956 -55.269,11.682 -33.72,1.686c14.118,-6.412 25.915,-18.147 37.092,-25.291c9.499,-10.729 22.297,-18.168 26.976,-33.72c5.695,-14.835 16.061,-28.001 15.174,-47.208c-4.857,-4.581 -11.689,28.02 -20.232,32.034c-5.517,15.014 -15.462,28.6 -26.976,35.406c-9.71,10.521 -20.038,20.428 -32.034,28.662c-10.666,9.867 -24.985,19.078 -45.522,16.861c-19.325,1.205 -41.545,2.517 -60.697,1.686c-18.418,2.112 -42.125,1.937 -60.696,1.686c-20.763,-1.029 -39.279,5.525 -53.952,-3.372c-12.301,-8.23 -28.824,-15.239 -45.522,-16.861c-20.553,-0.323 -34.722,5.745 -50.581,10.117c-16.742,3.304 -39.44,-3.308 -53.952,-5.058c-22.68,2.449 -24.55,-15.916 -26.976,-33.721c-5.179,-15.351 -16.432,-27.63 -21.918,-40.464c-6.739,-13.791 -12.508,-31.553 -21.918,-40.464c-21.723,-19.042 -7.892,-16.061 13.488,-15.174c17.607,-2.623 34.383,-6.083 55.638,-5.058c18.126,-2.404 38.348,-5.714 53.952,-8.43c17.277,-2.954 36.585,-3.883 53.953,-6.744c20.171,-0.359 33.509,-10.553 45.522,-16.86c13.105,-7.124 32.026,-8.44 48.894,-11.802c17.978,-2.553 33.712,-10.351 45.522,-16.86c13.652,-6.879 29.337,-14.726 42.15,-20.232c17.021,-3.512 31.569,-12.494 48.895,-13.488c-6.576,-5.76 -32.78,2.985 -43.837,6.744c-15.487,5.042 -30.806,13.255 -43.836,18.546c-12.582,7.646 -26.371,14.095 -42.15,18.546c-15.87,4.66 -40.847,3.215 -52.266,10.116c-14.287,5.941 -25.54,14.926 -42.15,18.546c-18.068,2.463 -39.227,4.835 -55.639,6.744c-17.918,2.611 -37.667,6.395 -53.952,8.43c-18.627,1.3 -35.983,2.085 -53.952,5.058c-19.365,0.863 -38.235,2.231 -53.952,6.744c-17.602,2.929 -36.42,7.643 -52.266,10.116c-17.525,4.406 -40.712,1.578 -50.581,-6.744c-14.329,-6.203 -29.791,-14.27 -43.836,-18.546c-14.373,-5.8 -39.259,-3.413 -53.952,-0c-11.62,8.91 -27.979,16.083 -47.208,15.174c-19.337,1.194 -30.168,13.894 -33.72,28.662c-4.146,14.761 -28.157,19.413 -20.233,38.778c11.856,8.375 31.406,9.061 50.581,10.116c15.779,4.751 40.887,3.175 59.01,3.372c17.69,2.541 30.925,9.543 47.208,13.488c17.988,2.543 37.123,6.94 53.952,8.43c17.675,2.555 35.258,5.21 55.639,5.058c21.66,-1.129 40.676,3.386 60.696,1.686c24.686,2.189 1.138,30.365 5.058,43.837c5.522,16.683 -10.369,57.439 3.372,35.406c9.551,-7.815 49.58,-9.28 6.744,-10.116c-10.374,-14.542 -1.588,-38.325 -0,-52.267c5.24,-21.403 3.149,-9.134 25.29,-18.546c11.111,-5.319 -34.469,-3.513 -45.522,-3.372c-21.873,1.644 -37.44,-3.028 -59.01,-1.686c-19.779,-0.752 -40.532,-3.53 -57.325,-5.058c-17.089,-3.441 -36.626,-7.435 -52.266,-10.116c-15.847,-4.683 -32.105,-11.955 -50.58,-11.802c-21.655,1.425 -38.507,-1.959 -57.324,-3.372c-16.503,-1.967 -48.441,0.658 -38.778,-20.232c12.021,-22.903 14.787,2.059 37.092,0c18.119,-1.736 34.892,-11.611 53.952,-5.058c31.274,-0.463 -15.941,-8.867 -26.976,-6.744c-13.234,7.083 -37.141,12.05 -45.522,0c-3.937,-17.374 10.291,-32.457 25.29,-33.72c18.645,-1.885 38.508,-5.554 48.894,-13.488c11.617,-6.486 35.694,-9.686 50.58,-3.372c16.477,4.055 32.279,11.783 43.836,18.546c14.677,4.729 33.253,15.171 47.209,8.43c17.849,-2.681 37.387,-6.675 52.266,-10.116c21.296,-7.815 35.527,3.062 40.464,16.86c9.492,11.038 13.434,30.628 20.232,42.15c8.959,11.571 17.025,27.037 21.918,40.464c-3.176,23.707 14.186,29.876 32.034,30.349c7.842,3.623 55.379,2.1 35.406,8.43c-15.948,4.582 -29.962,14.1 -42.15,20.232c-14.924,5.306 -24.958,15.509 -40.464,20.232c-14.302,6.228 -31.564,12.498 -47.208,15.174c-16.531,3.699 -35.209,5.257 -53.952,6.744c-21.362,-0.831 -43.582,0.48 -60.697,1.686c-22.145,1.615 -41.877,-2.185 -60.696,-1.686c-18.426,-2.104 -39.989,-4.074 -53.952,-8.43c-17.412,-2.819 -34.192,-6.274 -45.522,-15.174c-12.146,-8.385 -26.975,-17.088 -38.779,-23.604c-4.162,-5.549 -40.86,-24.058 -21.918,-8.43c12.597,7.934 25.029,19.033 38.779,23.604c12.699,7.545 34.008,21.474 3.372,10.116c-15.626,-4.905 -35.486,-8.577 -47.209,-15.174c-9.485,-2.528 -45.545,-16.525 -33.72,-8.43c5.453,-2.054 5.711,30.466 13.488,38.778c3.795,16.435 12.123,28.343 18.546,42.15c9.278,11.246 17.547,26.521 26.976,35.406c8.446,11.785 22.699,17.771 32.035,28.662c13.198,7.334 26.279,17.788 40.464,21.918c8.31,5.362 46.328,15.528 11.802,11.802c-18.556,-1.972 -38.608,-5.462 -55.638,-6.744c-17.732,-2.798 -36.33,-7.738 -50.581,-11.802c-18.278,-2.259 -33.271,-10.79 -47.208,-15.174c-13.984,-6.255 -28.625,-11.835 -42.15,-18.546c-13.341,-6.508 -33.899,-12.611 -48.894,-10.116c-21.434,1.197 -39.023,-1.45 -55.638,-5.058c-19.506,-1.028 -36.329,-7.739 -52.267,-10.116c-14.095,-6.137 -31.053,-9.408 -43.836,-16.86c-16.137,-4.4 -30.456,-13.606 -43.836,-18.546c-12.257,-8.273 -28.418,-15.645 -38.778,-23.604c-14.625,-5.906 -26.159,-17.904 -38.778,-23.604c-10.041,-10.189 -23.679,-16.788 -33.721,-26.976c15.387,5.144 34.596,9.467 50.581,11.802c16.902,3.328 33.77,6.696 50.58,10.116c15.348,5.182 34.954,9.108 47.208,15.174c15.823,4.407 29.241,11.225 43.836,16.86c13.089,7.442 30.654,13.409 40.464,21.918c-1.074,-13.389 -24.458,-17.877 -33.72,-25.29c-13.747,-6.783 -30.7,-13.362 -43.836,-18.546c-16.25,-3.979 -29.647,-10.819 -47.208,-13.488c-15.931,-4.6 -35.142,-8.921 -50.58,-11.802c-16.66,-3.571 -35.378,-5.089 -52.266,-8.43c-33.24,2.163 17.991,-7.225 15.174,-16.86c8.512,-11.718 15.17,-25.296 25.29,-35.407c8.979,-11.55 16.597,-27.465 28.662,-33.72c12.883,-7.647 28.072,-15.99 45.522,-16.86c17.427,-3.989 41.801,0.948 53.952,5.058c15.626,4.605 30.519,9.948 47.208,13.488c18.236,0.686 26.317,22.987 15.174,37.092c-3.79,14.751 -9.114,34.132 -5.058,52.267c1.294,17.514 38.841,13.859 40.465,1.686c7.659,-9.555 -24.173,17.037 -33.721,-0c-7.104,-14.473 -0.074,-41.097 5.059,-50.581c30.842,3.393 -2.858,-44.542 8.43,-13.488c-9.26,3.3 -3.553,-25.831 -18.547,-30.348c-6.649,-11.539 -13.617,-30.587 -8.43,-48.894c2.705,-17.826 8.899,-35.163 13.488,-48.894c3.651,-16.88 16.196,-27.867 28.663,-33.72c12.643,-7.887 32.712,-11.351 48.894,-13.488c14.321,-5.908 31.874,-8.592 48.894,-11.802c22.486,-3.708 41.584,-10.025 23.604,11.802c-7.745,12.785 -18.049,26.013 -25.29,37.092c0.706,14.766 -33.867,27.455 -6.744,25.29c15.515,-5.797 36.913,-2.507 47.208,6.744c14.807,5.724 28.254,15.808 38.778,23.604c10.445,8.411 23.608,24.366 8.43,35.406c-9.73,3.728 -17.544,-39.951 -11.802,-3.372c4.47,17.949 -0.221,38.369 -5.058,52.266c-7.577,12.954 -15.61,28.452 -23.604,38.779c-8.529,12.001 -16.344,27.717 -25.29,37.092c-7.793,12.737 -18.873,25.189 -25.29,37.092c-11.558,8.673 -15.42,25.045 -26.976,33.72c-5.109,13.572 -45.689,14.011 -26.976,-5.058c6.019,-14.211 21.26,-19.205 26.976,-33.72c12.072,-8.459 17.861,-26.201 23.604,-38.778c8.678,-16.624 -14.719,13.024 -16.86,20.232c-5.191,15.339 -19.777,24.285 -26.976,35.406c-12.421,8.11 -17.622,26.436 -30.348,32.034c-27.774,9.054 -13.123,-26.133 -5.058,-30.348c8.737,-11.494 15.11,-25.356 23.604,-37.092c8.595,-11.935 15.971,-28.091 23.604,-38.778c12.869,-17.94 -14.94,9.868 -16.86,16.86c-6.154,14.376 -16.247,27.815 -23.604,38.778c-6.24,13.99 -16.798,23.67 -23.604,37.092c-18.604,22.98 -26.826,-13.062 -11.802,-20.232c7.017,-13.513 14.027,-30.035 21.918,-40.464c6.528,-14.003 15.626,-28.436 23.604,-38.778c13.887,-26.28 -9.695,1.389 -13.488,10.116c-7.854,12.677 -16.96,27.102 -23.604,38.778c-5.537,14.693 -14.731,25.735 -20.233,40.464c-12.444,28.578 20.769,20.603 26.977,28.662c20.874,7.688 30.157,-14.28 42.15,1.686c22.311,1.787 28.989,-15.073 40.464,-21.918c6.837,-13.694 18.571,-25.491 25.29,-37.092c9.926,-10.605 17.826,-26.236 26.976,-35.406c7.965,-12.266 15.49,-24.977 23.604,-37.092c7.286,-13.246 16.142,-27.921 20.232,-42.151c2.565,-17.666 8.545,-31.921 16.86,-43.836c-6.437,27.322 6.738,2.462 18.547,-3.372c9.224,-11.006 11.07,-29.397 23.604,-37.092c11.345,-9.185 20.402,-23.66 28.662,-33.72c5.95,-14.581 8.48,-35.582 21.918,-40.464c8.423,-12.108 17.669,-26.393 25.29,-37.093c8.135,-12.095 15.105,-25.362 20.232,-40.464c5.313,-15.218 12.072,-31.99 15.174,-47.208c4.827,-15.403 8.668,-31.798 18.546,-42.15c9.155,-11.376 14.974,-29.089 21.918,-40.464c3.45,-31.267 10.885,-13.851 10.116,10.116c2.836,17.298 2.244,44.578 -1.686,57.324c1.954,22.485 -14.348,29.714 -25.29,37.092c-12.132,8.398 -9.814,34.248 -20.232,42.15c-12.215,8.016 -21.257,19.209 -33.72,26.977c11.084,-12.748 -0.359,33.625 11.802,37.092c7.956,10.232 29.358,14.845 47.208,10.116c18.194,-8.904 30.451,-8.484 45.522,-0c14.738,5.493 32.847,7.619 48.895,11.802c25.423,4.169 31.221,14.757 3.372,5.058c-17.312,-3.219 -36.425,-7.638 -48.895,-13.488c-30.547,-10.85 -20.464,-0.226 0,5.058c16.228,4.002 30.133,10.335 48.895,11.802c19.158,1.372 28.036,16.025 42.15,20.232c-18.403,5.565 -35.315,-10.528 -45.522,-10.116c-12.317,-2.148 -33.279,-9.057 -45.523,-13.488c-14.904,-3.637 -27.854,-15.39 -43.836,-13.488c14.463,6.068 28.988,15.074 42.15,20.232c16.685,3.846 33.132,10.93 47.209,15.174c17.76,0.71 30.929,16.853 48.894,10.116c19.342,-0.889 40.112,-0.354 35.406,-25.29c-14.213,-26.007 -0.201,-16.757 3.372,-32.034c15.607,-2.934 33.039,-10.206 47.208,-10.116c16.285,0.537 37.831,12.646 40.464,15.174c9.761,-12.269 37.251,5.828 43.837,-3.372c10.038,12.453 21.663,-11.818 37.092,-11.802c13.736,-6.119 32.71,-13.794 38.778,-20.232c11.058,-9.472 25.223,-18.84 32.034,-30.349c11.542,-7.008 -6.26,23.36 -16.86,23.605c-12.795,7.735 -23.21,20.852 -35.406,26.976c-14.392,5.838 -29.76,10.707 -38.778,21.918c-15.911,4.619 -15.456,28.606 -33.721,28.662c-20.092,8.72 -26.699,-17.417 -16.86,-30.348c20.012,-6.1 36.504,20.707 32.035,6.744c-6.884,-8.977 -37.548,-16.972 -38.779,-3.372c-8.222,21.06 6.873,38.972 26.977,28.662c24.46,1.435 16.106,-23.215 35.406,-18.546c10.622,-17.459 29.665,10.301 26.976,-18.546c19.34,-0.891 26.035,-14.431 37.092,-23.604c-5.06,-12.71 13.832,-7.161 16.86,-21.919c15.887,-20.296 16.427,-10.426 0,3.373c16.681,-4.384 24.135,-24.266 10.116,-35.407c-10.254,-10.276 -13.584,-30.478 -21.918,-40.464c-7.634,-12.896 -16.236,-27.826 -18.546,-43.836c-3.468,-14.387 -9.388,-37.625 -0,-50.58c4.287,-16.245 10.575,-33.488 16.86,-45.522c5.532,-14.697 9.487,-30.979 13.488,-47.209c3.089,-17.441 5.341,-38.72 8.43,-53.952c2.753,-15.798 10.474,22.083 15.174,28.662c5.862,14.669 13.406,30.657 18.546,43.836c6.402,14.129 13.729,30.333 20.232,42.151c6.889,13.641 16.736,27.326 23.604,38.778c8.039,12.191 13.158,27.308 20.232,40.464c5.836,14.695 16.52,27.543 25.291,37.092c9.123,11.108 21,19.465 32.034,28.662c10.615,7.181 35.015,15.21 48.894,6.744c16.423,-3.805 22.366,-18.099 33.72,-26.976c9.459,-11.072 19.227,-24.835 23.604,-38.778c4.709,-22.785 4.972,-31.203 30.348,-21.918c15.512,-5.019 31.967,-12.097 42.15,-20.232c13.708,-6.527 23.554,-16.907 35.407,-25.29c11.397,-9.13 19.895,-24.174 28.662,-33.72c7.334,-12.895 13.083,-27.381 18.546,-42.151c5.766,-14.757 12.78,-31.282 16.86,-45.522c4.805,-15.422 13.184,-27.281 15.174,-45.522c7.57,-27.828 -10.959,14.259 -11.802,20.232c-5.496,15.038 -12.257,31.813 -16.86,45.522c-6.66,13.874 -12.814,31.244 -18.546,43.836c-6.424,13.804 -14.348,26.125 -23.604,37.093c-10.892,9.647 -20.839,23.218 -32.034,30.348c-11.482,8.74 -25.156,15.317 -37.093,23.604c-12.284,7.069 -46.141,11.126 -38.778,-13.488c-4.124,-16.107 0.75,-41.216 -3.372,-57.324c1.386,-19.145 -3.529,-47.591 5.058,-57.325c4.905,-15.626 13.239,-30.823 16.86,-45.522c4.637,-15.894 14.481,-29.581 23.604,-38.778c10.116,-10.114 20.232,-20.234 30.349,-30.348c9.02,-11.509 23.182,-20.876 32.034,-30.348c14.398,-25.235 -12.881,8.465 -18.546,10.116c-11.971,8.553 -25.054,19.015 -32.035,30.348c-5.395,9.098 -27.925,34.313 -11.802,8.43c8.835,-11.687 18.327,-25.742 23.604,-38.778c3.12,-17.417 10.521,-33.547 11.803,-50.58c13.589,-28.057 -25.83,-22.116 -28.663,-10.117c-7.131,13.097 -7.199,33.27 -16.86,43.837c-2.225,14.882 -25.305,37.812 -10.116,11.802c5.994,-14.237 11.093,-29.374 10.116,-50.58c1.199,-21.73 -2.001,-42.061 -3.372,-59.011c-2.911,-19.348 -30.054,-15.002 -28.662,5.058c-4.001,26.713 -12.662,-17.001 -28.662,-10.116c-24.541,-10.032 -19.903,26.145 -11.802,33.72c-10.237,4.226 -28.343,13.993 -35.406,23.604c-7.81,10.732 -24.149,19.096 -32.034,25.291c5.056,-18.707 -1.312,-41.002 -0,-59.011c-0.386,-19.844 -4.097,-36.369 -11.802,-48.894c-11.275,-9.258 -19.774,-24.289 -30.348,-32.034c-11.949,-8.282 -23.252,-17.214 -38.779,-21.918c-16.506,-4.025 -40.557,-3.505 -53.952,-8.43c-15.059,-5.471 -34.278,-9.784 -47.208,-15.174c-12.564,-7.291 -42.111,-4.392 -35.406,-23.604c12.357,7.873 25.364,15.103 40.464,20.232c12.923,5.96 33.444,13.314 47.208,11.802c7.739,-12.492 9.128,-31.338 8.43,-52.266c0.02,-16.866 -16.787,-34.505 -6.744,-48.895c11.662,-10.215 14.576,-26.642 6.744,-43.836c21.067,1.187 22.289,-27.114 10.116,-35.406c-6.533,-13.997 -18.797,-25.265 -21.918,-40.464c5.808,-17.049 3.178,-40.456 -3.372,-52.266c-11.831,-8.398 -23.338,-17.128 -42.15,-18.546c-16.74,3.79 -27.799,16.263 -38.778,23.604c-6.63,9.976 -23.092,25.667 -38.778,11.802c-11.475,-27.664 -5.273,-22.188 6.744,-5.058c18.483,4.405 20.149,-18.632 32.034,-25.29c11.571,-8.96 28.342,-15.721 48.894,-13.488c15.346,-4.185 32.016,35.792 25.29,6.744c-2.17,-0.13 -1.215,-34.457 3.372,-18.547c-1.774,13.281 0.007,46.902 5.058,11.803c4.552,-19.272 0.56,-41.925 -10.116,-48.895c-12.466,-7.764 -9.479,-30.988 -15.174,-45.522c-7.973,-12.557 -12.825,-31.235 -28.662,-33.72c-11.72,-5.648 -34.464,-24.397 -13.488,-3.372c8.587,11.944 13.22,30.842 26.976,35.406c12.863,-2.701 20.738,45.359 10.116,28.662c-17.378,-9.217 -3.219,-14.946 -23.604,-21.918c-32.962,-8.233 32.125,2.711 -8.43,-8.43c-9.679,-1.484 -12.704,-19.193 -15.174,-37.092c-7.044,-13.186 -4.385,-36.081 -11.802,-48.894c-14.711,-5.82 -16.361,-27.7 -26.976,-35.406c5.034,-18.154 -9.466,-29.67 -13.488,-43.837c-10.835,-9.696 -24.645,-19.418 -26.977,-35.406c-23.236,-4.225 -19.046,21.936 -3.372,25.29c-23.491,-13.249 3.974,-30.46 6.745,-5.058c12.924,7.306 19.591,20.876 26.976,33.72c8.689,11.841 4.178,39.885 16.86,45.523c6.022,16.192 6.661,32.27 6.744,50.58c24.976,-5.276 -3.853,4.292 5.058,-16.86c-4.441,-24.992 1.332,-26.307 8.43,-1.686c-0.816,15.58 7.25,46.948 3.372,48.894c-12.59,-25.698 -5.465,-7.066 -11.802,-23.604c-0.781,17.89 -39.566,-17.966 -20.232,-8.43c20.958,17.705 9.544,-10.339 -10.116,-6.744c-12.531,-8 -22.711,-21.352 -38.779,-23.604c-29.039,-12.95 -10.777,4.006 6.744,6.744c13.596,6.934 26.577,17.485 33.721,28.662c19.375,14.456 10.891,9.544 10.116,33.72c1.171,17.298 16.378,31.405 8.43,50.58c-9.219,14.107 6.887,39.326 -3.372,52.267c-3.366,6.185 5.838,-28.484 -1.686,-40.465c3.898,-16.899 3.864,-31.805 -3.372,-47.208c-12.333,-31.331 2.168,17.648 1.686,20.232c0.46,32.957 -3.148,-9.814 -11.802,-15.174c-12.168,-15.071 12.914,-37.672 3.372,-42.15c-7.613,-12.618 -19.3,-21.166 -32.035,-28.662c-6.037,-6.786 -42.45,-24.395 -20.232,-8.43c11.428,9.103 27.836,16.226 35.407,26.976c8.022,32.144 9.655,-10.534 11.802,20.232c-4.413,10.323 -11.519,-9.405 -15.174,-11.802c-9.594,-6.709 6.995,26.71 -16.861,1.686c-10.844,-4.827 -32.452,-21.679 -37.092,-0c-0.096,14.559 9.804,32.531 16.86,42.15c5.768,13.387 7.936,37.885 -3.372,47.208c-15.543,-0.888 -30.295,-12.645 -10.116,8.43c25.461,7.667 13.283,-36.942 32.034,-23.604c24.269,9.963 -10.154,39.068 -5.058,13.488c21.081,4.311 -7.952,-23.142 -10.116,6.744c-5.009,6.699 13.096,13.905 28.663,10.116c19.765,0.479 23.455,32.029 6.744,6.744c-35.461,-8.989 6.713,4.558 8.43,13.489c11.502,15.155 -3.173,30.474 -18.546,15.174c-12.302,-8.23 -28.824,-15.239 -45.523,-16.861c-20.947,-4.417 16.147,15.64 25.29,13.489c13.397,7.133 30.785,13.277 37.093,25.29c6.747,13.483 4.987,35.478 5.058,55.638c1.416,21.947 -4.537,39.525 -6.744,55.638c-1.02,30.576 -6.188,14.154 -21.919,5.058c-12.301,-8.229 -28.823,-15.238 -45.522,-16.86c-21.805,-8.664 -42.799,13.227 -25.29,15.174c0.916,-5.4 4.31,-14.805 30.348,-8.43c16.709,3.824 32.228,11.834 42.15,20.232c14.787,5.744 21.278,22.785 30.349,32.034c8.069,15.399 -3.27,33.636 -3.372,50.581c-5.227,15.303 -11.585,32.477 -20.232,42.15c-9.198,11.033 -17.555,22.911 -28.663,32.034c-12.79,7.74 -23.293,20.768 -33.72,28.662c-11.163,9.976 -33.364,10.92 -42.15,-1.686c-10.165,-10.366 -21.564,-22.498 -32.034,-30.348c-10.957,-9.573 -21.834,-22.228 -28.662,-33.72c-7.392,-13.139 -15.925,-28.138 -20.232,-42.15c-5.165,-14.584 -11.15,-34.983 1.686,-45.523c4.535,-15.995 13.879,-30.183 25.29,-37.092c10.617,-9.612 26.409,-14.056 42.15,-18.546c33.87,-1.586 10.42,-6.442 37.092,-5.058c25.054,5.304 26.435,-19.696 13.488,-30.348c-5.144,-5.694 -6.169,-57.488 -10.116,-32.034c-1.708,22.238 7.026,37.036 11.802,50.58c-7.356,9.396 -33.482,9.322 -42.15,0c0.577,-13.502 12.053,-26.728 10.116,-47.208c-2.035,-41.665 -5.69,15.653 -8.43,20.232c-1.971,10.677 -23.698,36.696 3.372,37.092c-13.092,1.371 -37.957,4.379 -48.894,10.116c-13.583,6.646 -24.596,15.871 -33.72,26.976c-3.086,-17.445 -12.765,-31.297 -13.488,-48.894c-3.699,-16.831 -6.459,-37.603 -6.744,-55.638c-5.318,-21.622 1.618,-38.569 15.174,-43.836c11.461,-8.768 25.02,-15.448 43.836,-16.86c35.192,-9.862 -13.019,-7.743 -21.918,-3.372c-12.237,1.195 -35.064,24.829 -40.464,5.058c1.094,-17.376 20.313,-27.471 35.406,-23.605c-2.56,-14.275 -37.124,6.606 -32.034,5.058c2.588,-21.174 31.801,-7.888 43.836,-15.174c-0.85,0.584 -4.564,-8.726 -11.802,-23.604c-15.614,25.484 17.062,-3.269 -1.686,20.232c-21.706,-4.742 2.009,-41.329 11.802,-18.546c-8.381,22.331 36.954,25.528 28.662,6.744c0.45,11.037 -32.887,9.985 -26.976,-13.488c-0.963,-17.807 8.954,-42.335 15.174,-40.464c3.868,-29.63 10.827,-22.682 3.372,3.372c-9.696,13.925 5.737,45.089 -5.058,47.208c-12.5,-13.464 8.054,-30.972 -3.372,-32.034c-5.613,12.202 -12.568,42.282 10.116,35.406c12.274,-2.54 -5.616,-23.82 -0,-40.464c2.156,-15.654 10.725,-41.233 -1.686,-50.58c-14.962,-7.993 -33.029,4.421 -43.836,10.116c-12.433,17.779 -33.027,8.017 -18.546,-10.116c-2.711,23.86 0.677,11.256 8.43,-8.43c11.552,-8.978 25.189,-18.873 38.778,-23.604c13.454,-21.949 -16.287,8.931 -25.29,6.744c-11.968,8.563 -24.641,19.421 -32.034,30.348c-0.916,11.37 12.658,34.415 1.686,45.522c-9.12,25.804 -8.026,28.03 -11.802,6.744c-1.149,17.499 -1.928,38.283 -5.058,1.686c2.367,-16.538 16.157,-31.414 10.116,-48.894c-0.51,-14.589 15.204,-23.577 23.604,-33.72c11.353,-9.177 29.144,-14.918 42.15,-20.232c-11.986,-3.591 -32.506,8.103 -42.15,13.488c8.667,-10.217 27.069,-19.688 42.15,-16.86c7.617,7.762 8.995,-27.123 16.86,-33.72c10.172,-10.359 26.283,-17.779 35.406,-26.977c10.959,-20.01 18.845,9.611 32.034,11.803c10.561,3.926 33.368,32.518 11.802,13.488c-25.391,-16.606 -1.622,1.099 5.058,11.802c12.108,18.679 10.728,16.05 15.174,23.604c14.294,0.168 34.081,8.254 42.151,16.86c2.203,13.918 46.415,15.223 20.232,8.43c17.06,-3.784 8.721,-34.319 3.372,-43.836c-0.921,-37.476 -4.875,4.333 -8.43,-23.604c-2.811,-4.158 -18.555,-18.896 -18.546,-35.407c0.155,1.147 14.976,24.319 20.232,32.035c10.952,2.092 -11.617,-20.94 -13.488,-30.349c-19.673,-20.704 -5.601,20.947 -5.058,26.977c8.721,1.514 2.537,17.657 -5.058,3.372c-9.157,-11.375 -8.801,-35.262 -18.547,-43.837c-7.008,-13.221 -24.56,-15.905 -45.522,-15.174c-11.218,-10.422 22.164,-22.746 3.372,-38.778c-9.36,-10.869 -12.783,-27.682 -32.034,-28.662c-17.689,2.842 -22.849,21.214 -30.348,32.034c-14.557,17.594 30.163,31.289 -3.372,33.72c-21.562,-1.032 -36.241,7.822 -42.15,20.232c-4.849,24.744 -14.127,31.852 -6.744,1.686c0.3,-30.876 -8.712,20.378 -6.744,28.662c-3.514,15.008 -19.634,21.477 -23.604,13.489c-6.212,1.546 -0.821,-28.464 6.744,-35.407c3.673,-16.761 24.695,-14.987 23.604,-26.976c-1.752,-25.862 27.079,18.52 15.174,-3.372c-7.265,-26.048 -24.302,-1.641 -26.976,10.116c-15.451,5.081 -19.713,24.349 -26.976,35.406c-0.451,20.081 -9.806,34.257 -15.174,47.209c-9.145,11.422 -6.922,39.687 -8.431,47.208c17.597,6.985 -0.532,-30.974 11.803,-38.778c-7.852,-20.677 33.251,-33.596 13.488,-15.174c-10.455,11.409 -6.095,38.425 1.686,47.208c-18.037,-17.015 -11.979,-24.651 -13.488,5.058c-1.314,11.718 32.74,-14.832 6.744,10.116c-19.875,0.18 -29.593,16.514 -35.407,16.86c10.673,-9.858 4.114,-39.948 10.116,-52.266c12.602,-23.464 8.297,-25.609 -3.372,-5.058c-4.13,18.084 -5.518,33.413 -10.116,47.208c3.662,20.944 -18.817,32.262 -18.546,37.092c-25.418,8.585 26.582,-1.204 -10.116,10.116c-7.11,4.052 -29.721,38.085 -21.918,10.116c-1.109,-21.34 20.583,-19.883 26.976,-33.72c2.949,-11.814 25.183,-29.018 20.232,-32.034c-10.045,10.485 -28.864,15.198 -37.092,25.29c-6.582,13.948 -15.41,28.652 -16.86,45.522c0.331,20.561 -16.59,23.877 -20.232,40.464c-3.347,14.724 2.853,43.617 6.744,48.895c0.853,7.148 11.451,-22.982 28.662,-18.546c22.66,-2.13 37.536,6.526 47.208,15.174c13.269,4.919 12.758,31.447 33.721,23.604c15.14,-27.685 12.742,-7.49 6.744,1.686c-9.024,16.757 -36.511,4.97 -38.779,-6.744c-13.869,-6.662 -21.336,-22.726 -38.778,-23.604c-16.811,-2.733 -30.291,8.492 -42.15,15.174c-8.292,12.277 -11.122,35.487 -5.058,50.58c-0.735,19.495 -13.802,26.664 -20.232,40.464c-10.858,10.057 -15.719,36.972 5.058,37.092c22.198,-1.967 22.265,18.201 43.836,16.86c15.176,5.355 26.519,17.543 32.034,30.348c13.259,12.768 24.426,-14.848 28.662,-23.604c8.034,-12.496 15.24,-28.822 18.547,-43.836c7.017,-28.687 6.098,18.086 10.116,26.976c-4.854,15.678 -8.329,35.733 -13.488,48.894c-4.583,15.648 -12.017,28.45 -18.547,42.151c-9.873,10.657 -21.788,22.273 -35.406,26.976c-12.695,7.534 -28.062,12.404 -43.836,16.86c-15.24,-3.231 -11.515,-36.268 -10.116,-48.894c3.205,-17.326 3.937,-40.126 16.86,-45.523c34.71,-11.056 -39.412,1.304 -5.058,-10.116c33.073,-0.521 17.912,-6.771 -6.744,-6.744c-31.065,-1.463 15.732,-3.142 23.604,-1.686c-8.582,-13.324 -48.501,6.792 -33.72,-13.488c7.359,-30.537 -16.654,7.564 -5.058,16.86c9.514,10.223 16.518,28.288 6.744,43.836c-5.463,13.509 -7.498,41.141 -1.686,53.953c-3.369,27.168 25.786,16.452 38.778,13.488c14.26,-6.272 30.244,-13.819 40.464,-21.918c13.028,-17.884 24.52,-9.922 18.546,15.174c-11.365,9.165 -27.549,16.512 -40.464,21.918c-16.074,4.156 -32.565,7.9 -53.952,6.744c-21.53,-1 -43.44,0.622 -55.638,6.744c-14.21,6.021 -26.32,14.145 -35.406,25.29c-12.421,8.11 -17.622,26.44 -30.348,32.034c-13.468,6.388 -13.119,33.383 -10.117,48.894c0.501,21.032 -3.301,40.761 -1.686,60.697c-0.284,20.515 5.045,35.421 8.431,52.266c-2.858,17.673 -6.188,37.874 -6.745,55.638c-1.082,19.146 -3.933,36.532 -3.372,57.324c1.042,19.489 3.625,40.438 8.431,53.953c5.302,-6.121 -2.467,-33.299 -1.686,-48.895c0.642,-19.888 -0.54,-44.601 8.43,-53.952c2.896,-15.574 13.061,-34.722 6.744,-52.266c-7.525,-36.47 -3.168,1.492 -5.058,16.86c2.554,10.893 -11.089,49.466 -5.058,11.802c-1.216,-21.785 7.492,-39.117 -0,-55.638c-3.195,-15.69 -7.534,-39.225 -3.372,-55.638c2.942,-17.414 -8.397,-55.755 11.802,-43.837c18.665,0.477 23.465,-20.739 20.232,-37.092c-16.122,-12.306 -10.98,-21.203 1.686,-33.72c9.504,-11.026 23.801,-20.261 35.406,-26.976c13.958,-6.572 35.912,-8.15 52.266,-10.116c31.948,-2.622 -6.754,13.871 -20.232,10.116c-47.014,5.11 26.578,4.475 5.058,10.116c-14.741,1.44 -54.893,4.566 -16.86,6.744c24.516,3.485 30.407,-14.51 42.15,-16.86c12.965,-7.265 28.912,-11.554 48.894,-11.802c23.964,-16.476 9.113,-1.096 16.86,18.546c22.426,13.405 11.022,-17.43 6.744,-28.662c11.587,-4.217 9.803,31.22 18.546,37.092c6.562,13.667 16.442,24.024 26.977,33.72c11.797,8.735 25.5,18.561 37.092,25.29c8.85,11.381 22.894,17.572 30.348,30.348c8.514,12.017 15.666,28.396 21.918,40.465c7.002,13.228 14.857,25.608 30.348,30.348c15.125,7.543 42.983,2.395 48.894,-6.744c10.991,-9.54 22.072,-21.991 25.29,-37.093c7.727,-12.803 16.648,-27.414 25.291,-37.092c8.472,-11.758 23.26,-17.205 32.034,-28.662c9.864,-10.665 23.111,-20.95 30.348,-32.034c7.437,-12.792 15.469,-24.997 15.174,-45.522c-7.312,-33.934 6.365,-15.25 26.976,-15.174c11.959,8.271 31.028,9.438 45.522,15.174c22.827,-2.295 24.258,19.804 33.72,28.662c20.765,1.15 -9.118,29.92 8.43,40.464c18.169,10.544 37.396,-2.655 47.209,-8.43c10.997,-11.215 -8.024,-27.548 -21.919,-28.662c-19.434,-1.096 -40.605,-3.456 -37.092,-25.29c20.253,-0.022 32.913,7.555 45.522,15.174c10.229,8.241 31.741,16.042 26.977,32.034c-12.735,9.197 -8.575,33.715 -0,43.836c12.721,16.872 39.27,6.709 8.43,0c-13.583,-5.687 -15.534,-35.473 -3.372,-42.15c14.447,-2.045 18.814,27.243 20.232,35.406c1.288,12.193 1.519,37.071 5.058,52.266c0.941,21.472 -6.677,37.386 -13.488,48.895c-10.712,20.097 -1.621,-26.428 6.744,-26.976c8.487,-17.137 -1.329,-38.31 -6.744,-48.895c-12.497,-0.362 -32.296,28.954 -26.976,3.372c6.334,-13.958 7.081,-47.132 -16.861,-38.778c-25.991,-7.086 -30.722,16.848 -25.29,33.72c3.094,20.669 31.918,7.775 38.779,20.232c-0.304,15.028 -3.222,40.753 15.174,42.151c24.646,-18.605 -8.446,21.194 10.116,28.662c0.78,21.011 -3.357,37.11 -1.686,59.01c10.507,31.038 -16.424,27.639 -32.034,30.348c-16.527,3.704 -30.785,9.681 -43.837,16.86c-12.783,7.749 -28.578,15.484 -35.406,26.976c-5.52,-7.703 -18.78,-31.312 -3.372,-38.778c12.015,-8.516 25.779,-18.283 38.778,-23.604c14.256,-5.975 28.775,-11.691 45.523,-15.174c29.312,-0.28 34.232,-11.746 1.686,-6.744c-15.404,4.827 -33.242,7.225 -45.523,15.174c-14.309,6.221 -30.709,13.353 -38.778,23.604c-10.205,20.929 -25.11,-1.293 -18.546,-15.174c4.331,-16.199 10.352,-33.71 11.802,-50.58c4.117,-16.413 6.306,-37.757 10.116,-52.266c3.741,-19.221 1.452,-54.529 -3.372,-18.546c-2.406,17.824 -5.722,34.743 -8.43,52.266c-4.264,16.266 -6.088,37.974 -11.802,50.58c-1.576,18.954 -13.738,30.325 -13.488,48.894c2.849,10.012 -24.515,17.541 -40.464,11.802c-16.159,-4.071 -30.68,-9.787 -45.522,-15.174c-14.741,-5.79 -31.731,-12.331 -43.837,-18.546c-33.425,-6.714 -22.061,1.204 -1.686,6.744c14.858,5.674 31.854,12.209 43.837,18.546c16.249,3.979 29.646,10.819 47.208,13.488c17.823,14.756 46.355,-18.428 37.092,1.686c-2.17,18.061 -7.592,32.874 -11.802,48.894c-3.148,17.383 -12.645,31.418 -16.86,45.523c-5.196,15.034 -12.935,27.53 -11.802,48.894c2.542,17.988 6.144,37.918 11.802,50.58c12.004,17.853 14.208,24.085 -1.686,33.72c-8.147,12.384 -24.653,19.41 -35.406,26.976c-11.733,8.498 -28.649,11.818 -43.836,16.86c-14.783,5.75 -28.889,15.175 -50.581,11.802c-18.75,-5.631 -37.529,1.606 -55.638,1.686c-19.074,5.424 -37.766,-4.547 -52.266,-6.744c-13.888,-3.864 -35.388,-10.952 -50.58,-3.372c7.157,0.425 29.648,10.939 35.406,20.233c14.999,5.531 6.565,37.496 26.976,35.406c22.486,24.7 -10.067,-7.366 -20.232,5.058c-11.902,16.593 -2.096,33.831 -21.918,11.802c-15.483,-5.048 -34.791,-9.272 -50.58,-11.802c-7.793,-5.714 -46.189,-7.552 -30.349,-16.86c14.551,-5.981 26.746,-17.317 38.779,-23.604c9.49,-10.74 21.105,-19.361 30.348,-30.349c9.752,-10.778 19.316,-24.745 26.976,-35.406c7.562,-12.969 17.103,-26.959 21.918,-40.464c7.174,-13.356 16.03,-28.031 20.232,-42.15c6.683,-13.547 13.131,-27.335 18.546,-42.15c6.194,-14.336 14.242,-29.821 20.232,-42.15c6.122,-14.109 14.166,-26.3 20.232,-40.465c6.49,-7.998 23.115,-42.77 5.058,-20.232c-7.191,13.04 -13.97,26.496 -21.918,38.778c-6.122,14.409 -14.11,29.952 -20.232,42.151c-5.862,14.668 -13.405,30.656 -18.546,43.836c-6.194,14.336 -14.242,29.82 -20.232,42.15c-5.318,14.913 -13.835,26.63 -20.232,40.464c-8.225,12.306 -17.145,26.917 -25.29,37.092c-7.361,12.868 -18.766,21.701 -28.662,32.034c-10.148,10.385 -24.835,19.228 -35.407,26.977c-12.69,7.538 -26.411,14.056 -40.464,20.232c-13.79,8.617 -40.553,5.002 -48.894,-3.372c-12.178,-10.513 -6.462,-39.729 3.372,-45.523c13.419,-7.111 24.634,-19.427 28.662,-33.72c-0.801,-12.99 20.207,-38.837 23.604,-13.488c4.827,15.704 23.574,20.489 35.406,26.976c-1.632,6.341 -15.019,20.635 -26.976,26.976c-10.008,8.463 -28.776,19.007 -45.522,13.489c-9.755,-20.403 -18.716,-19.727 -6.744,3.372c15.936,9.377 40.685,-0.316 48.894,-6.744c11.136,-9.397 25.122,-18.941 33.72,-28.663c9.853,-10.677 22.706,-21.356 30.349,-32.034c8.924,-11.306 18.141,-22.324 25.29,-35.406c7.612,-12.918 16.145,-27.917 21.918,-40.464c7.057,-13.171 13.343,-27.125 18.546,-42.15c7.13,-13.401 12.284,-31.778 18.546,-43.836c5.99,-14.239 10.109,-30.357 16.86,-43.837c5.572,-11.537 21.07,-42.047 3.372,-18.546c-7.98,12.551 -14.81,29.251 -18.546,43.836c-7.171,13.36 -12.763,31.3 -18.546,43.837c-5.557,14.673 -11.511,28.955 -18.546,42.15c-4.81,15.72 -14.427,29.635 -20.232,42.15c-7.822,12.709 -16.425,27.637 -25.29,37.092c-9.993,10.538 -15.518,28.544 -30.349,32.034c-11.898,-2.18 -30.955,-7.826 -35.406,-21.918c-10.471,-15.688 4.583,-30.432 6.744,-45.522c2.128,-16.779 5.93,-41.639 1.686,-57.324c-0.709,-19.821 -6.086,-37.976 -10.116,-52.266c-5.091,-15.139 -11.768,-28.698 -16.86,-43.837c-3.935,-15.376 -1.713,-52.038 5.058,-37.092c13.623,6.606 31.454,9.014 50.58,10.116c17.683,-2.847 39.998,-4.065 52.267,-10.116c16.61,-3.62 27.863,-12.603 42.15,-18.546c12.768,-6.538 30.869,-22.685 37.092,-1.686c16.663,3.829 41.326,4.569 53.952,-1.686c-9.36,-23.651 26.499,3.942 25.29,-23.604c-1.36,-18.595 5.674,-34.071 -8.43,-45.522c14.419,-6.112 25.228,-18.835 35.406,-26.976c6.981,-13.249 16.625,-23.844 23.605,-37.092c7.767,-12.765 17.005,-27.057 26.976,-35.407c10.114,-10.114 20.233,-20.233 30.348,-30.348c10.104,-10.426 23.132,-20.93 28.662,-33.72c9.494,-11.036 12.153,-31.909 13.488,-48.894c5.982,-37.07 -9.217,-17.145 -6.744,5.058c-0.627,19.603 -7.289,33.177 -15.174,45.522c-10.581,9.949 -17.848,26.214 -30.348,32.034c-10.111,10.118 -23.358,17.108 -32.034,28.662c-7.994,12.538 -19.548,24.513 -25.29,37.093c-8.714,11.517 -13.8,26.665 -25.291,35.406c-8.467,12.063 -24.175,19.886 -40.464,21.918c-19.075,4.613 -40.312,-2.023 -52.266,-6.744c-13.813,-6.717 -28.112,-15.95 -35.406,-26.976c-9.13,-11.101 -16.803,-23.663 -25.29,-35.406c-8.717,-11.814 -25.223,-18.84 -35.406,-26.977c-12.564,-7.664 -25.073,-15.393 -37.093,-23.604c-7.917,-12.613 -16.45,-27.611 -21.918,-40.464c-3.867,-16.363 -8.391,-32.074 -11.802,-48.894c-14.858,-30.195 -3.798,9.077 -1.686,20.232c4.401,16.13 9.958,34.105 15.174,47.208c8.54,11.991 14.895,29.168 26.977,35.406c13.803,6.426 26.124,14.342 37.092,23.604c14.004,6.529 24.684,19.378 32.034,30.349c7.521,12.709 15.938,24.528 26.976,33.72c9.816,10.714 24.568,19.493 40.464,21.918c12.939,5.795 36.62,7.224 50.58,6.744c14.493,9.634 7.635,27.75 10.116,42.15c-17.323,7.607 -20.375,11.455 -33.72,21.918c-29.289,16.987 -3.596,-40.769 -21.918,-10.116c-8.177,19.276 -22.188,-8.332 -18.546,-15.174c12.772,-18.92 43.283,17.826 28.662,-10.116c-12.289,6.823 -3.77,-25.911 -1.686,-25.29c-19.15,-11.526 -38.1,1.951 -40.464,15.174c-0.15,12.744 9.861,35.787 -11.802,38.778c-14.119,6.412 -28.794,15.269 -42.15,20.232c-13.745,6.786 -33.843,10.219 -50.58,11.802c-18.66,4.197 -42.985,0.649 -53.953,-5.058c-17.288,-2.942 -15.98,-24.486 -15.174,-45.522c-6.176,-26.814 -5.12,-35.229 5.058,-10.116c9.388,10.841 21.497,18.969 35.406,25.29c14.082,6.449 32.623,11.44 52.267,10.116c18.514,-1.716 32.073,-8.393 43.836,-16.86c20.468,-15.597 13.021,-20.885 -3.372,-5.058c-10.539,9.991 -29.306,14.756 -48.894,13.488c-20.507,-0.024 -37.283,-6.779 -48.895,-13.488c-13.489,-6.741 -21.171,-19.295 -32.034,-28.662c-5.742,-14.79 -13.144,-30.918 -11.802,-50.58c2.534,-17.196 2.408,-57.943 -3.372,-21.918c-5.414,10.541 0.341,59.199 -6.744,28.662c-8.244,-33.752 -7.118,6.597 1.686,15.174c3.554,16.976 9.941,34.121 10.116,52.266c2.479,11.967 5.488,56.881 -8.43,40.464c-11.932,-8.598 -30.34,-13.722 -45.522,-16.86c-17.477,-2.753 -38.999,-1.467 -59.01,-1.686c-19.926,-0.605 -22.645,-21.417 -21.918,-40.464c-5.775,-24.169 4.609,-30.5 5.058,-52.266c-20.828,-25.848 16.062,-2.568 18.546,-23.604c9.62,-16.783 -14.736,-36.722 1.686,-45.523c22.874,8.412 34.17,-8.165 32.034,-26.976c2.996,-20.068 -36.254,-24.317 -1.686,-26.976c14.498,-4.009 26.495,-23.835 15.174,-37.092c-8.196,-10.495 -38.852,-8.523 -45.522,1.686c-14.911,5.606 -23.576,31.876 3.372,28.662c19.286,-0.944 33.443,-7.024 38.778,-21.918c3.812,18.275 -18.738,23.597 -32.034,26.976c-12.192,5.175 -42.474,16.388 -5.058,11.802c18.332,-0.521 26.381,25.577 13.488,35.406c-18.184,10.814 -29.782,-11.24 -33.72,-21.918c-9.204,-4.092 14.697,26.756 1.686,33.72c-4.659,1.909 -31.099,-31.745 -28.662,-1.686c-2.6,23.131 4.503,39.559 10.116,52.267c6.037,7.361 7.325,54.604 -1.686,25.29c-5.714,-11.109 -7.539,-42.941 -11.802,-43.836c-0.796,14.874 1.256,37.527 6.744,50.58c9.563,10.967 8.77,35.291 8.43,53.952c2.989,13.834 15.993,34.486 18.546,37.092c1.426,-17.044 39.38,-8.403 50.58,-8.43c18.303,1.927 36.225,4.24 48.894,11.802c16.08,4.451 26.57,17.493 23.604,38.778c-2.166,22.397 12.782,27.685 15.174,45.523c9.302,16.322 1.462,35.519 -5.058,47.208c-6.759,13.469 -12.975,27.49 -20.232,40.464c-7.816,11.735 3.839,-30.647 3.372,-38.778c2.108,-18.423 4.657,-39.406 5.058,-57.324c3.996,-24.527 -5.72,-38.342 -20.232,-42.151c-14.474,-5.754 -29.259,-11.207 -47.208,-13.488c-17.319,-4.876 -46.908,3.806 -52.266,-6.744c-10.164,1.263 -32.672,-31.855 -23.604,-10.116c6.14,7.144 38.086,26.098 10.116,21.918c-8.216,-12.028 -22.321,-33.163 -10.116,-3.372c8.318,19.882 26.694,11.625 38.778,3.372c21.486,-0.954 41.143,2.919 55.638,6.744c17.197,3.334 36,8.063 42.15,20.232c3.726,17.805 0.245,39.028 -1.686,55.639c-0.485,20.045 -4.95,39.112 -6.744,55.638c-3.21,17.02 -5.892,34.573 -11.802,48.894c-4.542,15.99 -10.632,33.43 -15.174,47.208c-6.69,13.541 -13.237,27.229 -20.232,40.464c-9.764,10.769 -17.418,26.644 -26.976,35.407c-5.803,19.579 -19.89,-8.94 -33.72,-8.43c-3.381,-20.133 -47.934,0.76 -30.348,-1.686c23.022,-9.904 27.75,11.384 43.836,13.488c23.73,21.323 -3.961,-1.319 -16.86,-1.686c-1.671,-17.827 -34.034,-13.161 -35.406,1.686c-2.366,13.275 10.149,-8.783 -0,25.29c4.376,6.896 8.994,47.884 11.802,32.034c-1.482,-19.216 8.135,-17.243 6.744,-38.778c4.002,16.489 -9.402,45.198 11.802,26.976c-8.301,-5.075 20.306,-8.97 8.43,-13.488c-10.737,16.61 -22.262,9.563 -3.372,-6.744c26.981,1.258 6.997,25.63 -0,32.034c-10.779,10.212 -22.003,31.403 -28.662,6.744c-9.181,-11.35 -17.272,-26.791 -28.663,-33.72c-4.405,-10.319 -23.39,-14.141 -32.034,-25.29c11.012,-10.344 29.416,9.853 26.976,15.174c5.294,-22.842 11.855,-31.996 -3.372,-25.29c-9.522,-17.102 8.653,-15.579 16.86,-8.43c11.743,26.59 3.711,-20.152 -6.744,-20.232c-3.857,-15.874 -39.631,-20.72 -5.058,-13.489c6.146,14.085 23.141,17.326 20.232,40.465c8.385,11.166 2.322,-36.808 -8.43,-33.721c0.044,-16.735 -35.377,-12.206 -37.092,-16.86c5.283,-15.248 14.314,-29.748 18.546,-43.836c8.204,-12.326 14.17,-29.893 21.918,-40.464c6.102,-14.429 18.909,-25.154 20.233,-42.15c-1.343,-21.573 3.328,-37.138 1.686,-59.01c6.897,-22.428 -11.62,-45.577 11.802,-37.093c10.424,-15.534 25.89,-18.114 -1.686,-21.918c-12.204,-13.99 -17.929,-33.679 -10.116,-1.686c22.051,13.387 4.584,22.404 -5.058,18.546c5.369,3.587 -3.217,40.213 -0,48.895c-3.846,16.684 0.89,44.952 -3.372,59.01c-5.563,14.968 -17.51,26.553 -23.605,38.778c-6.954,13.276 -12.461,28.005 -20.232,40.464c-6.727,13.804 -12.549,31.513 -18.546,43.836c-11.267,11.759 -6.145,33.176 -28.662,25.291c-18.401,2.129 -38.867,5.194 -53.952,8.43c-12.93,7.3 -32.506,7.959 -48.894,11.802c-16.312,4.218 -29.231,14.831 -38.778,23.604c-10.223,10.308 -12.959,31.103 -18.547,43.836c-3.881,15.002 -9.778,36.979 -5.058,53.952c10.14,26.042 2.155,24.698 -18.546,15.174c-15.647,-4.882 -33.406,-10.655 -48.894,-13.488c-20.429,-0.199 -41.715,-1.248 -55.638,5.058c-15.732,4.799 -29.175,14.888 -38.778,23.604c-9.602,10.629 -17.751,22.718 -26.976,33.72c-8.26,12.271 -17.316,26.747 -28.663,33.721c-13.005,9.423 -40.912,10.729 -11.802,20.232c12.33,8.2 25.028,19.035 37.093,25.29c10.571,9.659 24.285,16.18 35.406,25.29c14.375,6.155 28.744,15.317 40.464,21.918c14.368,5.861 27.005,13.454 42.15,18.546c13.856,6.677 31.761,12.308 45.522,16.86c15.641,4.586 32.648,7.823 48.895,11.802c18.404,2.125 38.005,6.053 57.324,5.058c29.783,-3.524 21.351,-3.102 25.29,23.604c4.461,16.068 16.108,27.954 21.918,40.464c11.952,8.279 18.076,22.391 30.348,30.349c8.966,11.566 23.766,20.299 33.72,28.662c12.907,7.317 26.12,14.348 40.464,20.232c5.682,6.997 -30.341,-5.901 -43.836,-1.686l-60.696,-0c-16.985,-3.541 -43.406,-0.658 -60.696,-1.686c-16.985,-3.541 -43.407,-0.658 -60.697,-1.686c-16.984,-3.541 -43.406,-0.658 -60.696,-1.686c-15.678,-4.552 -30.855,-9.61 -45.522,-15.174c-16.255,-4.283 -31.719,-12.342 -43.836,-18.546c-13.082,-7.149 -24.102,-16.372 -35.406,-25.29c-9.516,-11.01 -23.925,-20.131 -28.662,-33.721c-9.951,-10.284 -15.581,-24.885 -21.919,-38.778c-6.051,-14.483 -9.827,-34.226 -11.802,-50.58c-3.699,-24.23 35.508,-8.555 47.209,-15.174c9.836,-1 52.886,-10.77 30.348,-11.802c-17.128,3.102 -33.613,6.853 -53.953,6.744c-24.222,-10.18 -39.336,4.469 -30.348,25.29c1.708,18.529 6.97,33.501 11.802,48.894c6.057,14.483 15.217,28.848 21.918,40.464c9.198,11.027 17.555,22.913 28.663,32.035c12.436,8.092 24.808,19.254 37.092,25.29c13.85,6.676 28.814,15.241 42.15,20.232c6.513,5.968 54.399,6.558 33.72,11.802c-21.217,-0.995 -34.16,6.305 -47.208,13.488c-10.167,10.369 -26.108,17.956 -32.034,30.348c-7.874,12.358 -17.341,23.132 -23.604,37.092c-7.001,13.539 -13.094,30.972 -16.86,45.522c-2.804,17.434 -5.812,34.648 -5.058,55.639c-1.38,21.918 2.957,41.104 3.372,59.01c-1.434,29.336 24.577,9.846 33.72,5.058c13.629,-6.896 34.479,-9.577 53.952,-8.43c18.099,-2.125 37.841,-2.63 55.638,-5.058c17.788,-2.748 42.975,-1.096 57.324,-5.058c17.655,-2.58 34.289,-6.171 50.581,-10.116c18.333,-2.192 37.835,-6.222 53.952,-8.43c20.38,0.151 37.964,-2.496 55.638,-5.058c16.386,1.618 44.715,-9.493 45.522,-6.744c-9.032,11.498 -12.316,31.747 -15.174,47.208c-3.979,24.514 3.217,40.852 25.29,37.092c14.706,5.53 34.784,5.682 52.267,8.43c20.539,0 44.928,0.86 59.01,-3.372c18.966,-1.265 31.909,-8.565 47.208,-13.488c13.164,-7.368 30.23,-13.825 42.15,-20.232c14.08,-6.154 26.347,-14.112 38.778,-21.918c13.694,-6.829 25.491,-18.563 37.093,-25.29c11.967,-8.565 24.641,-19.423 32.034,-30.348c11.131,-9.392 21.739,-22.323 26.976,-35.407c5.634,-14.6 12.453,-28.004 16.86,-43.836c5.773,-14.752 12.78,-31.275 16.86,-45.522c8.298,-11.937 5.181,-35.288 18.546,-42.15c19.325,1.197 41.545,2.512 60.696,1.686c21.222,0.995 39.699,-0.776 59.011,-1.686c16.455,-4.08 39.573,-4.485 52.266,-10.116c18.301,-0.59 34.629,-12.123 48.894,-10.116c14.675,5.85 20.773,23.283 28.662,33.72c7.358,12.864 14.328,26.133 20.232,40.464c8.157,12.375 13.994,30.062 18.546,43.836c4.839,15.343 8.049,34.614 3.372,50.58c-6.393,14.146 -13.995,30.062 -23.604,38.779c-9.197,11.026 -17.555,22.912 -28.662,32.034c-9.603,10.925 -22.277,21.783 -32.034,30.348c-13.333,7.199 -22.279,21.783 -35.406,26.976c-8.155,12.375 -25.52,18.546 -32.034,30.348c-13.49,6.744 -21.172,19.288 -32.035,28.662c-9.139,20.704 -24.58,9.509 -33.72,-1.686c-13.016,-7.216 -20.454,-20.013 -33.72,-26.976c-10.384,-10.15 -24.145,-19.912 -33.72,-28.662c-11.429,-8.801 -23.39,-17.079 -33.72,-26.976c-14.223,-6.306 -22.014,-22.053 -33.72,-28.662c-6.793,-13.741 -21.922,-22.138 -28.662,-33.72c-13.02,-5.463 11.122,22.407 15.174,26.976c6.558,13.673 19.566,20.906 28.662,32.034c9.13,11.397 24.174,19.895 33.72,28.662c12.052,8.177 22.861,17.602 33.72,26.976c12.096,8.43 25.732,18.327 35.406,26.976c13.638,6.593 22.567,17.906 35.406,25.29Zm458.594,-111.276c-15.197,2.495 -40.764,4.636 -59.01,8.43c-19.365,4.232 -39.815,7.401 -59.01,11.802c-18.708,4.889 -40.363,6.845 -62.382,8.43c-24.781,1.18 -45.792,-1.416 -67.441,-3.372c-18.859,-4.738 -39.263,-7.941 -55.638,-15.174c-33.725,-3.541 -18.819,-7.891 -3.372,-23.604c12.084,-11.516 22.05,-25.155 32.034,-38.778c11.118,-12.477 19.521,-27.685 25.29,-45.523c5.888,-23.199 -3.394,-41.509 -8.43,-59.01c-6.348,-17.248 -14.762,-32.455 -21.918,-48.894c-1.17,-9.29 -33.666,-42.403 -10.116,-26.976c11.821,11.785 30.478,16.725 43.836,26.976c17.408,6.188 32.41,14.803 50.581,20.232c18.31,5.294 35.065,12.139 55.638,15.174c22.665,0.944 43.163,4.047 62.382,8.43c18.035,4.788 39.412,9.071 53.952,15.174c18.324,5.277 36.115,11.094 52.267,18.546c16.522,7.082 34.63,12.578 47.208,23.604c14.567,9.037 24.733,22.475 40.464,30.349c3.507,8.008 62.247,13.875 20.232,13.488c-23.402,-0.203 -40.683,-6.542 -59.01,-11.802c-19.204,-4.401 -38.306,-8.903 -59.011,-11.803c-20.498,-3.102 -39.42,-7.789 -60.696,-10.116c-21.528,-2.073 -42.074,-5.142 -64.068,-6.744c-19.104,-4.501 -40.756,-6.457 -59.01,-11.802c-19.752,-3.844 -38.61,-8.598 -55.639,-15.174c-24.393,-11.532 -37.697,-7.823 -8.43,5.058c17.4,6.205 36.909,10.302 53.953,16.86c20.238,3.356 38.061,9.155 59.01,11.802c17.145,6.458 44.971,2.243 57.324,13.489c9.226,14.381 18.84,28.375 28.662,42.15c10.74,12.071 21.035,27.448 30.348,38.778Zm210.751,-128.137c0.439,26.707 -5.075,68.284 -37.092,57.325c-32.961,-1.889 -52.822,-16.877 -74.184,-30.349c-16.574,-18.259 -41.375,-28.308 -67.44,-37.092c-22.711,-11.498 -53.696,-16.978 -77.557,-25.29c-28.529,-6.306 -56.282,-13.404 -89.358,-15.174c-31.584,-2.63 -57.985,-12.679 -80.929,-21.918c-24.571,-10.268 -49.044,-20.654 -69.126,-35.406c-10.659,-12.78 -64.979,-33.923 -25.29,-40.464c26.772,-10.201 59.179,-3.592 92.73,-8.43c32.129,-2.715 63.435,-6.255 91.045,-13.488c30.648,-4.199 55.547,-14.146 82.614,-21.919c26.572,-7.654 52.755,-17.905 75.871,-26.976c26.048,-20.097 45.859,11.651 65.754,21.918c19.473,14.753 37.935,32.726 50.58,52.267c13.336,21.496 25.813,43.886 37.092,67.44c9.88,24.346 22.239,48.439 25.29,77.556Zm-1038.58,-91.044c39.93,1.72 75.437,-0.995 102.846,-11.802c47.858,-23.402 -14.123,23.182 -25.29,26.976c-23.543,14.668 -53.301,23.132 -82.614,32.034c-31.232,6.407 -64.335,13.016 -94.417,18.546c-32.477,5.733 -62.574,13.859 -92.73,21.918c-30.529,7.098 -60.335,17.012 -85.986,26.976c-26.697,11.516 -50.115,26.319 -72.499,42.151c-22.899,14.735 -53.048,24.295 -79.242,33.72c-27.826,10.386 -72.097,4.333 -87.672,26.976c-4.891,-30.264 -4.258,-78.147 -0,-106.219c3.842,-34.377 16.519,-59.92 32.034,-82.614c16.283,-21.345 34.571,-42.774 60.696,-52.266c36.359,-1.838 73.952,-4.097 109.59,-1.686c36.71,0.927 78.865,-1.518 111.277,1.686c36.94,1.264 79.204,-2.765 111.276,3.372c32.669,4.957 59.663,17.686 92.731,20.232Zm239.413,-32.034c31.292,0.202 -24.736,16.135 -25.29,28.662c-16.629,11.465 -30.509,25.695 -42.15,42.15c-13.667,14.432 -24.493,31.714 -33.721,50.58c-12.414,14.972 -20.918,36.418 -32.034,50.581c-11.468,16.624 -23.798,32.405 -38.778,45.522c-15.316,12.78 -31.494,24.717 -50.58,33.72c-17.326,10.773 -39.196,17.012 -60.696,23.604c-25.427,3.692 -54.286,-1.096 -77.557,-1.686c-13.582,-15.14 2.971,-47.276 3.372,-67.44c4.536,-23.571 36.996,-19.204 53.953,-30.348c21.102,-6.997 39.4,-16.81 59.01,-25.291c17.487,-9.896 35.672,-21.665 50.58,-32.034c15.191,-12.915 29.348,-26.858 45.522,-38.778c14.174,-13.926 30.03,-26.167 45.522,-38.778c13.456,-14.635 31.736,-24.464 45.523,-38.778c11.719,-23.335 40.071,-6.862 57.324,-1.686Zm-43.836,-13.488c-15.078,4.484 -37.951,31.292 -55.639,43.836c-20.958,15.005 -39.422,32.523 -59.01,48.894c-20.835,15.124 -37.771,34.175 -60.696,47.208c-21.389,14.567 -46.674,25.274 -70.812,37.092c-26.435,9.526 -53.067,18.867 -82.615,25.291c-28.979,6.98 -63.847,8.092 -96.102,11.802c-34.189,1.77 -60.87,11.077 -92.731,15.174c-27.151,2.613 -74.845,7.165 -87.672,6.744c29.207,-7.284 56.891,-18.226 75.87,-33.72c20.981,-14.989 44.371,-27.567 70.813,-37.093c25.214,-10.756 52.804,-19.136 80.928,-26.976c29.109,-6.862 57.946,-13.994 87.672,-20.232c30.704,-5.26 59.994,-11.954 89.359,-18.546c28.697,-7.267 55.545,-16.388 79.242,-28.662c23.071,-12.898 43.049,-28.898 60.696,-47.208c21.603,-7.79 34.764,-53.683 60.697,-23.604Zm-26.976,-15.174c-5.016,4.198 -19.642,19.625 -28.663,28.662c-12.707,8.649 -30.265,12.443 -45.522,18.546c-17.556,3.793 -35.226,7.486 -55.638,8.43c-22.716,1.366 -41.12,-1.602 -60.696,-3.372c-17.786,-3.574 -32.584,-10.133 -50.58,-13.488c-14.571,-6.778 -29.266,-13.455 -43.837,-20.232c-14.23,-7.132 -26.534,-16.186 -38.778,-25.29c-12.76,-7.773 -24.054,-20.013 -32.034,-30.349c-11.458,-9.896 -18.533,-24.177 -26.976,-37.092c-3.861,-5.479 -17.988,-49.45 -3.372,-33.72c15.14,6.222 29.959,12.763 45.522,18.546c15.564,5.783 30.382,12.325 45.522,18.546c17.358,3.996 33.842,8.869 52.267,11.802c18.148,3.204 37.184,5.53 55.638,8.43c20.714,0.641 40.938,1.771 60.696,3.372l62.382,0c1.295,-9.492 -36.805,-2.866 -52.266,-5.058c-20.692,-0.657 -34.828,-7.89 -50.58,-13.488c-14.559,-6.794 -28.217,-14.499 -40.464,-23.604c-12.688,-8.666 -25.236,-17.484 -35.406,-28.662c-10.385,-10.976 -19.228,-23.486 -26.977,-37.092c-9.959,-11.396 -15.926,-26.789 -21.918,-42.15c-7.16,-14.979 -17.246,-40.082 8.43,-21.918c14.977,5.553 32.431,11.631 45.523,16.86c16.185,5.169 35.969,6.745 52.266,11.802c18.143,3.21 34.431,8.281 55.638,8.43c17.115,4.238 39.333,3.38 60.696,3.372c38.497,-5.338 12.846,4.179 5.058,18.546c-10.456,10.892 -17.248,25.459 -15.174,48.894c1.356,19.996 9.922,32.793 16.86,47.208c7.771,13.59 20.008,22.711 30.348,33.721c10.192,10.335 21.485,22.575 32.035,30.348Zm443.419,-136.567c2.634,30.348 -14.181,52.148 -25.29,70.812c-12.463,20.62 -34.43,34.024 -53.952,45.523c-23.663,9.424 -48.653,19.793 -74.184,25.29c-26.661,5.934 -55.76,9.441 -85.987,11.802c-28.427,2.529 -69.627,2.613 -96.102,-0c-30.992,-2.091 -58.208,-10.234 -80.928,-18.546c-22.716,-10.369 -41.783,-26.656 -57.325,-42.151c-16.433,-16.151 -30.661,-34.529 -38.778,-59.01c-8.61,-34.529 10.239,-56.962 26.976,-69.126c16.5,-16.585 65.743,-2.704 87.673,-11.802c29.304,-3.78 59.13,-9.315 77.556,-21.918c22.446,-10.147 44.177,-21.02 65.754,-32.034c22.033,-11.054 44.916,-23.53 79.243,-20.232c26.453,6.631 45.837,22.607 64.068,35.406c17.276,15.809 43.777,24.669 64.068,35.406c21.251,11.342 42.201,22.995 47.208,50.58Zm320.342,0c24.75,-2.225 50.597,-3.372 69.126,-11.802c43.415,-12.202 -5.395,9.34 -13.488,15.174c-17.939,9.037 -36.435,17.535 -53.952,26.976c-18.327,7.924 -39.385,15.748 -55.638,23.604c-20.755,6.222 -39.251,14.702 -60.697,20.232c-17.924,8.329 -41.511,13.606 -59.01,20.232c-21.346,4.907 -42.659,12.46 -64.068,15.175c-20.247,6.002 -47.146,7.974 -67.44,11.802c-23.96,3.018 -49.011,4.94 -74.185,6.744c-48.813,5.159 13.763,-6.475 16.86,-15.174c14.819,-12.157 25.083,-28.865 37.092,-43.837c9.061,-17.18 31.525,-23.604 45.523,-33.72c16.868,-10.099 37.304,-16.658 57.324,-23.604c20.987,-5.26 45.52,-9.61 69.126,-10.116c22.657,-3.591 54.441,-0.691 77.557,-1.686c24.497,-0.303 58.049,0.59 75.87,0Zm-342.26,-53.952c31.938,-32.999 -20.871,-29.837 -33.72,-25.29c2.549,20.407 46.473,-17.842 33.72,25.29Zm-541.208,-11.802c5.815,-12.934 -35.16,-20.898 -45.522,-35.406c-17.314,-14.154 -28.558,-34.39 -50.58,-43.837c4.179,2.937 24.835,31.224 40.464,40.465c9.369,22.1 38.965,23.983 55.638,38.778Zm563.126,-5.058c-6.685,35.327 -32.61,9.829 -45.522,6.744c-21.567,-10.379 -46.099,-20.123 -62.382,-33.72c-44.087,-15.1 44.603,-11.428 43.836,1.686c11.822,26.59 64.423,-7.71 64.068,25.29Zm507.489,-11.802c-0.051,23.592 -34.193,22.265 -48.895,35.406c-20.501,8.713 -40.885,17.566 -62.382,25.29c-22.542,6.677 -47.107,11.347 -75.87,11.802c-27.954,0.573 -56.667,2.883 -84.301,1.686c-30.407,-1.18 -57.551,0.894 -84.3,3.372c-25.872,3.355 -50.42,8.025 -70.812,16.86c-22.183,7.048 -42.069,16.388 -59.01,28.662c-28.956,33.299 -15.495,-8.716 1.686,-16.86c21.751,-7.469 41.737,-16.708 62.382,-25.29c21.24,-7.975 41.288,-17.162 62.382,-25.29c19.487,-9.733 39.913,-18.539 59.01,-28.662c20.738,-7.793 38.408,-21.151 55.639,-30.348c19.911,-9.307 35.625,-22.832 55.638,-32.034c20.316,-8.908 50.934,-7.518 75.87,-11.802c25.324,-6.839 51.558,-10.105 67.44,6.744c16.152,12.368 38.964,20.601 45.523,40.464Zm-1031.84,-3.372c9.086,1.483 28.681,-2.066 8.43,-1.686c-21.695,-7.527 -40.245,-18.206 -53.952,-33.72c-27.795,-10.973 -41.929,-37.651 -72.498,-43.837c-7.191,-3.378 -25.533,-1.08 -8.43,1.686c23.616,5.605 38.608,19.845 52.266,35.407c31.28,7.487 39.395,40.182 74.184,42.15Zm461.966,-18.546c13.065,-3.536 34.26,-2.872 60.696,-3.372c22.846,-1.118 48.116,-2.578 70.813,-1.686c37.781,-6.861 32.872,-0.257 8.43,10.116c-14.586,9.376 -31.013,19.68 -42.15,30.348c-16.218,5.456 -27.423,26.973 -40.465,26.976c-15.246,-2.497 29.312,-20.023 8.43,-40.464c-20.854,-10.251 -9.765,-38.02 -28.662,-10.116c-13.216,11.662 -49.808,-14.748 -37.092,-11.802Zm-837.945,-13.488c7.797,-15.023 18.795,-29.686 26.976,-42.151c12.547,-9.93 18.709,-26.252 28.662,-38.778c7.041,-4.635 54.043,-18.247 18.546,-11.802c-22.451,0.027 -29.66,15.302 -43.836,23.604c-12.279,10.229 -48.743,10.131 -42.15,-10.116c12.049,-10.428 33.037,-11.925 40.464,-26.976c10.788,-11.689 24.518,-20.444 37.092,-30.348c9.694,-10.713 33.315,-15.341 53.952,-10.116c24.682,-0.138 -25.246,-14.525 -35.406,-6.744c-17.733,4.744 -27.968,16.995 -42.15,25.29c-12.042,10.436 -21.173,23.79 -35.406,32.034c-17.41,1.86 -35.523,18.013 -18.546,35.406c11.51,7.751 44.293,1.742 50.58,-8.43c14.842,-8.823 -13.696,19.352 -16.86,26.976c-16.554,29.649 -12.387,6.593 -21.918,-11.802c2.64,3.141 1.799,36.138 -0,53.953Zm667.658,-20.233c-6.022,-16.941 -26.03,-37.196 -32.034,-62.382c-19.116,-13.968 -35.315,-33.13 -47.208,-52.266c4.628,18.335 18.091,45.134 38.778,55.638c10.995,22.09 23.722,44.723 40.464,59.01Zm8.43,-35.406c5.261,-12.63 -6.737,-34.285 -15.174,-40.464c-10.111,-10.118 -23.358,-17.108 -32.034,-28.662c-3.201,11.596 19.448,21.161 23.604,32.034c10.742,9.489 18.267,22.2 23.604,37.092Zm-62.382,-13.488c-2.192,-13.093 -15.589,-25.398 -25.29,-35.406c-14.328,-6.203 -20.072,-23.99 -32.034,-30.348c2.214,13.073 13.53,27.457 26.976,33.72c9.853,10.678 22.706,21.357 30.348,32.034Zm-617.078,-5.058c13.225,3.915 27.337,-16.143 20.232,-15.174c-0.24,10.261 -34.501,8.245 -20.232,15.174Zm881.781,-20.232c-0.73,-21.013 -24.578,-30.807 -42.15,-37.092c-22.899,-4.49 -43.917,-13.422 -52.266,-30.348c1.689,20.053 22.635,32.749 42.15,37.092c20.136,7.252 45.158,12.181 52.266,30.348Zm-625.508,-1.686c19.804,7.687 29.727,-25.762 16.86,-28.662c-21.195,-6.579 -30.043,23.06 -16.86,28.662Zm-45.523,-15.174c-2.065,20.51 -16.654,-25.378 -30.348,-26.976c-15.954,-11.02 -32.646,-21.308 -52.266,-28.662c-39.825,9.165 -24.833,-7.503 -11.802,-25.29c13.016,-4.915 21.879,-48.667 32.034,-32.034c14.001,20.503 -42.238,12.286 8.43,25.29c19.367,7.607 32.387,21.569 45.522,35.406c7.331,7.415 35.769,42.13 18.547,35.406c-10.127,-16.12 -22.848,-32.275 -35.407,-43.836c-16.044,-10.931 -32.056,-21.9 -53.952,-26.976c-16.302,3.832 31.252,12.908 37.092,23.604c19.251,7.723 29.642,24.314 42.15,38.778c15.647,18.285 7.711,51.437 -1.686,11.802c-10.827,-16.145 -23.27,-30.685 -40.464,-40.464c-12.22,-5.746 -46.968,-22.522 -50.58,-13.488c18.993,7.98 42.219,11.734 55.638,25.29c15.677,10.571 30.146,24.976 37.092,42.15Zm261.332,0c33.767,-1.571 1.728,-8 -11.802,-8.43c-35.204,-1.175 2.277,6.478 11.802,8.43Zm505.802,-33.72c-2.366,-12.466 -30.509,-20.773 -40.464,-32.034c-17.424,-8.427 -37.3,-14.407 -57.325,-20.232c4.757,10.075 35.479,15.804 45.523,26.976c15.76,10.089 36.505,15.201 52.266,25.29Zm-397.898,-8.43c14.205,-0.917 -3.748,-8.095 -5.058,-10.116c-21.119,-23.815 6.879,-45.671 28.662,-43.836c44.541,-9.924 49.71,43.163 37.092,45.522c29.032,-23.378 -7.639,-56.719 -38.778,-48.894c-40.995,-11.76 -52.258,47.784 -21.918,57.324Zm18.546,-5.058c39.136,12.261 54.156,-41.272 16.86,-42.15c-38.314,-11.635 -54.35,41.212 -16.86,42.15Zm-65.754,-6.744c17.671,7.081 24.582,-14.584 11.802,-18.546c-18.496,-6.574 -24.459,13.174 -11.802,18.546Zm-16.86,-1.686c-9.009,-31.471 32.103,-33.115 40.464,-10.116c7.865,34.232 -40.051,16.017 -40.464,10.116Zm155.112,-3.372c14.861,1.273 19.835,-16.506 6.744,-18.546c-18.684,-4.883 -18.49,18.138 -6.744,18.546Zm-67.44,-3.372c14.092,4.002 16.894,-8.729 5.058,-6.744c-14.199,-0.595 -15.391,5.752 -5.058,6.744Zm-375.979,-8.43c-13.175,9.062 -6.581,-27.932 1.686,-35.406c20.26,-5.928 -9.714,23.422 -1.686,35.406Zm396.211,-0c5.93,16.651 -27.472,20.353 -35.406,8.43c-6.156,-21.34 31.444,-20.844 35.406,-8.43Zm-433.304,-5.058c8.425,-3.536 21.32,-13.074 15.174,-23.604c-16.479,-3.187 -13.97,18.89 -15.174,23.604Zm79.243,-0c-4.077,15.371 -31.406,-33.407 -33.72,-8.43c-7.314,-32.82 39.454,-11.087 33.72,8.43Zm237.727,-3.372c1.495,-23.54 26.613,-4.617 10.116,-30.348c-4.16,-15.227 -27.234,-14.623 -33.72,-25.29c-5.854,13.781 21.862,15.234 28.662,25.29c17.29,21.075 -22.276,4.054 -30.348,8.43c-17.579,6.14 -35.486,-6.844 -52.267,-1.686c-19.812,2.458 19.268,6.745 28.663,6.744c12.232,25.094 16.492,-14.942 28.662,8.43c0.435,8.666 17.087,-22.977 20.232,8.43Zm-401.27,-6.744c4.709,-7.466 -30.655,-18.966 -53.952,-16.86c-1.605,3.156 42.642,7.595 53.952,16.86Zm677.775,-5.058c13.554,-6.977 26.332,-17.73 38.778,-23.604c9.824,-10.707 29.06,-15.003 40.464,-21.919c-21.565,-1.035 -33.894,10.169 -45.522,16.861c-11.06,9.47 -26.868,17.193 -33.72,28.662Zm308.539,-1.686c21.259,-4.856 -25.496,-12.391 -38.778,-11.802c-21.653,1.165 -51.614,-3.133 -64.068,5.058c-24.218,9.763 25.519,-4.426 40.464,-0c17.352,5.466 47.448,1.033 62.382,6.744Zm-268.075,-8.43c30.387,-7.245 44.425,-32.926 74.184,-38.779c-36.78,0.852 -50.295,27.056 -74.184,38.779Zm-276.505,-1.686c9.716,-11.47 -5.736,-24.299 -11.802,-26.976c-2.094,3.847 13.712,16.322 11.802,26.976Zm97.788,-1.686c-1.119,-3.932 1.229,-24.92 8.43,-25.29c-14.552,-2.266 -16.981,18.642 -8.43,25.29Zm20.232,-1.686c3.942,-5.448 6.994,-22.923 8.43,-23.604c-6.592,3.441 -13.565,16.069 -8.43,23.604Zm284.936,-1.686c24.604,-9.617 51.728,-18.943 79.242,-23.604c-37.02,-2.798 -60.29,10.379 -79.242,23.604Zm-386.096,-3.372c26.878,4.857 -6.194,-10.428 -6.744,-15.174c-21.65,-10.086 6.371,10.249 6.744,15.174Zm133.195,-0c19.905,-4.821 30.535,-18.924 47.208,-26.977c17.902,-6.824 27.856,-21.602 35.406,-38.778c-13.414,11.313 -20.868,28.592 -38.778,35.406c-17.4,7.328 -28.996,20.464 -43.836,30.349Zm-542.895,-6.744c23.881,-3.479 28.507,-5.711 10.116,5.058c-19.842,2.249 -24.18,-25.292 -10.116,-5.058Zm551.325,-6.744c18.817,-12.652 31.867,-31.08 53.952,-40.465c20.525,-10.827 28.455,-50.671 38.778,-6.744c5.717,24.517 -26.216,33.417 -42.15,45.523c-16.688,14.12 -41.178,22.821 -65.754,26.976c-23.819,-10.003 14.417,-37.017 23.604,-47.209c17.625,-13.182 42.023,-21.975 52.266,-40.464c31.557,-34.674 5.661,13.19 -10.116,20.232c-20.109,10.7 -40.759,23.242 -50.58,42.151Zm-536.151,-3.372c-34.074,20.537 -20.507,-43.666 11.802,-13.489c36.238,36.703 -47.154,-17.662 -11.802,13.489Zm391.154,-1.686c27.742,3.014 44.032,-5.428 70.812,-3.372c22.581,5.609 43.042,-6.348 59.011,-10.117c33.915,-12.518 -9.914,11.509 -13.489,20.233c8.854,33.728 -28.061,22.948 -38.778,16.86c-20.008,-7.373 -37.421,-9.84 -59.01,-1.686c-12.665,5.628 -44.077,22.864 -47.208,-1.686c0.362,-19.966 -26.983,-31.033 -28.662,-35.407c18.929,5.035 39.537,11.157 57.324,15.175Zm-177.031,-3.372c19.404,3.125 -12.591,-14.416 -13.488,-18.547c-12.557,-8.322 6.668,19.046 13.488,18.547Zm-222.553,-47.209c-1.934,-17.359 -30.029,-29.473 -38.778,-48.894c-8.958,-6.736 -44.134,-47.945 -26.976,-37.092c8.046,-7.43 59.154,-7.403 42.15,-38.778c13.294,-9.208 5.32,-48.432 5.058,-67.441c-20.424,-38.039 -41.659,10.742 -26.976,26.977c4.407,25.428 0.304,63.37 -32.034,47.208c-16.123,-12.187 -29.991,-38.787 -25.29,-62.382c-13.429,-14.298 2.561,-43.334 -8.43,-67.441c-7.887,-29.134 12.23,-33.949 35.406,-45.522c18.42,-39.26 13.862,15.338 20.232,28.662c13.513,22.906 -11.927,48.748 20.232,57.324c45.89,-20.228 -34.769,-34.784 8.43,-37.092c12.745,-24.231 -58.459,-28.208 -10.116,-40.464c-2.569,23.179 24.911,32.567 32.034,53.952c14.293,17.177 26.172,36.776 40.464,53.953c30.192,36.701 1.808,-10.388 -8.43,-20.233c-12.346,-19.122 -26.349,-36.598 -38.778,-55.638c-18.453,-14.843 -25.254,-39.403 -23.604,-60.696c3.354,-15.636 -6.682,-49.945 -3.372,-70.812c-7.221,-19.047 -10.016,-50.304 -11.802,-77.557c-15.375,-16.093 -15.806,-47.14 -42.15,-52.266c-22.355,-7.508 -44,-22.601 -15.174,-33.72c5.09,-23.378 -59.031,-17.567 -65.754,-5.058c-9.078,2.836 48.393,-15.263 60.696,1.686c-7.99,0.18 -13.225,3.519 -20.232,-0c18.365,6.356 28.984,8.858 -6.744,10.116c-24.92,-16.469 -66.953,8.467 -13.488,1.686c16.184,4.778 56.198,26.231 35.406,38.778c-3.679,-2.638 -13.331,31.498 -25.29,47.208c-3.595,4.273 -3.713,12.025 -3.372,20.232c40.403,3.423 -23.522,4.58 -1.686,28.663c45.856,20.488 13.606,-30.445 32.034,-33.721c7.506,-15.455 15.413,-36.286 3.372,-57.324c8.418,-7.895 20.847,43.961 18.546,53.952c-5.387,2.481 -3.699,12.037 -6.744,16.86c2.079,42.882 4.658,-16.431 13.488,-20.232c6.788,-13.161 -29.468,-54.458 1.686,-62.382c12.17,19.3 28.175,34.772 30.348,64.068c6.245,37.054 -16.648,47.352 -26.976,65.755c-35.872,38.372 13.436,-8.624 13.488,-0c-7.181,23.627 -23.024,40.975 -48.894,43.836c-21.445,0.529 -50.612,0.286 -50.58,-33.72c30.577,9.549 -16.188,-25.869 -20.233,-35.406c-10.898,-20.571 -20.719,-42.228 -32.034,-62.383c-9.074,-33.182 19.216,-43.391 35.406,-53.952c3.379,4.114 -2.955,11.387 -8.43,11.802c-16.113,23.889 29.929,-29.326 13.489,3.372c-23.053,9.583 -29.226,42.447 -5.059,53.952c4.057,3.811 5.357,10.381 8.431,15.174c6.733,15.96 -3.796,-31.786 -15.175,-32.034c-12.353,-43.642 31.035,-9.8 26.977,-1.686c-18.376,-42.318 -12.032,-19.986 28.662,-18.546c24.926,-21.618 -15.392,-34.2 -28.662,-43.836c-5.785,-2.084 -9.484,-6.253 -16.861,-6.744c-28.63,-15.945 -40.209,26.77 -28.662,21.918c5.954,-33.578 48.529,-8.422 60.697,0c46.065,17.907 -21.876,38.465 -21.918,8.43c-4.951,-36.63 -44.098,0.059 -48.895,10.116c-20.485,21.498 4.027,48.437 11.802,65.754c7.466,23.342 24.665,39.335 35.407,57.325c-13.291,27.175 44.35,53.192 11.802,45.522c-17.412,-8.046 -17.051,-73.625 -18.546,-16.86c19.812,14.634 2.008,54.191 28.662,62.382c2.97,4.896 12.763,2.973 11.802,11.802c9.138,38.559 -3.332,21.03 -6.744,-1.686c-11.303,-3.065 13.96,38.033 11.802,59.01c7.339,22.074 -0,38.568 5.058,67.441c1.662,6.509 6.3,10.444 8.43,11.802c-19.62,-12.925 12.212,-45.963 13.488,-13.488c-30.729,18.686 6.091,42.941 13.488,55.638c27.561,3.908 29.716,33.233 47.208,47.208c14.1,16.708 33.216,30.783 47.208,45.522Zm402.956,-21.918c26.851,0.086 10.875,-24.865 6.744,-6.744c13.1,-25.595 -14.685,-8.964 -6.744,6.744Zm377.666,-26.976c-7.871,-9.819 -12.632,-32.771 -11.802,-55.638c-3.076,-26.678 6.17,-41.039 10.116,-60.696c7.408,-38.669 19.776,31.906 5.058,-1.686c-8.582,36.647 11.486,19.161 11.802,21.918c-1.078,17.986 -46.079,-1.115 -6.744,16.86c8.354,-3.263 48.978,-20.922 30.348,-16.86c-5.554,1.805 15.238,-26.487 16.86,-3.372c13.648,20.67 -7.99,-35 11.802,-5.058c-7.302,19.974 -26.234,7.477 -37.092,26.976c-21.097,4.653 -51.661,7.078 -11.802,8.43c25.261,2.679 21.8,-29.109 50.58,-13.488c-0.546,24.148 33.147,14.063 43.836,26.976c26.275,9.799 -19.465,-3.288 -26.976,-0c-11.487,-6.404 -25.346,-31.722 -38.778,-21.918c-6.447,15.29 -34.034,18.489 -50.58,13.488c-6.293,12.358 34.558,7.831 43.836,1.686c16.298,-21.955 32.196,2.687 40.464,13.488c23.407,-12.509 23.732,11.456 45.522,1.686c-3.046,20.556 -10.942,36.269 -21.918,48.894c-9.755,13.847 -20.859,26.352 -35.406,35.406c-20.06,8.488 -40.796,-1.784 -52.266,-11.802c-11.801,-11.8 -23.606,-23.606 -35.406,-35.406c-8.958,-14.645 -16.726,-30.485 -23.605,-47.208c-7.769,-15.833 -18.35,-28.86 -26.976,-43.836c-8.087,-15.515 -17.684,-29.526 -23.604,-47.209c-11.237,-13.277 -17.981,-37.828 5.058,-42.15c14.365,-9.236 29.392,-17.817 47.208,-23.604c14.885,0.17 45.162,-19.787 48.895,-1.686c8.501,18.364 11.341,37.811 -1.686,52.266c-7.881,15.722 -13.723,33.49 -18.546,52.267c-6.547,15.489 -10.609,39.144 -6.744,60.696c-0.186,23.005 7.027,41.454 18.546,50.58Zm-832.888,-55.638c9.826,16.599 -20.466,17.507 -16.86,8.43c-11.654,-9.916 15.403,-24.117 16.86,-8.43Zm-26.976,-5.058c7.273,12.271 -10.593,20.534 -16.86,10.116c-8.358,-11.187 11.711,-21.65 16.86,-10.116Zm52.266,-1.686c4.02,7.071 -18.472,17.516 -18.546,1.686c-3.635,-14.625 20.873,-15.446 18.546,-1.686Zm913.816,-10.116c21.928,9.104 23.582,-43.265 13.488,-15.174c-31.747,8.128 9.931,-21.554 -15.174,-10.116c-20.721,26.811 37.972,12.64 6.744,21.918c-17.211,-20.215 -23.088,4.517 -18.546,-20.232c-13.994,24.133 -16.664,-13.439 1.686,-13.488c12.76,-1.729 40.72,-25.166 32.034,6.744c1.565,14.381 5.795,50.826 -15.174,40.464c-16.988,-4.871 -37.588,-11.544 -5.058,-10.116Zm-982.942,-10.116c10.268,11.593 -16.889,20.272 -16.86,6.744c-6.684,-8.009 14.653,-22.508 16.86,-6.744Zm952.594,-3.372c1.428,11.148 -20.495,-4.178 -5.058,-21.918c-10.597,-2.85 1.121,-3.936 5.058,-3.372c26.337,-2.076 -15.744,10.756 -0,25.29Zm-880.096,-8.43c8.666,13.661 -10.283,20.844 -16.86,10.116c-7.273,-12.271 10.593,-20.534 16.86,-10.116Zm829.516,-13.488c0.479,-10.683 -8.289,-7.505 -20.232,-23.604c-0.744,-19.604 8.548,-38.091 23.604,-18.547c15.997,6.481 33.359,11.604 57.324,10.116c17.029,4.551 48.549,-22.435 38.778,6.745c-6.708,14.164 -32.921,14.658 -50.58,13.488c-17.887,2.2 -41.299,-3.204 -52.266,-10.116c-31.905,-15.341 -3.561,6.056 8.43,11.802c27.637,23.45 -29.539,22.687 -5.058,10.116Zm-827.83,-8.43c9.309,11.955 -16.902,13.953 -18.546,5.058c-4.443,-11.937 17.966,-17.739 18.546,-5.058Zm871.666,-8.43c22.459,0.021 55.525,2.363 52.266,-16.861c-9.836,12.898 -43.19,10.609 -60.696,8.431c-16.752,2.242 -47.739,-20.145 -45.522,-10.117c12.157,11.806 35.17,15.524 53.952,18.547Zm-961.024,-11.802c9.443,11.655 -8.978,20.995 -15.174,11.802c-7.361,-9.574 8.644,-21.332 15.174,-11.802Zm85.986,-6.745c8.481,11.393 -20.561,19.929 -18.546,6.745c-4.035,-18.245 17.11,-17.144 18.546,-6.745Zm293.365,-10.116c23.406,1.73 42.061,-4.21 59.011,-6.744c15.487,-5.867 30.806,-11.908 43.836,-20.232c14.628,-6.727 30.164,-12.549 45.522,-18.546c13.787,-5.941 39.466,-6.756 57.324,-3.372c17.125,4.551 32.345,13.927 45.523,20.232c15.823,5.53 30.747,11.966 48.894,15.174c14.998,3.148 43.175,6.81 55.638,-1.686c1.345,-3.122 -34.236,3.254 -48.894,-1.686c-17.455,-4.22 -36.399,-9.87 -50.58,-15.174c-13.962,-7.391 -26.791,-15.924 -43.837,-20.232c-17.04,-5.309 -37.488,-5.967 -55.638,-1.686c-17.604,3.75 -31.245,11.47 -47.208,16.86c-13.601,8.075 -29.96,16.311 -43.836,21.918c-17.344,4.01 -32.142,10.573 -55.639,8.43c-21.091,-0.261 -39.665,-3.048 -52.266,-11.802c0.383,14.905 27.937,13.05 42.15,18.546Zm578.301,0c23.302,0.103 52.484,0.557 60.696,-10.116c-7.61,17.115 -33.548,15.911 -57.324,16.86c-21.633,-3.093 -42.833,-6.626 -53.952,-20.232c6.58,-1.677 30.429,14.576 50.58,13.488Zm-957.652,-8.43c9.372,12.081 -18.118,17.403 -18.546,6.744c-11.88,-14.142 19.529,-15.548 18.546,-6.744Zm80.928,-15.174c9.728,15.979 -13.087,21.456 -16.86,11.802c-7.749,-12.056 13.316,-23.329 16.86,-11.802Zm-84.3,-11.802c9.657,13.684 -18.283,16.026 -16.86,5.058c-8.174,-10.655 18.499,-17.698 16.86,-5.058Zm209.065,-11.802c-2.091,-8.344 -12.172,-19.997 -20.232,-26.976c-6.247,16.68 15.99,16.181 20.232,26.976Zm-126.451,-5.058c9.091,12.365 -12.06,21.746 -16.86,10.116c-8.135,-11.409 11.934,-21.872 16.86,-10.116Zm-84.3,-13.488c10.703,13.003 -16.454,19.03 -16.86,8.43c-10.703,-13.002 16.453,-19.03 16.86,-8.43Zm691.263,-11.802c25.866,0.017 53.06,1.354 69.126,-8.43c-18.885,-0.297 -48.107,4.116 -70.812,0c-21.392,2.534 -43.322,-20.542 -53.952,-10.116c15.516,4.561 34.059,15.764 55.638,18.546Zm-713.181,-5.058c-6.289,-0.794 -28.796,-9.691 -26.976,-25.29c0.45,6.633 18.563,19.925 26.976,25.29Zm21.918,-1.686c14.631,-7.847 30.955,-14.007 40.464,-26.976c22.729,-20.397 2.139,15.078 -8.43,18.546c-11.846,6.071 -33.506,20.466 -48.894,8.43c-12.61,-28.655 29.478,-10.716 16.86,0Zm606.962,0c30.709,-8.059 40.584,-38.994 57.325,-59.01c13.456,-25.312 32.668,-46.91 48.894,-67.44c16.88,-21.887 35.177,-44.403 48.894,-67.441c16.442,-19.448 31.977,-48.115 23.604,-84.3c0.474,27.055 -10.069,66.022 -28.662,80.928c-14.245,24.523 -33.557,46.023 -50.58,65.755c-15.877,22.89 -34.799,44.78 -47.208,69.126c-15.807,22.405 -28.18,48.255 -52.267,62.382Zm-536.15,-6.744c-5.017,5.982 -21.567,-11.128 -8.43,-18.546c13.695,-8.4 21.401,14.768 8.43,18.546Zm495.686,0c13.419,1.851 8.783,-2.318 3.372,-6.744c-17.094,-28.524 0.275,-13.298 16.86,-20.232c-35.763,-17.889 -35.999,-0.384 -20.232,26.976Zm-591.788,-15.174c8.914,3.271 -5.942,25.044 -13.488,3.372c-17.14,-19.042 7.57,-17.425 13.488,-3.372Zm421.501,-0c18.611,5.84 22.291,-23.471 6.745,-21.918c-16.338,-9.196 -21.232,22.08 -6.745,21.918Zm143.311,-1.686c-13.778,1.63 -29.235,1.554 -18.546,-10.116c4.618,-28.156 40.872,-0.152 18.546,10.116Zm672.717,-5.058c27.296,-2.696 23.587,-45.91 32.034,-60.696c-7.941,-27.285 6.036,-56.861 10.116,-79.243c10.942,-20.995 9.863,-56.356 11.802,-84.3c-4.535,-26.929 0.894,-63.842 -3.372,-91.044c-10.2,-21.743 -46.871,-19.347 -67.44,-28.663c-14.348,-9.004 -70.121,-1.396 -43.836,-30.348c24.228,39.267 26.453,6.426 -3.372,-5.058c-20.839,10.354 -25.864,-32.882 -35.406,-48.894c-19.457,-13.38 -62.789,-2.954 -72.499,10.116c-22.026,17.427 -9.34,56.05 8.43,64.068c17.975,13.972 30.365,35.865 47.208,48.895c21.733,13.648 -1.989,53.561 10.117,77.556c7.57,24.385 20.822,45.394 33.72,62.382c20.502,4.035 38.879,45.394 8.43,52.266c-15.832,22.455 -1.147,59.232 11.802,70.813c15.427,16.046 30.584,32.364 52.266,42.15Zm-178.717,-3.372c2.517,-22.208 15.803,-33.656 28.662,-45.522c7.643,-17.083 17.029,-32.429 20.232,-53.952c15.68,-28.207 33.586,-0.774 16.86,20.232c-4.653,20.07 -9.728,39.732 -20.232,53.952c-8.914,15.813 -19.168,30.289 -26.976,47.208c-6.019,18.706 -13.403,36.055 -20.232,53.952c-7.261,17.464 -11.78,37.677 -40.464,33.72c-25.366,1.405 -49.324,-1.369 -64.068,-8.43c-9.931,-14.794 -11.418,-38.041 -18.546,-55.638c-4.323,-23.732 1.552,-44.811 -0,-70.812c-0.28,-25.005 10.048,-39.411 21.918,-52.266c15.634,-32.539 26,12.837 11.802,23.604c-6.051,5.242 -16.83,58.496 -5.058,42.15c-2.779,-20.512 10.515,-37.64 15.174,-55.638c13.007,-32.451 12.227,13.867 3.372,26.976c-16.624,11.63 -24.881,38.024 -5.058,10.116c16.609,-5.063 14.569,-39.827 18.546,-48.894c14.837,7.765 35.698,-42.017 15.174,-11.802c-19.134,12.983 -49.833,1.357 -15.174,-5.058c15.44,-26.371 -31.39,19.876 -1.686,-15.175c7.973,-19.766 47.441,-15.512 28.662,15.175c-1.278,21.921 -12.377,39.55 -6.744,64.068c1.646,-23.082 9.949,-39.51 11.802,-62.382c9.706,-24.444 -2.891,-41.343 -10.116,-55.639c7.329,-27.812 33.295,3.807 37.092,13.488c9.24,16.656 2.135,43.997 -1.686,62.383c-6.093,4.919 -16.804,60.467 -6.744,37.092c2.585,-21.379 17.621,-33.071 15.174,-57.324c7.292,-20.265 -2.163,-44.921 3.372,-67.441c20.025,-22.36 18.142,25.206 20.232,40.464c2.276,27.002 -2.154,47.305 -8.43,65.755c-3.309,20.653 -19.965,30.727 -16.86,55.638Zm-627.194,-1.686c5.007,4.964 -11.175,10.919 -11.803,1.686c-1.6,-8.371 12.775,-12.517 11.803,-1.686Zm316.969,-1.686c19.306,7.118 26.73,-13.741 13.488,-20.232c-15.678,-9.285 -24.282,12.754 -13.488,20.232Zm-730.041,-5.058c8.263,11.536 -12.888,20.918 -16.86,10.116c-8.263,-11.536 12.888,-20.918 16.86,-10.116Zm80.928,-5.058c10.721,13.023 -22.776,14.213 -18.546,3.372c-2.123,-12.542 20.183,-16.344 18.546,-3.372Zm664.287,-0c6.1,8.69 -14.589,8.693 -13.488,-0c0.155,-9.647 14.434,-10.57 13.488,-0Zm-765.447,-5.058c24.718,7.361 28.557,-26.26 10.116,-28.662c-20.355,-9.192 -27.573,26.241 -10.116,28.662Zm79.242,-8.43c-1.013,13.066 -11.603,27.178 -21.918,35.406c-12.932,6.604 -26.856,23.56 -33.72,3.372c-28.296,-3.638 17.875,-8.616 23.604,-13.488c11.099,-7.442 25.889,-17.358 32.034,-25.29Zm1159.97,-3.372c41.914,-5.674 -1.753,50.344 -16.86,16.86c-13.522,-15.702 -31.849,-26.609 -40.464,-47.208c-4.249,-2.632 -5.075,-12.541 -6.744,-15.174c-5.412,-41.451 7.334,2.18 13.488,8.43c11.262,17.966 26.234,32.209 50.58,37.092Zm-638.997,-3.372c9.315,0.543 14.854,-14.554 3.372,-16.86c-12.247,-4.229 -13.779,18.113 -3.372,16.86Zm-26.976,-1.686c14.68,6.594 17.494,-13.304 8.43,-13.488c-12.684,-1.968 -16.155,10.787 -8.43,13.488Zm-559.754,-3.372c9.36,13.608 -10.339,21.79 -15.174,13.488c-9.565,-13.406 10.32,-21.772 15.174,-13.488Zm85.986,-0c8.901,9.775 -17.575,15.577 -18.546,5.058c-5.591,-13.085 18.851,-16.854 18.546,-5.058Zm519.29,-3.372c12.215,1.433 16.498,-9.353 8.43,-15.174c-7.317,-4.085 -15.755,9.03 -8.43,15.174Zm-65.754,-1.686c12.082,4.235 12.136,-15.176 5.058,-13.488c-13.743,-4.598 -11.627,14.481 -5.058,13.488Zm686.205,-1.686c8.211,0.339 15.966,0.222 20.232,-3.372c13.926,-33.596 10.487,22.813 -13.488,13.488c-28.375,-2.433 -43.583,-20.419 -53.952,-38.778c-23.705,-17.96 7.368,-66.077 -0,-16.86c13.083,17.723 25.02,38.98 47.208,45.522Zm-1240.9,-5.058c26.008,11.148 30.39,-23.351 13.488,-26.976c-17.982,-9.088 -30.261,19.729 -13.488,26.976Zm638.996,-6.744c12.163,3.006 15.436,-12.492 10.116,-15.174c-15.684,-5.591 -15.715,11.525 -10.116,15.174Zm-102.846,-1.686c10.942,4.243 13.193,-10.354 6.744,-13.488c-9.034,-2.335 -14.377,9.17 -6.744,13.488Zm418.13,-3.372c9.44,-0.285 21.911,-5.917 18.546,-18.546c1.826,3.188 -12.664,13.631 -18.546,18.546Zm-939.106,-6.744c9.583,11.795 -8.189,21.785 -15.174,11.802c-9.584,-11.796 8.189,-21.785 15.174,-11.802Zm82.614,-0c9.443,11.655 -8.978,20.995 -15.174,11.802c-8.29,-10.502 7.713,-22.261 15.174,-11.802Zm495.686,-3.372c24.253,-3.843 32.237,-23.967 40.464,-43.837c21.355,-18.215 -13.501,-51.824 15.174,-48.894c23.658,-4.439 39.289,-16.914 55.639,-28.662c12.124,-15.973 26.483,-29.721 32.034,-52.266c9.435,-41.034 3.021,30.188 -8.43,32.034c-10.624,17.474 -27.433,28.77 -40.464,43.836c-17.046,11.052 -30.111,26.093 -42.151,42.15c-11.174,16.923 -14.568,41.635 -32.034,52.267c-13.139,16.504 -53.654,7.273 -60.696,-6.744c-11.37,-16.727 -17.735,-38.468 -30.348,-53.953c-9.406,-18.691 -28.512,-27.691 -45.522,-38.778c-17.83,-10.268 -31.989,-24.214 -45.522,-38.778c-12.141,-25.003 19.029,19.328 28.662,21.918c17.596,10.501 34.165,22.038 55.638,28.662c28.227,-0.13 26.58,29.623 33.72,50.58c5.131,22.967 27.057,29.146 43.836,40.465Zm-72.498,-5.058c9.401,2.702 15.794,-7.753 8.43,-11.802c-10.585,-1.52 -13.888,5.843 -8.43,11.802Zm131.508,-1.686c11.561,3.469 15.945,-14.058 8.43,-16.86c-13.943,-3.85 -13.563,13.678 -8.43,16.86Zm-428.245,-3.372c23.605,-4.269 0.295,-27.27 -3.372,-33.721c-9.56,1.351 -8.301,28.59 3.372,33.721Zm372.607,-1.686c10.233,1.183 2.163,-16.198 1.686,-16.86c-6.639,4.149 -3.773,12.71 -1.686,16.86Zm340.574,-0c-21.315,23.054 -36.425,-23.743 -16.86,-37.093c17.261,-28.459 27.276,22.539 16.86,37.093Zm-15.174,-3.372c24.33,3.592 11.333,-26.457 10.116,-35.407c-7.184,7.535 -21.743,26.643 -10.116,35.407Zm-679.461,-1.686c0.512,40.201 -47.537,7.748 -32.034,-25.291c-6.343,-32.541 28.092,9.629 32.034,25.291Zm266.389,-1.686c8.145,0.585 14.585,-12.109 5.058,-15.175c-13.832,-3.496 -10.58,11.612 -5.058,15.175Zm-281.563,-1.686c-0.167,12.753 -7.345,-13.251 -10.116,-15.175c-0.08,-14.393 10.193,11.944 10.116,15.175Zm347.317,-1.686c0.376,-33.458 18.838,10.271 -1.686,3.372c-14.577,-15.352 0.836,-30.802 1.686,-3.372Zm32.034,-0c6.999,14.973 -13.859,23.472 -18.546,8.43c-11.23,-18.258 22.132,-27.755 18.546,-8.43Zm-588.416,-1.686c5.483,10.483 -15.105,17.527 -18.546,5.058c-2.998,-13.984 17.403,-17.41 18.546,-5.058Zm75.87,-0c5.807,12.565 -8.706,16.846 -15.174,21.918c7.442,-4.097 14.051,-16.282 15.174,-21.918Zm526.034,-8.431c3.586,26.159 -6.804,-15.081 -6.744,6.745c-9.839,7.206 0.85,-29.678 6.744,-6.745Zm40.464,0c11.388,4.022 17.56,-8.762 11.803,-11.802c-8.198,-5.917 -17.677,3.556 -11.803,11.802Zm-163.542,-3.372c10.807,2.236 12.024,-12.847 6.744,-15.174c-14.105,-4.235 -10.406,13.261 -6.744,15.174Zm67.44,-8.43c5.593,11.507 -7.506,15.166 -8.43,1.686c1.035,-15.373 5.314,-14.976 8.43,-1.686Zm23.604,-3.372c32.451,3.335 34.263,-49.541 8.43,-55.638c-32.393,-7.177 -36.375,54.059 -8.43,55.638Zm87.673,0c9.896,3.199 14.179,-9.367 8.43,-11.802c-9.897,-3.198 -14.18,9.368 -8.43,11.802Zm-192.205,-1.686c11.011,2.11 14.221,-19.986 3.372,-18.546c-12.694,-0.425 -11.64,17.405 -3.372,18.546Zm-461.966,-6.744c9.966,14.964 -10.887,20.241 -16.86,10.116c-7.001,-9.864 11.053,-22.715 16.86,-10.116Zm566.498,0c19.804,0.137 22.399,-29.914 10.116,-38.778c10.733,-4.684 17.565,31.515 3.372,37.092c-14.467,14.898 -35.613,-9.637 -25.29,-26.976c10.632,-22.609 -8.165,30.028 11.802,28.662Zm102.847,-5.058c13.093,5.247 12.228,-15.084 5.058,-13.488c-14.578,-1.74 -8.248,11.288 -5.058,13.488Zm-438.362,-1.686c53.353,-15.86 -47.566,-37.132 -0,-16.86c15.386,19.924 -38.085,-21.385 -0,16.86Zm632.252,0c26.248,0.987 22.93,-33.126 10.116,-15.174c24.979,-18.637 -32.182,-0.192 -10.116,15.174Zm-421.501,-5.058c8.817,1.452 19.215,-7.104 11.802,-11.802c-6.687,-5.614 -14.672,7.859 -11.802,11.802Zm241.099,-3.372c8.807,-2.006 16.986,-12.083 10.116,-20.232c-8.859,-4.663 -16.258,10.258 -10.116,20.232Zm-505.802,-1.686c34.082,10.904 20.218,-45.358 26.976,-33.72c15.513,23.598 -23.984,53.256 -28.662,21.918c-2.523,-33.868 34.234,-33.044 5.058,-8.43c14.329,5.775 21.66,-6.722 -3.372,20.232Zm350.689,0c8.331,-5.211 9.514,-1.16 5.058,3.372c-30.136,-0.59 14.367,-26.382 3.372,-25.29c-21.09,13.072 -46.151,-6.117 -62.382,-10.116c-19.416,-8.681 -35.314,-20.889 -50.58,-33.72c-11.592,-15.796 -26.794,-30.547 -30.349,-52.266c11.72,-16.378 31.257,-24.946 52.267,-32.034c17.723,9.664 23.74,33.598 43.836,38.778c19.792,7.595 31.166,26.173 43.836,38.778c11.753,16.176 48.888,14.338 59.01,0c19.302,-8.796 25.501,-30.702 47.208,-37.092c22.33,-1.602 26.924,-36.514 43.837,-32.034c6.197,0.677 13.237,4.38 16.86,5.058c-7.061,18.215 30.601,0.219 16.86,11.802c-3.866,23.521 -15.613,41.727 -25.29,57.324c-13.33,14.768 -28.108,28.096 -48.894,35.406c-15.923,14.292 -50.984,13.916 -55.639,-6.744c-22.972,-5.321 -47.926,1.582 -57.324,15.174c19.291,-23.543 10.391,10.831 -1.686,23.604Zm-99.474,-3.372c12.717,2.002 11.416,-15.526 5.058,-16.86c-10.789,-0.072 -12.731,14.212 -5.058,16.86Zm170.286,-1.686c2.017,18.506 -5.687,37.507 -23.604,40.464c-24.336,2.661 -32.943,-13.327 -33.72,-32.034c-2.207,-18.696 5.603,-37.591 23.604,-40.464c23.102,-1.426 33.179,13.092 33.72,32.034Zm320.342,0c8.915,-2.714 -1.936,-15.196 -1.686,-16.86c-6.749,-42.782 -12.251,8.063 -10.116,0c2.395,-54.81 -17.933,17.762 11.802,16.86Zm-908.758,-3.372c8.666,14.637 -10.283,19.165 -16.86,11.802c-5.746,-14.772 14.322,-22.585 16.86,-11.802Zm876.724,0c12.001,23.525 -30.016,39.363 -33.721,15.174c-22.157,-23.45 32.244,-37.734 33.721,-15.174Zm-187.147,-5.058c10.595,0.725 9.73,-13.936 5.058,-16.86c-9.487,-1.834 -11.367,15.574 -5.058,16.86Zm-286.621,-3.372c10.63,-0.079 10.131,-17.608 1.686,-16.86c-12.912,-0.75 -7.852,16.779 -1.686,16.86Zm-374.294,-3.372c19.51,-0.33 -14.045,-9.433 -3.372,-18.546c-12.149,-9.629 -3.94,20.844 3.372,18.546Zm674.403,-6.744c10.276,-0.44 12.218,-14.724 5.058,-16.86c-13.977,-0.743 -8.825,12.933 -5.058,16.86Zm-202.321,-1.686c28.436,4.664 3.908,-24.767 -1.686,-6.744c20.08,1.093 -19.644,2.973 1.686,6.744Zm96.102,-1.686c9.349,1.983 23.298,-3.023 13.488,-10.116c-6.201,-5.129 -21.402,1.128 -13.488,10.116Zm-632.252,-3.372c23.54,-3.583 -4.328,-4.179 -6.744,-10.116c-5.952,-16.949 -4.912,15.173 6.744,10.116Zm1215.61,-1.686c37.48,2.128 55.233,-17.657 67.44,-38.778c13.994,-44.399 -54.745,-25.602 -57.324,-8.43c-37.328,33.626 22.879,48.208 38.778,23.604c39.149,-28.399 -15.629,-47.375 -32.034,-20.232c-32.641,51.334 66.749,-5.08 21.918,13.488c-55.554,19.849 11.515,-49.939 18.546,-10.116c1.636,23.336 -73.594,39.023 -47.208,-1.686c3.186,-18.713 74.167,-32.956 50.58,6.744c-6.457,18.878 -49.602,42.491 -65.754,20.232c-12.578,-22.79 -32.456,-40.446 -42.15,-64.068c7.3,-42.665 -41.813,-31.083 -48.895,-57.324c-13.96,-21.403 -36.603,-36.293 -50.58,-55.639c-9.691,-33.268 16.188,-53.063 47.208,-52.266c39.874,-11.01 26.842,44.571 48.895,53.952c6.373,28.813 2.478,57.906 45.522,53.953c17.029,17.531 -37.598,26.043 -32.034,52.266c27.751,21.704 58.892,-32.827 72.498,6.744c40.194,28.665 -7.25,-30.537 -26.976,-18.546c-6.576,2.421 -11.279,6.702 -18.546,8.43c-55.369,8.319 20.131,-10.728 -1.686,-13.488c-41.088,29.287 5.395,-24.81 23.604,-21.918c7.165,1.829 14.129,3.854 21.918,5.058c50.58,1.9 -14.011,-5.345 -18.546,-13.488c-8.734,-6.967 -86.324,-27.359 -40.464,-21.918c24.025,-14.603 55.301,9.401 80.928,11.802c31.613,3.23 13.1,56.599 18.546,85.986c-0.084,29.982 1.939,72.674 -8.43,94.416c-9.829,25.535 -11.178,61.722 -20.232,85.987c-31.343,7.759 -45.421,-23.832 -57.324,-42.15c5.496,-33.618 -9.846,-61.707 -30.348,-72.499c-14.298,-21.058 -29.539,-43.364 -33.72,-72.498c-0.911,-9.907 3.22,-14.758 1.686,-25.29c4.653,-54.782 7.334,17.391 8.43,3.372c-4.856,-58.253 18.326,5.166 20.232,25.29c16.657,18.185 30.567,39.117 45.522,59.01Zm-569.871,-1.686c-26.04,5.387 3.597,13.267 1.686,-3.372c-23.713,-0.909 -18.972,10.691 -1.686,3.372Zm-224.239,-1.686c13.456,4.885 11.008,-13.864 6.744,-15.174c-9.849,-8.491 -10.146,13.001 -6.744,15.174Zm234.355,0c10.103,0.713 19.135,-3.54 13.489,-13.488c-9.454,-1.361 -19.739,4.143 -13.489,13.488Zm-94.416,-6.744c40.409,2.777 74.26,-3.09 97.788,-15.174c25.451,-12.181 45.241,-32.11 57.325,-55.638c7.285,-40.154 -19.947,34.91 -35.406,33.72c-21.657,15.975 -50.623,26.728 -82.615,30.348c-37.293,-0.339 -71.832,-5.518 -96.102,-16.86c-24.365,-13.267 -45.339,-32.012 -50.58,-62.382c-14.615,-5.49 11.505,50.295 26.976,55.638c21.424,16.208 50.71,26.641 82.614,30.348Zm315.283,0c13.232,-1.18 48.127,-4.286 21.918,-11.802c-6.765,-15.921 -40.794,-2.308 -21.918,11.802Zm-633.938,-1.686c38.881,15.859 55.026,-29.736 18.546,-13.488c-7.105,1.057 -11.16,8.917 -3.372,5.058c19.654,3.851 -19.206,1.226 -15.174,8.43Zm504.116,0c9.472,3.116 17.789,-10.357 10.116,-11.802c-9.727,-8.368 -15.656,7.491 -10.116,11.802Zm-69.126,-3.372c11.316,3.158 19.814,-9.094 11.802,-15.174c-10.592,-0.432 -18.177,7.971 -11.802,15.174Zm232.669,-1.686c-5.708,8.111 -48.649,28.482 -47.209,-1.686c1.951,-30.35 44.093,-12.117 47.209,1.686Zm-500.745,-6.744c13.451,2.104 11.833,-8.533 8.43,-13.488c-12.712,-2.843 -13.483,10.183 -8.43,13.488Zm-121.392,-3.372c9.015,23.366 -40.668,24.675 -47.208,15.174c7.968,-11.554 34.183,-35.212 47.208,-15.174Zm409.7,-3.372c12.414,-1.836 14.472,-14.267 13.488,-13.488c-11.885,-6.924 -24.766,5.952 -13.488,13.488Zm59.01,-1.686c12.938,4.854 15.343,-15.457 6.744,-15.174c-12.36,-1.644 -13.901,13.041 -6.744,15.174Zm-45.522,-15.174c6.793,0.096 14.246,-9.3 6.744,-13.488c-6.793,-0.096 -14.247,9.3 -6.744,13.488Zm-266.389,-1.686c12.94,0.103 9.355,-10.178 5.058,-13.488c-14.482,-3.859 -9.977,12.832 -5.058,13.488Zm316.969,-8.43c10.956,3.589 15.722,-10.6 8.43,-15.174c-13.616,-6.25 -15.078,11.244 -8.43,15.174Zm-330.458,-13.488c13.352,5.505 14.569,-12.745 6.745,-11.802c-10.214,-7.365 -12.9,9.414 -6.745,11.802Zm82.615,-15.174c-9.9,1.505 -24.204,-16.405 -28.662,-26.976c-7.036,-18.477 -32.901,-1.948 -42.15,1.686c-16.855,17.222 -15.019,-7.891 -16.861,-26.976c9.209,-11.022 12.462,-28.005 18.547,-42.151c6.118,-6.843 4.822,-56.179 11.802,-30.348c5.144,15.087 12.103,28.362 15.174,45.522c3.975,16.254 9.5,30.966 16.86,43.837c6.02,14.209 14.145,26.32 25.29,35.406Zm220.867,-30.348c-3.654,31.284 -48.625,-28.934 -43.836,11.802c-19.649,22.238 -35.236,26.005 -8.43,-1.686c12.452,-17.216 17.013,-44.764 21.918,-67.441c7.858,-32.614 -32.357,-35.01 -15.174,-62.382c5.778,-23.891 8.347,-53.431 6.744,-82.614c3.722,-13.684 13.57,35.586 11.802,55.638c-2.834,26.098 -3.748,63.305 3.372,82.614c4.267,24.955 14.961,43.491 23.604,64.069Zm91.044,-21.918c14.49,51.516 -14.375,65.707 -45.522,40.464c-28.013,-10.755 -48.717,-30.861 -55.638,-60.697c-11.393,-27.903 -16.796,-63.655 -11.802,-101.16c5.735,22.075 15.327,56.685 32.034,75.87c25.308,12.342 32.821,-40.454 69.126,-33.72c6.452,-1.107 11.512,-15.182 15.174,-5.058c34.922,36.135 -53.579,25.778 -6.744,21.918c17.966,0.123 -1.861,-5.51 -10.116,-3.372c-56.778,15.483 18.039,8.505 6.744,18.546c-55.979,-14.707 24.483,11.905 6.744,47.209Zm-202.321,-47.209c37.118,-17.784 0.351,-67.61 -35.406,-45.522c-30.034,-13.827 -78.687,16.053 -45.522,42.15c7.823,3.522 15.182,-2.402 16.86,-10.116c1.342,-18.8 54.633,3.511 60.696,-20.232c8.297,-6.533 14.94,-2.219 13.488,10.116c-1.037,42.584 -35.192,-26.249 -10.116,23.604Zm-62.382,-25.29c-1.981,-1.423 -12.502,31.325 -23.604,10.116c-6.198,-23.54 19.259,-24.202 23.604,-10.116Zm-77.556,-6.744c-1.187,20.819 -17.513,53.548 -20.232,8.43c-5.193,-22.476 -13.77,-51.388 -8.43,-77.556c-1.359,-9.228 3.045,-12.692 1.686,-21.918c6.034,-42.897 4.523,11.026 6.744,21.918c2.444,27.224 11.424,50.354 20.232,69.126Zm80.928,-5.058c18.578,5.696 75.601,-10.665 47.208,5.058c-12.852,11.315 -70.38,-1.935 -47.208,-5.058Zm239.413,-1.686c28.844,3.141 -44.396,8.735 -40.464,30.348c-11.736,30.133 -28.912,-24.012 -35.406,-38.778c-11.008,-22.709 -15.518,-51.925 -20.232,-80.928c-30.788,-43.482 22.577,11.015 32.034,-28.662c14.059,-14.23 44.627,-37.388 67.44,-13.488c27.937,14.504 -1.809,55.616 16.86,74.184c10.101,10.077 46.261,58.208 -3.372,47.208c-6.186,3.61 -13.768,5.947 -16.86,1.686c10.492,-50.782 -19.128,-1.623 0,8.43Zm-463.652,-8.43c9.668,0.676 17.474,-0.511 18.546,-8.43c-10.824,-45.116 -2.461,-12.66 -13.488,3.372c-41.988,5.175 -42.889,-24.083 -18.546,-43.836c27.969,-15.633 -3.045,-56.989 16.86,-75.87c15.129,-24.855 54.961,-17.452 65.754,3.372c7.289,37.136 65.016,-3.01 43.837,33.72c-2.317,31.904 -11.71,58.959 -23.605,79.242c-7.03,13.647 -27.158,69.856 -33.72,42.15c-2.003,-25.022 -54.94,-27.802 -55.638,-33.72Zm438.362,-53.952c56.077,-17.309 -22.282,-35.995 -28.662,-6.744c8.808,-0.297 15.081,-6.977 21.918,-6.744c22.635,6.107 -45.591,6.474 6.744,13.488Zm-413.072,-8.43c17.415,-0.892 54.416,-10.492 18.546,-6.744c-6.55,5.7 -13.348,-10.615 -6.744,-10.116c19.983,11.473 39.83,8.415 11.802,-3.372c-21.564,-6.444 -41.991,2.731 -23.604,20.232Zm158.485,-11.802c38.77,7.304 45.6,-40.151 -0,-30.348c-49.122,0.954 -24.941,18.706 -0,30.348Zm106.218,-0c22.819,1.962 64.426,-27.485 21.918,-28.662c-35.369,-16.218 -60.728,22.714 -21.918,28.662Zm171.973,-1.686c20.074,0.381 -30.759,-28.539 -47.208,-18.546c-29.402,8.76 43.963,-1.175 47.208,18.546Zm-276.505,-3.372c8.723,0.742 16.305,-3.539 16.86,-8.43c1.236,-32.85 18.995,17.705 -13.488,10.116c-41.142,-10.324 -15.269,-36.568 -3.372,-1.686Zm107.904,-0c23.036,-24.609 39.844,-16.762 6.744,1.686c-38.758,-7.353 -19.886,-36.769 -6.744,-1.686Zm-288.307,-5.058c16.584,-15.741 72.955,-13.085 62.382,-16.86c-23.199,-15.729 -65.302,18.394 -62.382,16.86Zm335.516,-28.662c-8.449,-30.718 -61.489,-2.351 -89.359,-15.174c17.201,29.781 69.098,-7.512 89.359,15.174Zm28.662,-1.686c15.99,-23.599 51.35,-42.636 11.802,-10.116c-31.994,34.699 -16.324,-40.497 11.802,-32.034c3.717,-5.274 11.298,-6.687 16.86,-10.117c40.376,-9.721 14.221,-15.421 -6.744,-1.686c-21.642,9.037 -56.812,44.154 -25.29,1.686c4.624,-16.123 55.643,-43.922 62.382,-16.86c-0.649,12.723 4.906,7.876 11.802,11.802c55.8,1.056 -21.132,4.145 -5.058,5.058c-0.432,9.496 12.352,7.38 16.86,3.372c20.182,0.198 -21.98,13.731 -35.406,3.372c-27.128,7.712 -51.681,18.01 -59.01,45.523Zm-230.983,-1.686c14.648,-6.07 35.954,-6.357 52.266,-1.686c18.908,5.673 38.792,-1.379 45.522,-10.116c-16,-2.071 -32.936,6.587 -52.266,1.686c-16.771,-4.497 -41.42,-0.897 -45.522,10.116Zm-33.72,-6.744c0.17,-25.501 -28.339,-33.611 -47.209,-42.151c-19.043,-5.061 -62.937,6.191 -45.522,-6.744c34.938,18.562 8.759,-51.612 45.522,-30.348c25.026,3.967 43.6,19.256 43.837,43.836c-15.104,-13.724 -40.183,-27.144 -62.383,-26.976c23.604,7.205 45.288,18.712 62.383,30.349c31.238,20.233 -5.433,55.206 -13.489,15.174c-33.74,-28.514 13.785,1.023 16.861,16.86Zm128.136,-11.802c9.806,1.824 16.553,-3.293 20.232,-5.058c5.289,-26.88 27.651,17.418 32.034,-8.43c-4.221,4.25 -10.91,5.088 -11.802,-3.372c-17.428,-27.911 29.726,-28.047 5.058,-15.175c26.508,-1.891 51.418,27.214 67.441,15.175c-12.342,-0.157 -24.09,-6.429 -50.581,-16.861c-4.489,-4.901 6.449,-17.47 -3.372,-11.802c-30.172,-22.472 -29.232,32.537 -32.034,18.546c-7.024,-16.131 23.137,-76.352 11.802,-43.836c-6.179,35.895 18.261,-34.118 6.744,-45.522c-3.39,-26.801 -22.884,-43.239 -48.894,-42.15c-25.75,6.196 -33.326,32.896 -35.406,60.696c1.204,6.78 3.229,16.616 5.058,20.232c7.25,39.664 7.857,11.111 -0,-10.116c-5.93,-32.366 15.688,-51.625 21.918,-60.696c12.097,8.175 34.934,-9.335 45.522,15.174c3.765,4.217 7.066,12.778 8.43,16.86c6.39,37.04 -0.293,26.153 -5.058,-1.686c-5.078,-22.704 -48.032,-32.864 -57.324,-8.43c-14.183,-2.709 -14.363,52.008 -3.372,65.754c20.069,19.718 -10.146,55.064 23.604,60.697Zm-40.464,-6.744c12.743,2.628 14.548,-5.686 20.232,-10.116c18.743,-45.631 -44.612,-28.29 -26.976,-25.291c-1.715,13.837 5.169,-7.066 15.174,-1.686c28.93,29.467 -25.536,33.968 -8.43,37.093Zm38.778,-5.058c33.646,5.336 14.39,-26.692 20.232,-42.151c5.815,-14.887 15.608,-38.159 6.744,-55.638c-3.903,4.984 1.283,40.213 -11.802,47.208c-15.314,25.577 0.927,17.054 0,43.837c-28.038,14.337 -16.202,-26.94 -15.174,-37.093c-5.046,-14.631 -19.119,-35.939 -8.43,-53.952c-14.545,-2.308 -7.439,39.384 -1.686,47.208c14.4,14.245 -8.68,41.805 10.116,50.581Zm-99.474,-5.058c7.445,1.219 35.797,-15.104 65.754,-13.489c-17.897,-11.319 -54.215,7.67 -65.754,13.489Zm-18.546,-5.058c-10.806,6.487 -13.789,-36.346 -5.058,-47.209c2.824,-0.671 -11.351,41.257 5.058,47.209Zm119.706,-0c9.191,3.302 13.009,-6.488 8.43,-11.803c-10.362,-2.191 -10.246,6.498 -8.43,11.803Zm-229.297,-8.431c6.34,40.374 -19.082,-25.153 13.488,-15.174c43.919,-0.296 -24.145,-2.266 -13.488,15.174Zm251.215,0c13.502,37.909 -54.264,30.993 -33.72,-6.744c-2.435,-26.81 -21.876,-49.895 -10.116,-80.928c8.258,-27.775 50.845,-19.94 55.638,5.058c9.693,35.108 -14.095,49.849 -11.802,82.614Zm109.591,0c-5.372,2.905 -13.207,-29.751 -0,-26.976c1.057,1.664 5.506,28.02 -0,26.976Zm25.29,-1.686c11.24,-11.884 7.656,-1.679 21.918,-13.488c16.531,-9.615 -30.709,-1.576 -21.918,13.488Zm-271.447,-6.744c3.775,29.499 -17.901,-7.985 -8.43,-18.546c6.098,5.031 3.287,0.365 5.058,-26.976c5.154,-15.376 11.839,-32.223 21.918,-40.464c11.18,-9.351 26.94,-17.121 40.464,-21.918c16.857,5.007 -25.811,9.076 -28.662,18.546c-31.089,22.38 18.676,-9.75 8.43,3.372c-15.51,5.021 -25.929,18.133 -25.29,37.092c-0.727,19.804 -15.385,28.678 -13.488,48.894Zm230.983,-3.372c6.378,9.767 -6.517,-0.961 -5.058,-3.372c-33.004,10.255 0.089,-21.651 -21.919,-30.348c-4.879,-19.009 22.696,23.088 26.977,33.72Zm121.392,0c0.604,-0.634 -25.676,1.55 -25.29,-8.43c-2.502,2.533 20.569,3.558 25.29,8.43Zm-234.355,-1.686c4.662,-3.716 6.297,-18.2 3.372,-21.918c-5.173,3.205 -4.638,19.861 -3.372,21.918Zm234.355,-1.686c5.817,8.393 -5.466,2.357 -11.802,3.372c-47.323,-20.043 31.422,7.281 3.372,-8.43c-11.966,-13.889 -60.86,-27.839 -53.952,-18.546c-14.704,30.256 -53.583,20.261 -26.976,-10.116c34.251,35.811 3.893,-14.69 -1.686,-16.86c10.922,10.452 77.3,3.524 28.662,11.802c-19.232,28.354 18.809,-12.645 37.092,8.43c5.195,2.789 11.725,8.122 15.174,10.116c28.069,26.061 -9.602,-1.018 -18.546,-6.744c-43.283,-6.993 29.974,13.913 28.662,26.976Zm-465.338,-5.058c10.632,1.423 35.718,-19.515 26.976,-5.058c-8.603,5.18 -40.037,9.863 -26.976,5.058Zm141.625,-1.686c-35.435,11.428 -14.694,2.305 -5.058,-23.604c44.871,-21.771 -11.635,1.594 5.058,23.604Zm200.635,-3.372c2.559,7.847 -8.51,-3.665 -6.744,-10.116c-11.246,-24.792 -37.131,-9.101 -11.802,-33.72c-16.68,-15.091 -48.148,-26.237 -38.779,-48.894c21.805,-4.524 56.483,18.898 55.639,30.348c7.305,1.737 24.126,80.729 11.802,42.15c-1.968,-7.024 -2.408,-15.578 -6.744,-20.232c-17.27,-36.859 0.661,9.959 1.686,23.604c5.762,52.9 -12.495,-22.999 -15.174,-35.406c-9.879,-13.066 -67.324,-41.626 -26.977,-11.802c32.695,1.022 24.96,42.484 37.093,64.068Zm47.208,0c9.602,-2.036 -11.14,-8.126 -10.116,-16.86c-5.191,-2.655 -1.452,21.364 10.116,16.86Zm-278.191,-1.686c5.864,-20.638 10.449,-49.255 20.232,-60.696c-14.004,8.447 -19.342,34.907 -20.232,60.696Zm170.286,-1.686c24.016,-4.355 8.764,-47.473 8.43,-11.802c-8.509,28.383 -7.654,-22.321 -6.744,-32.034c-2.036,-17.517 -11.903,-57.707 -6.744,-13.488c10.691,17.369 -7.454,45.883 5.058,57.324Zm-210.751,-11.802c22.891,-32.484 7.771,-21.685 -1.686,-10.116c-13.71,-26.263 -38.446,4.409 -55.638,10.116c-36.278,26.54 11.914,-16.956 21.918,-20.232c25.198,-6.513 47.411,-10.792 33.72,-25.29c-10.712,6.331 22.289,-51.04 33.721,-21.918c-8.199,34.076 -18.117,24.196 -8.43,64.068c4.078,4.971 -0.065,18.425 -1.686,20.232c-29.062,-3.96 2.024,-17.871 -8.431,-25.29c-20.248,42.078 -37.911,-42.534 -13.488,8.43Zm158.485,0c21.2,2.452 21.387,-35.271 6.744,-40.464c-21.2,-2.451 -21.387,35.271 -6.744,40.464Zm1.686,-8.43c10.587,-0.044 6.102,-24.953 1.686,-18.546c-4.127,-10.664 -8.024,13.165 -1.686,18.546Zm-175.345,-5.058c1.671,10.393 -13.796,11.165 -21.918,6.744c13.259,2.507 22.426,-11.803 21.918,-6.744Zm96.103,-3.372c-11.008,-11.33 -31.459,37.514 -28.662,26.976c10.271,-16.701 5.039,-48.916 23.604,-57.324c5.564,-10.016 42.34,-41.079 28.662,-6.744c-14.726,3.473 -52.293,19.462 -23.604,37.092Zm89.358,-5.058c9.54,14.911 -19.989,26.943 -18.546,5.058c-3.952,-17.689 19.435,-26.465 18.546,-5.058Zm-87.672,-5.058c12.031,-26.044 18.671,-17.305 6.744,5.058c-30.08,-4.658 7.956,-34.317 -6.744,-5.058Zm-72.499,-1.686c18.734,-8.184 -2.928,-1.387 -3.372,-13.488c-2.866,-14.503 -11.963,19.522 3.372,13.488Zm224.239,0c10.089,-25.206 21.934,23.646 -1.686,6.744c-10.586,-20.471 -9.485,-28.689 1.686,-6.744Zm72.499,-3.372c9.502,1.33 6.751,-9.994 5.058,-15.174c-11.897,-40.725 -9.02,4.224 -3.372,8.43c-5.075,-2.792 -9.959,-5.778 -10.116,-13.488c-9.499,-37.084 -6.218,25.25 8.43,20.232Zm10.116,-1.686c-10.48,26.922 -42.504,-31.048 -13.488,-37.092c18.839,23.639 32.071,35.811 13.488,37.092Zm-303.482,-5.058c3.487,-4.495 10.853,-8.993 11.803,-13.488c10.281,-41.907 0.315,-5.899 -8.43,6.744c18.976,-43.71 -10.919,-30.507 -3.373,6.744Zm252.902,-8.43c-7.242,-15.209 -29.932,-24.317 -50.581,-30.348c13.753,8.7 37.44,16.808 50.581,30.348Zm-123.079,-1.686c10.834,-15.575 26.214,-10.578 35.406,-3.372c-6.395,-16.283 -33.452,-9.858 -35.406,3.372Zm104.532,-1.686c5.947,-5.918 -21.446,-15.708 -30.348,-18.546c-1.751,1.723 26.705,10.45 30.348,18.546Zm-192.204,-20.232c5.961,-1.404 17.113,-9.209 8.43,-15.174c-3.005,-4.515 -5.38,9.556 -8.43,15.174Zm138.252,-6.744c26.076,-12.728 -40.639,-13.382 16.86,-16.86c35.501,-5.965 -68.676,-10.232 -16.86,16.86Zm52.266,-0c8.589,1.817 6.561,-18.733 -1.686,-15.174c-7.003,-0.206 3.848,15.142 1.686,15.174Zm-134.88,-1.686c-14.651,-3.214 -44.755,14.537 -57.324,25.29c8.647,-13.382 34.822,-32.557 57.324,-25.29Zm-38.778,-1.686c6.89,3.22 11.674,-14.709 6.744,-15.174c-5.795,-1.593 -10.627,5.134 -6.744,15.174Zm52.266,-0c32.247,2.222 6.388,-34.997 -18.546,-18.546c-10.759,7.337 55.888,-3.811 18.546,18.546Zm18.546,-8.43c17.374,-29.628 -49.526,-16.184 -26.976,-42.15c9.194,-16.304 37.578,-28.28 60.696,-18.546c16.597,-0.164 51.584,33.138 20.232,38.778c-27.827,18.782 -23.671,22.953 6.744,6.744c31.815,15.45 5.893,-35.271 -1.686,-40.464c-10.873,-15.422 -48.169,-17.026 -67.44,-11.802c-19.2,8.998 -28.035,35.134 -35.406,43.836c-9.715,28.308 45.677,-15.323 43.836,23.604Zm11.802,-0c15.216,6.059 16.059,-11.87 10.116,-15.174c-8.7,-6.468 -14.355,11.411 -10.116,15.174Zm121.393,-20.232c-8.349,-7.747 -29.131,-24.301 -48.895,-26.976c-8.524,1.527 19.705,-47.851 -23.604,-37.092c-14.193,-13.195 -41.653,-15.687 -38.778,-43.837c9.688,-14.558 53.221,-17.437 40.464,10.116c-10.947,31.485 43.407,12.596 45.523,33.721c-3.652,-4.9 -47.839,-14.003 -50.581,-10.116c21.338,6.051 46.667,10.672 60.697,21.918c29.026,5.707 11.254,34.799 15.174,52.266Zm-96.103,-1.686c4.763,-5.618 21.101,-7.086 25.29,-8.43c-9.359,-3.827 -25.234,-1.897 -25.29,8.43Zm-40.464,-1.686c7.154,-6.211 -12.751,-13.055 -21.918,-10.116c-7.014,6.034 23.712,1.684 21.918,10.116Zm15.174,-3.372c22.058,5.06 20.75,-20.433 11.802,-28.662c-16.936,-10.184 -22.193,21.876 -11.802,28.662Zm111.277,-8.43c11.122,-4.79 10.832,-25.81 -3.372,-26.976c-14.207,2.842 -8.424,26.993 3.372,26.976Zm-212.437,-6.744c16.629,2.955 17.58,-18.838 8.43,-23.604c-13.203,-5.156 -17.68,17.799 -8.43,23.604Zm112.962,-5.058c8.742,11.041 -9.743,22.56 -11.802,10.116c-3.766,-14.439 9.688,-22.224 11.802,-10.116Zm72.498,-3.372c15.714,5.338 21.517,-22.594 6.744,-23.604c-15.531,-9.815 -17.986,21.466 -6.744,23.604Zm30.349,-0c5.727,5.542 -10.224,17.563 -10.116,3.372c-7.365,-7.181 11.331,-16.454 10.116,-3.372Zm-193.891,-1.686c16.976,6.172 20.859,-25.7 8.43,-26.976c-18.416,-2.889 -17.632,22.332 -8.43,26.976Zm26.976,-1.686c-20.156,1.873 -46.561,20.818 -55.638,26.976c-7.52,-26.332 -5.293,-47.345 21.918,-55.638c6.454,-8.092 83.821,-12.669 43.836,-15.175c-27.753,5.497 -66.041,13.483 -18.546,-1.686c37.129,20.774 20.837,-71.036 28.662,-23.604c-1.78,50.508 7.226,-1.216 10.116,-16.86c45.126,-9.222 20.826,47.348 1.686,43.836c-14.425,8.351 -63.364,12.426 -32.034,42.151Zm-38.778,-1.686c5.727,5.542 -10.224,17.563 -10.116,3.372c-7.365,-7.181 11.331,-16.454 10.116,-3.372Zm48.894,-0c5.141,-13.099 16.361,-23.291 25.29,-30.348c-14.839,3.402 -23.72,15.931 -25.29,30.348Zm-8.43,-10.116c1.763,18.392 -14.508,-16.795 -0,-15.174c27.182,-0.678 -2.199,2.291 -0,15.174Zm144.996,-0c5.369,6.524 -11.031,18.402 -11.802,6.744c-10.058,-11.216 12.624,-16.813 11.802,-6.744Zm-25.29,-3.372c-6.388,21.425 -9.494,16.032 -6.744,-5.058c-25.259,2.237 3.989,-15.559 6.744,5.058Zm-138.252,-1.686c5.899,8.06 -7.257,20.399 -11.802,8.43c-7.028,-6.933 8.511,-21.654 11.802,-8.43Zm72.498,-5.058c16.225,2.962 13.222,-21.886 5.058,-25.291c-7.504,-1.844 -15.056,19.105 -5.058,25.291Zm-101.16,-8.43c0.711,-12.178 17.639,-34.736 11.802,-47.209c2.834,23.746 -25.515,29.905 -11.802,47.209Zm139.938,-15.175c11.177,6.615 -5.316,-23.303 3.372,-32.034c-8.344,-5.917 -5.658,28.879 -3.372,32.034Zm45.522,0c-9.308,3.986 -12.592,-20.184 -18.546,-28.662c8.94,-3.616 13.932,18.847 18.546,28.662Zm-52.266,-1.686c3.165,-0.232 -2.24,-19.456 1.686,-32.034c-4.277,1.649 -7.494,25.817 -1.686,32.034Zm38.778,0c-6.986,2.979 -9.48,-21.138 -11.802,-32.034c5.261,-1.252 8.81,21.809 11.802,32.034Zm-97.788,-3.372c10.342,-4.484 0.039,-22.058 3.372,-32.034c-9.093,6.608 3.114,26.084 -3.372,32.034Zm85.986,0c-14.97,8.97 -3.724,-24.878 -10.116,-28.662c6.984,-10.959 9.494,21.177 10.116,28.662Zm-104.532,-20.232c7.6,19.235 -12.38,30.638 -5.058,1.686c3.891,-17.481 15.432,-23.868 5.058,-1.686Zm47.208,-38.778c7.68,4.737 3.843,-17.138 8.43,-5.058c14.169,9.827 -17.625,-33.308 1.686,-18.546c18.543,34.67 16.941,-2.231 -5.058,-6.744c-9.366,20.8 -21.544,31.846 -11.802,1.686c-30.038,18.977 1.639,24.256 6.744,28.662Zm28.662,-11.802c6.675,20.29 -35.696,12.5 -47.208,11.802c-21.068,-9.571 5.984,-31.781 10.116,-38.778c43.16,-10.881 -24.575,8.387 13.488,5.058c7.671,-11.63 16.344,9.448 23.604,21.918Z" style="fill:#7a52ae;fill-rule:nonzero;"/></g></svg>